<svg width="377" height="357" viewBox="0 0 377 357" fill="none" xmlns="http://www.w3.org/2000/svg">
<path d="M367.763 178.621C367.763 193.415 356.445 182.433 354.671 197.123C352.897 211.813 378.017 206.609 374.469 220.978C370.922 235.348 356.999 221.381 351.722 235.214C346.445 249.048 372.067 250.865 365.143 263.961C358.219 277.058 344.424 258.63 335.966 270.796C327.508 282.962 357.329 296.014 347.463 307.085C337.598 318.157 319.723 288.836 308.593 298.657C297.463 308.47 309.813 308.403 297.582 316.817C285.344 325.23 286.999 308.5 273.832 315.387C260.666 322.274 276.916 334.202 263.009 339.451C249.101 344.7 251.646 318.335 237.208 321.865C222.761 325.394 236.639 342.124 221.871 343.888C207.102 345.653 216.564 338.885 201.691 338.885C186.818 338.885 194.827 357.647 180.059 355.883C165.291 354.118 176.578 341.744 162.139 338.215C147.693 334.686 152.791 348.609 138.883 343.36C124.976 338.111 132.596 341.416 119.429 334.529C106.263 327.642 107.161 340.88 94.9231 332.467C82.685 324.054 113.838 299.595 102.708 289.775C91.5773 279.961 85.8736 300.451 76.0083 289.38C66.1429 278.309 70.9783 286.342 62.5201 274.169C54.0619 261.996 33.0662 283.386 26.1425 270.29C19.2188 257.193 59.6758 248.02 54.3988 234.187C49.1218 220.353 22.1379 237.872 18.59 223.51C15.0421 209.148 34.3162 213.756 32.5422 199.066C30.7608 184.377 1 193.423 1 178.629C1 163.834 23.4179 172.002 25.1994 157.312C26.9808 142.622 30.3192 151.855 33.8671 137.485C37.4151 123.115 48.7625 136.77 54.0395 122.936C59.3165 109.103 18.9867 99.9374 25.903 86.8409C32.8192 73.7443 46.2475 89.8861 54.7057 77.7127C63.1638 65.5394 51.6966 66.2169 61.5695 55.1455C71.4424 44.0741 89.2569 74.6973 100.395 64.8842C111.533 55.071 78.7778 27.5749 91.0159 19.1615C103.254 10.7482 118.988 53.6713 132.154 46.7917C145.32 39.9121 120.874 8.3954 134.781 3.14634C148.689 -2.10272 149.198 28.6694 163.644 25.1403C178.09 21.6111 165.568 5.43954 180.336 3.67497C195.104 1.91039 186.81 16.3397 201.691 16.3397C216.564 16.3397 208.585 -0.635959 223.353 1.12862C238.121 2.90064 225.755 19.7497 240.202 23.2789C254.648 26.808 254.476 -1.50708 268.376 3.73453C282.275 8.97614 268.263 20.6134 281.43 27.5005C294.596 34.3875 301.954 8.12736 314.192 16.5407C326.43 24.9541 299.663 46.3152 310.794 56.1283C321.924 65.9414 329.147 46.546 339.013 57.6174C348.878 68.6888 323.436 77.0873 331.894 89.2532C340.352 101.419 355.397 81.6663 362.321 94.7628C369.245 107.859 356.894 104.256 362.171 118.082C367.448 131.908 366.505 122.974 370.053 137.343C373.601 151.713 379.327 149.956 373.564 163.596C369.582 173.015 367.77 163.827 367.77 178.621H367.763Z" fill="black" stroke="#BCE5A1" stroke-miterlimit="10"/>
</svg>
