<svg width="541" height="536" viewBox="0 0 541 536" fill="none" xmlns="http://www.w3.org/2000/svg">
<path d="M539 268.096L478.219 298.028L528.185 343.805L461.433 355.332L496.392 413.403L429.091 405.604L446.344 471.163L383.927 444.795L382.075 512.57L329.646 469.63L308.678 534.102L270.5 478.081L232.311 534.102L211.354 469.63L158.925 512.57L157.062 444.795L94.6565 471.163L111.909 405.604L44.6077 413.403L79.5674 355.332L12.8046 343.805L62.7809 298.028L2 268.096L62.7809 238.175L12.8046 192.388L79.5674 180.861L44.6077 122.79L111.909 130.599L94.6565 65.0297L157.062 91.4086L158.925 23.6334L211.354 66.5626L232.311 2.10156L270.5 58.1114L308.678 2.10156L329.646 66.5626L382.075 23.6334L383.927 91.4086L446.344 65.0297L429.091 130.599L496.392 122.79L461.433 180.861L528.185 192.388L478.219 238.175L539 268.096Z" fill="black" stroke="#BCE5A1" stroke-miterlimit="10"/>
</svg>
