<svg width="177" height="19" viewBox="0 0 177 19" fill="none" xmlns="http://www.w3.org/2000/svg">
<g id="Group">
<g id="Group_2">
<path id="Vector" d="M102.497 6.6638C101.926 4.05187 99.7659 2.5553 97.2952 2.5553C92.8075 2.5553 90.9076 6.3068 90.9076 10.0119C90.9076 13.717 92.8075 17.4685 97.2952 17.4685C100.43 17.4685 102.424 15.0462 102.733 12.0309H104.348C103.897 16.1878 101.26 18.8461 97.2952 18.8461C91.9523 18.8461 89.292 14.6428 89.292 10.0119C89.292 5.38103 91.9523 1.17773 97.2952 1.17773C100.502 1.17773 103.683 3.10189 104.11 6.6638H102.495H102.497Z" fill="white"/>
<path id="Vector_2" d="M106.345 6.23522H107.723V9.10936H107.771C108.532 7.13881 110.194 5.97504 112.402 6.06983V7.5664C109.696 7.4232 107.842 9.41795 107.842 11.9593V18.4901H106.345V6.23522Z" fill="white"/>
<path id="Vector_3" d="M114.087 12.7668C114.111 14.9511 115.251 17.5873 118.125 17.5873C120.309 17.5873 121.497 16.3045 121.973 14.453H123.47C122.828 17.2323 121.213 18.8459 118.127 18.8459C114.232 18.8459 112.592 15.8527 112.592 12.3614C112.592 9.13229 114.23 5.87695 118.127 5.87695C122.023 5.87695 123.637 9.31986 123.518 12.7648H114.089L114.087 12.7668ZM122.019 11.5082C121.949 9.25129 120.547 7.13754 118.125 7.13754C115.702 7.13754 114.325 9.27549 114.087 11.5082H122.019Z" fill="white"/>
<path id="Vector_4" d="M125.202 9.98741C125.345 7.11327 127.364 5.87891 130.166 5.87891C132.328 5.87891 134.678 6.5445 134.678 9.82202V16.3287C134.678 16.8994 134.962 17.2302 135.557 17.2302C135.722 17.2302 135.914 17.1818 136.031 17.1354V18.394C135.698 18.4646 135.46 18.4888 135.057 18.4888C133.536 18.4888 133.3 17.6336 133.3 16.3508H133.252C132.207 17.9422 131.138 18.8438 128.786 18.8438C126.434 18.8438 124.678 17.7284 124.678 15.2577C124.678 11.8148 128.026 11.6958 131.257 11.3145C132.491 11.1713 133.181 11.006 133.181 9.6526C133.181 7.63364 131.733 7.13546 129.974 7.13546C128.123 7.13546 126.745 7.99064 126.697 9.98539H125.2L125.202 9.98741ZM133.181 11.7926H133.133C132.943 12.1496 132.278 12.2665 131.874 12.3392C129.333 12.7909 126.174 12.7667 126.174 15.1649C126.174 16.6615 127.503 17.5872 128.905 17.5872C131.184 17.5872 133.203 16.1391 133.181 13.7389V11.7905V11.7926Z" fill="white"/>
<path id="Vector_5" d="M139.855 6.23749H142.348V7.49605H139.855V15.7615C139.855 16.7356 139.998 17.3044 141.067 17.377C141.495 17.377 141.923 17.3528 142.35 17.3064V18.5892C141.898 18.5892 141.471 18.6376 141.021 18.6376C139.026 18.6376 138.336 17.972 138.361 15.8825V7.49807H136.223V6.2395H138.361V2.55859H139.857V6.2395L139.855 6.23749Z" fill="white"/>
<path id="Vector_6" d="M144.343 1.5332H145.839V3.93134H144.343V1.5332ZM144.343 6.23468H145.839V18.4896H144.343V6.23468Z" fill="white"/>
<path id="Vector_7" d="M147.146 6.23633H148.808L152.656 16.9947H152.704L156.504 6.23633H158.047L153.463 18.4912H151.871L147.146 6.23633Z" fill="white"/>
<path id="Vector_8" d="M160.207 12.7668C160.232 14.9511 161.371 17.5873 164.245 17.5873C166.43 17.5873 167.618 16.3045 168.094 14.453H169.59C168.949 17.2323 167.333 18.8459 164.247 18.8459C160.353 18.8459 158.713 15.8527 158.713 12.3614C158.713 9.13229 160.351 5.87695 164.247 5.87695C168.144 5.87695 169.758 9.31986 169.639 12.7648H160.209L160.207 12.7668ZM168.14 11.5082C168.069 9.25129 166.668 7.13754 164.245 7.13754C161.823 7.13754 160.445 9.27549 160.207 11.5082H168.14Z" fill="white"/>
<path id="Vector_9" d="M0 1.31658H7.93261C10.8531 1.26817 14.0601 2.02856 14.0601 5.56828C14.0601 7.08905 13.1585 8.32341 11.8273 8.989C13.6325 9.51139 14.7478 11.0786 14.7478 13.0027C14.7478 17.0406 11.7789 18.275 8.14641 18.275H0V1.31658ZM4.41709 7.99062H7.83782C8.5982 7.99062 9.64297 7.58723 9.64297 6.37505C9.64297 5.16287 8.76359 4.7373 7.83782 4.7373H4.41709V7.99062ZM4.41709 14.7353H7.95681C9.35859 14.7353 10.3328 14.2371 10.3328 12.8353C10.3328 11.3387 9.28799 10.8406 7.95681 10.8406H4.41709V14.7353Z" fill="white"/>
<path id="Vector_10" d="M16.6237 9.7487C16.6943 8.13314 17.4547 7.08836 18.5478 6.44698C19.641 5.82979 21.065 5.5918 22.4667 5.5918C25.3873 5.5918 28.215 6.23318 28.215 9.7245V15.1158C28.215 16.1605 28.215 17.3001 28.689 18.2743H24.6269C24.4837 17.8951 24.4373 17.5139 24.3889 17.1105C23.3441 18.2037 21.8012 18.6313 20.3288 18.6313C17.977 18.6313 16.1255 17.4433 16.1255 14.902C16.1255 10.8883 20.4962 11.1969 23.2977 10.6281C23.9855 10.4849 24.3667 10.2489 24.3667 9.48852C24.3667 8.56274 23.2513 8.20574 22.4183 8.20574C21.303 8.20574 20.589 8.70393 20.3994 9.7487H16.6237ZM21.8496 16.1363C23.7737 16.1363 24.4151 15.0432 24.3203 12.5018C23.7495 12.8588 22.7047 12.9294 21.8274 13.1674C20.9258 13.3812 20.1654 13.7604 20.1654 14.7346C20.1654 15.7087 20.95 16.1363 21.8516 16.1363H21.8496Z" fill="white"/>
<path id="Vector_11" d="M30.6838 5.94879H34.6027V7.63495H34.6511C35.3873 6.37638 37.0493 5.5918 38.5217 5.5918C42.6301 5.5918 42.9629 8.58493 42.9629 10.3659V18.2743H38.925V12.3142C38.925 10.6281 39.1146 8.91772 36.9061 8.91772C35.3853 8.91772 34.7217 10.2005 34.7217 11.5539V18.2743H30.6838V5.94879Z" fill="white"/>
<path id="Vector_12" d="M45.2877 9.7487C45.3583 8.13314 46.1187 7.08836 47.2119 6.44698C48.3051 5.82979 49.729 5.5918 51.1308 5.5918C54.0513 5.5918 56.8791 6.23318 56.8791 9.7245V15.1158C56.8791 16.1605 56.8791 17.3001 57.353 18.2743H53.2909C53.1477 17.8951 53.1013 17.5139 53.0529 17.1105C52.0082 18.2037 50.4652 18.6313 48.9928 18.6313C46.6411 18.6313 44.7896 17.4433 44.7896 14.902C44.7896 10.8883 49.1603 11.1969 51.9618 10.6281C52.6496 10.4849 53.0308 10.2489 53.0308 9.48852C53.0308 8.56274 51.9154 8.20574 51.0824 8.20574C49.967 8.20574 49.253 8.70393 49.0634 9.7487H45.2877ZM50.5136 16.1363C52.4378 16.1363 53.0792 15.0432 52.9844 12.5018C52.4136 12.8588 51.3688 12.9294 50.4914 13.1674C49.5899 13.3812 48.8295 13.7604 48.8295 14.7346C48.8295 15.7087 49.6141 16.1363 50.5156 16.1363H50.5136Z" fill="white"/>
<path id="Vector_13" d="M59.3477 5.94879H63.2666V7.63495H63.315C64.0512 6.37638 65.7131 5.5918 67.1855 5.5918C71.294 5.5918 71.6268 8.58493 71.6268 10.3659V18.2743H67.5889V12.3142C67.5889 10.6281 67.7785 8.91772 65.5699 8.91772C64.0491 8.91772 63.3856 10.2005 63.3856 11.5539V18.2743H59.3477V5.94879Z" fill="white"/>
<path id="Vector_14" d="M73.953 9.7487C74.0236 8.13314 74.784 7.08836 75.8772 6.44698C76.9704 5.82979 78.3943 5.5918 79.7961 5.5918C82.7166 5.5918 85.5444 6.23318 85.5444 9.7245V15.1158C85.5444 16.1605 85.5444 17.3001 86.0183 18.2743H81.9562C81.813 17.8951 81.7666 17.5139 81.7182 17.1105C80.6735 18.2037 79.1305 18.6313 77.6581 18.6313C75.3064 18.6313 73.4548 17.4433 73.4548 14.902C73.4548 10.8883 77.8255 11.1969 80.6271 10.6281C81.3148 10.4849 81.696 10.2489 81.696 9.48852C81.696 8.56274 80.5807 8.20574 79.7477 8.20574C78.6323 8.20574 77.9183 8.70393 77.7287 9.7487H73.953ZM79.1789 16.1363C81.1031 16.1363 81.7444 15.0432 81.6496 12.5018C81.0789 12.8588 80.0341 12.9294 79.1567 13.1674C78.2551 13.3812 77.4948 13.7604 77.4948 14.7346C77.4948 15.7087 78.2793 16.1363 79.1809 16.1363H79.1789Z" fill="white"/>
</g>
<path id="Vector_15" d="M174.023 4.40499C172.757 4.40499 171.855 3.45703 171.855 2.2025C171.855 0.877369 172.856 0 174.023 0C175.191 0 176.18 0.877369 176.18 2.2025C176.18 3.52762 175.179 4.40499 174.023 4.40499ZM174.023 0.381201C173.069 0.381201 172.327 1.12948 172.327 2.20048C172.327 3.20088 172.975 4.01975 174.023 4.01975C174.965 4.01975 175.708 3.27752 175.708 2.20048C175.708 1.12343 174.965 0.381201 174.023 0.381201ZM173.588 3.46106H173.186V1.02259H174.11C174.699 1.02259 175 1.22831 175 1.72448C175 2.16619 174.729 2.34973 174.364 2.39007L175.048 3.46308H174.594L173.965 2.42033H173.588V3.46308V3.46106ZM174.036 2.07744C174.336 2.07744 174.6 2.04719 174.6 1.69423C174.6 1.39975 174.312 1.36345 174.07 1.36345H173.588V2.07543H174.036V2.07744Z" fill="white"/>
</g>
</svg>
