<svg width="152" height="17" viewBox="0 0 152 17" fill="none" xmlns="http://www.w3.org/2000/svg">
<path d="M3.86786 6.84583H7.2926C7.8957 6.84583 8.3911 6.70224 8.77881 6.41505C9.16651 6.12786 9.36036 5.66118 9.36036 5.015C9.36036 4.65601 9.29575 4.36164 9.16651 4.13189C9.03728 3.90214 8.86496 3.72265 8.64957 3.59341C8.43418 3.46417 8.18289 3.37802 7.8957 3.33494C7.62287 3.2775 7.33568 3.24878 7.03413 3.24878H3.86786V6.84583ZM0.486206 0.620998H7.72338C8.45572 0.620998 9.12343 0.685616 9.72653 0.814851C10.3296 0.944086 10.8466 1.15948 11.2774 1.46103C11.7081 1.74822 12.0384 2.13592 12.2682 2.62415C12.5123 3.11237 12.6343 3.71547 12.6343 4.43344C12.6343 5.20885 12.4548 5.85503 12.0958 6.37197C11.7512 6.88891 11.2343 7.31252 10.545 7.64278C11.4927 7.91561 12.1964 8.39666 12.6559 9.08591C13.1297 9.76081 13.3667 10.5793 13.3667 11.5414C13.3667 12.3168 13.2159 12.9917 12.9143 13.5661C12.6128 14.1261 12.2035 14.5856 11.6866 14.9446C11.184 15.3036 10.6025 15.5692 9.94192 15.7415C9.29575 15.9138 8.62803 16 7.93878 16H0.486206V0.620998ZM3.86786 13.3722H7.48645C7.81672 13.3722 8.13263 13.3435 8.43418 13.2861C8.73573 13.2143 9.00138 13.1066 9.23113 12.963C9.46088 12.805 9.64037 12.5968 9.76961 12.3383C9.9132 12.0799 9.985 11.7496 9.985 11.3475C9.985 10.5578 9.76243 9.99774 9.31729 9.66747C8.87214 9.32284 8.2834 9.15053 7.55107 9.15053H3.86786V13.3722ZM15.1997 8.28896C15.2428 7.57099 15.4223 6.97507 15.7382 6.5012C16.0541 6.02734 16.4561 5.64682 16.9444 5.35963C17.4326 5.07244 17.9782 4.8714 18.5813 4.75653C19.1988 4.62729 19.8163 4.56268 20.4337 4.56268C20.9937 4.56268 21.5609 4.60575 22.1353 4.69191C22.7097 4.76371 23.2338 4.91448 23.7077 5.14423C24.1815 5.37399 24.5692 5.69707 24.8708 6.1135C25.1723 6.51556 25.3231 7.05404 25.3231 7.72894V13.523C25.3231 14.0256 25.3518 14.5066 25.4093 14.9661C25.4667 15.4256 25.5672 15.7702 25.7108 16H22.6092C22.5517 15.8277 22.5015 15.6554 22.4584 15.4831C22.4297 15.2964 22.4081 15.1097 22.3938 14.923C21.9056 15.4256 21.3312 15.7774 20.6706 15.9785C20.0101 16.1795 19.3352 16.28 18.646 16.28C18.1147 16.28 17.6193 16.2154 17.1597 16.0862C16.7002 15.9569 16.2982 15.7559 15.9536 15.4831C15.6089 15.2102 15.3361 14.8656 15.1351 14.4492C14.9484 14.0328 14.8551 13.5373 14.8551 12.963C14.8551 12.3312 14.9627 11.8142 15.1781 11.4121C15.4079 10.9957 15.6951 10.6655 16.0397 10.4213C16.3987 10.1772 16.8008 9.99774 17.2459 9.88286C17.7054 9.75363 18.1649 9.65311 18.6244 9.58131C19.0839 9.50952 19.5362 9.45208 19.9814 9.409C20.4265 9.36592 20.8214 9.3013 21.166 9.21515C21.5107 9.12899 21.7835 9.00693 21.9845 8.84898C22.1856 8.67667 22.2789 8.43255 22.2645 8.11665C22.2645 7.78638 22.2071 7.52791 22.0922 7.34123C21.9917 7.1402 21.8481 6.98943 21.6614 6.88891C21.4891 6.77403 21.2809 6.70224 21.0368 6.67352C20.8071 6.63044 20.5558 6.6089 20.2829 6.6089C19.6798 6.6089 19.206 6.73814 18.8613 6.99661C18.5167 7.25508 18.3157 7.68586 18.2582 8.28896H15.1997ZM22.2645 10.5506C22.1353 10.6655 21.9702 10.7588 21.7691 10.8306C21.5825 10.888 21.3743 10.9383 21.1445 10.9814C20.9291 11.0244 20.6994 11.0603 20.4552 11.0891C20.2111 11.1178 19.967 11.1537 19.7229 11.1968C19.4932 11.2398 19.2634 11.2973 19.0337 11.3691C18.8183 11.4409 18.6244 11.5414 18.4521 11.6706C18.2941 11.7855 18.1649 11.9363 18.0644 12.1229C17.9639 12.3096 17.9136 12.5465 17.9136 12.8337C17.9136 13.1066 17.9639 13.3363 18.0644 13.523C18.1649 13.7097 18.3013 13.8604 18.4736 13.9753C18.646 14.0758 18.847 14.1476 19.0767 14.1907C19.3065 14.2338 19.5434 14.2553 19.7875 14.2553C20.3906 14.2553 20.8573 14.1548 21.1876 13.9538C21.5178 13.7527 21.762 13.5158 21.9199 13.243C22.0779 12.9558 22.1712 12.6686 22.1999 12.3814C22.243 12.0942 22.2645 11.8645 22.2645 11.6922V10.5506ZM27.6971 4.86422H30.6049V6.41505H30.6695C31.0573 5.76887 31.5598 5.30219 32.1773 5.015C32.7948 4.71345 33.4266 4.56268 34.0727 4.56268C34.8912 4.56268 35.559 4.67755 36.0759 4.9073C36.6072 5.1227 37.0236 5.43142 37.3252 5.83349C37.6267 6.22119 37.8349 6.70224 37.9498 7.27662C38.079 7.83664 38.1437 8.46127 38.1437 9.15053V16H35.0851V9.71055C35.0851 8.79154 34.9415 8.10947 34.6543 7.66432C34.3671 7.20482 33.8574 6.97507 33.125 6.97507C32.2922 6.97507 31.6891 7.22636 31.3157 7.72894C30.9424 8.21716 30.7557 9.02847 30.7557 10.1629V16H27.6971V4.86422ZM40.3358 8.28896C40.3789 7.57099 40.5583 6.97507 40.8743 6.5012C41.1902 6.02734 41.5922 5.64682 42.0805 5.35963C42.5687 5.07244 43.1143 4.8714 43.7174 4.75653C44.3349 4.62729 44.9523 4.56268 45.5698 4.56268C46.1298 4.56268 46.697 4.60575 47.2714 4.69191C47.8458 4.76371 48.3699 4.91448 48.8438 5.14423C49.3176 5.37399 49.7053 5.69707 50.0069 6.1135C50.3084 6.51556 50.4592 7.05404 50.4592 7.72894V13.523C50.4592 14.0256 50.4879 14.5066 50.5454 14.9661C50.6028 15.4256 50.7033 15.7702 50.8469 16H47.7453C47.6878 15.8277 47.6376 15.6554 47.5945 15.4831C47.5658 15.2964 47.5442 15.1097 47.5299 14.923C47.0417 15.4256 46.4673 15.7774 45.8067 15.9785C45.1462 16.1795 44.4713 16.28 43.7821 16.28C43.2508 16.28 42.7553 16.2154 42.2958 16.0862C41.8363 15.9569 41.4343 15.7559 41.0897 15.4831C40.745 15.2102 40.4722 14.8656 40.2712 14.4492C40.0845 14.0328 39.9912 13.5373 39.9912 12.963C39.9912 12.3312 40.0988 11.8142 40.3142 11.4121C40.544 10.9957 40.8312 10.6655 41.1758 10.4213C41.5348 10.1772 41.9369 9.99774 42.382 9.88286C42.8415 9.75363 43.301 9.65311 43.7605 9.58131C44.22 9.50952 44.6723 9.45208 45.1175 9.409C45.5626 9.36592 45.9575 9.3013 46.3021 9.21515C46.6468 9.12899 46.9196 9.00693 47.1206 8.84898C47.3217 8.67667 47.415 8.43255 47.4006 8.11665C47.4006 7.78638 47.3432 7.52791 47.2283 7.34123C47.1278 7.1402 46.9842 6.98943 46.7975 6.88891C46.6252 6.77403 46.417 6.70224 46.1729 6.67352C45.9432 6.63044 45.6919 6.6089 45.419 6.6089C44.8159 6.6089 44.3421 6.73814 43.9974 6.99661C43.6528 7.25508 43.4518 7.68586 43.3943 8.28896H40.3358ZM47.4006 10.5506C47.2714 10.6655 47.1063 10.7588 46.9052 10.8306C46.7186 10.888 46.5104 10.9383 46.2806 10.9814C46.0652 11.0244 45.8355 11.0603 45.5913 11.0891C45.3472 11.1178 45.1031 11.1537 44.859 11.1968C44.6293 11.2398 44.3995 11.2973 44.1698 11.3691C43.9544 11.4409 43.7605 11.5414 43.5882 11.6706C43.4302 11.7855 43.301 11.9363 43.2005 12.1229C43.1 12.3096 43.0497 12.5465 43.0497 12.8337C43.0497 13.1066 43.1 13.3363 43.2005 13.523C43.301 13.7097 43.4374 13.8604 43.6097 13.9753C43.7821 14.0758 43.9831 14.1476 44.2128 14.1907C44.4426 14.2338 44.6795 14.2553 44.9236 14.2553C45.5267 14.2553 45.9934 14.1548 46.3237 13.9538C46.6539 13.7527 46.8981 13.5158 47.056 13.243C47.214 12.9558 47.3073 12.6686 47.336 12.3814C47.3791 12.0942 47.4006 11.8645 47.4006 11.6922V10.5506ZM52.8332 4.86422H55.741V6.41505H55.8056C56.1934 5.76887 56.6959 5.30219 57.3134 5.015C57.9308 4.71345 58.5627 4.56268 59.2088 4.56268C60.0273 4.56268 60.695 4.67755 61.212 4.9073C61.7433 5.1227 62.1597 5.43142 62.4613 5.83349C62.7628 6.22119 62.971 6.70224 63.0859 7.27662C63.2151 7.83664 63.2798 8.46127 63.2798 9.15053V16H60.2212V9.71055C60.2212 8.79154 60.0776 8.10947 59.7904 7.66432C59.5032 7.20482 58.9935 6.97507 58.2611 6.97507C57.4283 6.97507 56.8252 7.22636 56.4518 7.72894C56.0785 8.21716 55.8918 9.02847 55.8918 10.1629V16H52.8332V4.86422ZM65.4719 8.28896C65.5149 7.57099 65.6944 6.97507 66.0104 6.5012C66.3263 6.02734 66.7283 5.64682 67.2165 5.35963C67.7048 5.07244 68.2504 4.8714 68.8535 4.75653C69.471 4.62729 70.0884 4.56268 70.7059 4.56268C71.2659 4.56268 71.8331 4.60575 72.4075 4.69191C72.9819 4.76371 73.506 4.91448 73.9799 5.14423C74.4537 5.37399 74.8414 5.69707 75.143 6.1135C75.4445 6.51556 75.5953 7.05404 75.5953 7.72894V13.523C75.5953 14.0256 75.624 14.5066 75.6815 14.9661C75.7389 15.4256 75.8394 15.7702 75.983 16H72.8814C72.8239 15.8277 72.7737 15.6554 72.7306 15.4831C72.7019 15.2964 72.6803 15.1097 72.666 14.923C72.1777 15.4256 71.6034 15.7774 70.9428 15.9785C70.2823 16.1795 69.6074 16.28 68.9181 16.28C68.3868 16.28 67.8914 16.2154 67.4319 16.0862C66.9724 15.9569 66.5704 15.7559 66.2257 15.4831C65.8811 15.2102 65.6083 14.8656 65.4073 14.4492C65.2206 14.0328 65.1272 13.5373 65.1272 12.963C65.1272 12.3312 65.2349 11.8142 65.4503 11.4121C65.6801 10.9957 65.9673 10.6655 66.3119 10.4213C66.6709 10.1772 67.073 9.99774 67.5181 9.88286C67.9776 9.75363 68.4371 9.65311 68.8966 9.58131C69.3561 9.50952 69.8084 9.45208 70.2536 9.409C70.6987 9.36592 71.0936 9.3013 71.4382 9.21515C71.7829 9.12899 72.0557 9.00693 72.2567 8.84898C72.4578 8.67667 72.5511 8.43255 72.5367 8.11665C72.5367 7.78638 72.4793 7.52791 72.3644 7.34123C72.2639 7.1402 72.1203 6.98943 71.9336 6.88891C71.7613 6.77403 71.5531 6.70224 71.309 6.67352C71.0792 6.63044 70.828 6.6089 70.5551 6.6089C69.952 6.6089 69.4782 6.73814 69.1335 6.99661C68.7889 7.25508 68.5879 7.68586 68.5304 8.28896H65.4719ZM72.5367 10.5506C72.4075 10.6655 72.2424 10.7588 72.0413 10.8306C71.8547 10.888 71.6464 10.9383 71.4167 10.9814C71.2013 11.0244 70.9716 11.0603 70.7274 11.0891C70.4833 11.1178 70.2392 11.1537 69.9951 11.1968C69.7654 11.2398 69.5356 11.2973 69.3059 11.3691C69.0905 11.4409 68.8966 11.5414 68.7243 11.6706C68.5663 11.7855 68.4371 11.9363 68.3366 12.1229C68.2361 12.3096 68.1858 12.5465 68.1858 12.8337C68.1858 13.1066 68.2361 13.3363 68.3366 13.523C68.4371 13.7097 68.5735 13.8604 68.7458 13.9753C68.9181 14.0758 69.1192 14.1476 69.3489 14.1907C69.5787 14.2338 69.8156 14.2553 70.0597 14.2553C70.6628 14.2553 71.1295 14.1548 71.4598 13.9538C71.79 13.7527 72.0342 13.5158 72.1921 13.243C72.3501 12.9558 72.4434 12.6686 72.4721 12.3814C72.5152 12.0942 72.5367 11.8645 72.5367 11.6922V10.5506ZM89.6005 5.27347C89.4713 4.68473 89.2559 4.16061 88.9543 3.70111C88.6671 3.22724 88.3082 2.83236 87.8774 2.51645C87.4609 2.20054 86.9943 1.96361 86.4773 1.80566C85.9747 1.63334 85.4434 1.54719 84.8834 1.54719C83.8639 1.54719 82.988 1.74104 82.2556 2.12874C81.5233 2.51645 80.9202 3.03339 80.4463 3.67957C79.9868 4.31138 79.6422 5.02936 79.4125 5.83349C79.1971 6.63762 79.0894 7.46329 79.0894 8.3105C79.0894 9.14335 79.1971 9.96902 79.4125 10.7875C79.6422 11.5916 79.9868 12.3168 80.4463 12.963C80.9202 13.5948 81.5233 14.1045 82.2556 14.4923C82.988 14.88 83.8639 15.0738 84.8834 15.0738C85.6014 15.0738 86.2476 14.9446 86.822 14.6861C87.3963 14.4276 87.8917 14.0758 88.3082 13.6307C88.7246 13.1855 89.062 12.6686 89.3205 12.0799C89.579 11.4768 89.7441 10.8306 89.8159 10.1413H91.2806C91.1801 11.0891 90.9575 11.9434 90.6129 12.7045C90.2682 13.4656 89.8231 14.1117 89.2774 14.643C88.7318 15.1743 88.0856 15.5836 87.3389 15.8708C86.6066 16.158 85.7881 16.3015 84.8834 16.3015C83.6772 16.3015 82.6146 16.0862 81.6956 15.6554C80.791 15.2102 80.0371 14.6215 79.434 13.8892C78.8309 13.1568 78.3786 12.3096 78.077 11.3475C77.7755 10.3854 77.6247 9.3731 77.6247 8.3105C77.6247 7.2479 77.7755 6.23555 78.077 5.27347C78.3786 4.31138 78.8309 3.46418 79.434 2.73184C80.0371 1.98515 80.791 1.39641 81.6956 0.965626C82.6146 0.520482 83.6772 0.29791 84.8834 0.29791C85.6158 0.29791 86.3265 0.405606 87.0158 0.620998C87.7194 0.83639 88.3512 1.15948 88.9113 1.59026C89.4856 2.00669 89.9595 2.52363 90.3328 3.14109C90.7205 3.75854 90.9647 4.46934 91.0652 5.27347H89.6005ZM93.2644 4.88576H94.5136V7.49201H94.5567C94.9013 6.58736 95.4326 5.89093 96.1506 5.4027C96.8829 4.91448 97.7517 4.69191 98.7569 4.73499V6.09196C98.1394 6.06324 97.5794 6.1494 97.0768 6.35043C96.5742 6.5371 96.1363 6.80993 95.7629 7.16892C95.4039 7.52791 95.1239 7.95869 94.9229 8.46127C94.7218 8.9495 94.6213 9.48798 94.6213 10.0767V16H93.2644V4.88576ZM107.671 9.66747C107.657 9.15053 107.563 8.65513 107.391 8.18126C107.233 7.7074 107.003 7.29098 106.702 6.93199C106.4 6.55864 106.034 6.26427 105.603 6.04888C105.172 5.81913 104.684 5.70425 104.138 5.70425C103.578 5.70425 103.083 5.81913 102.652 6.04888C102.221 6.26427 101.855 6.55864 101.554 6.93199C101.252 7.29098 101.008 7.71458 100.821 8.2028C100.649 8.67667 100.534 9.16489 100.477 9.66747H107.671ZM100.477 10.809C100.477 11.2973 100.541 11.807 100.671 12.3383C100.814 12.8553 101.037 13.322 101.338 13.7384C101.64 14.1548 102.02 14.4994 102.48 14.7723C102.939 15.0451 103.492 15.1815 104.138 15.1815C105.129 15.1815 105.905 14.923 106.465 14.4061C107.025 13.8892 107.412 13.1999 107.628 12.3383H108.985C108.698 13.602 108.166 14.5784 107.391 15.2677C106.63 15.9569 105.546 16.3015 104.138 16.3015C103.263 16.3015 102.501 16.1508 101.855 15.8492C101.223 15.5333 100.707 15.1097 100.304 14.5784C99.9024 14.0328 99.6009 13.4081 99.3998 12.7045C99.2132 11.9865 99.1198 11.2327 99.1198 10.4429C99.1198 9.71055 99.2132 8.99257 99.3998 8.28896C99.6009 7.58535 99.9024 6.96071 100.304 6.41505C100.707 5.85503 101.223 5.40988 101.855 5.07962C102.501 4.73499 103.263 4.56268 104.138 4.56268C105.029 4.56268 105.79 4.74217 106.422 5.10116C107.053 5.46014 107.563 5.93401 107.951 6.52274C108.353 7.09712 108.64 7.76484 108.812 8.52589C108.985 9.27258 109.057 10.0336 109.028 10.809H100.477ZM110.72 8.28896C110.763 7.64278 110.899 7.08276 111.129 6.6089C111.359 6.13504 111.668 5.74733 112.055 5.44578C112.457 5.14423 112.924 4.92166 113.455 4.77807C113.987 4.63447 114.575 4.56268 115.222 4.56268C115.71 4.56268 116.198 4.61293 116.686 4.71345C117.174 4.79961 117.612 4.97192 118 5.23039C118.388 5.48886 118.704 5.85503 118.948 6.32889C119.192 6.78839 119.314 7.39149 119.314 8.13819V14.0399C119.314 14.5856 119.58 14.8584 120.111 14.8584C120.269 14.8584 120.413 14.8297 120.542 14.7723V15.9138C120.384 15.9426 120.24 15.9641 120.111 15.9785C119.996 15.9928 119.845 16 119.659 16C119.314 16 119.034 15.9569 118.819 15.8708C118.618 15.7702 118.46 15.6338 118.345 15.4615C118.23 15.2892 118.151 15.0882 118.108 14.8584C118.079 14.6143 118.065 14.3487 118.065 14.0615H118.022C117.778 14.4205 117.526 14.7435 117.268 15.0307C117.024 15.3036 116.744 15.5333 116.428 15.72C116.126 15.9067 115.774 16.0503 115.372 16.1508C114.985 16.2513 114.518 16.3015 113.972 16.3015C113.455 16.3015 112.967 16.2369 112.508 16.1077C112.062 15.9928 111.668 15.8061 111.323 15.5477C110.993 15.2748 110.727 14.9374 110.526 14.5353C110.339 14.1189 110.246 13.6307 110.246 13.0707C110.246 12.2953 110.418 11.6922 110.763 11.2614C111.108 10.8162 111.56 10.4788 112.12 10.249C112.694 10.0193 113.333 9.86132 114.037 9.77517C114.755 9.67465 115.48 9.58131 116.212 9.49516C116.5 9.46644 116.751 9.43054 116.966 9.38746C117.182 9.34438 117.361 9.27258 117.505 9.17207C117.648 9.05719 117.756 8.90642 117.828 8.71974C117.914 8.53307 117.957 8.28896 117.957 7.98741C117.957 7.52791 117.878 7.15456 117.72 6.86737C117.577 6.56582 117.368 6.32889 117.095 6.15658C116.837 5.98426 116.528 5.86939 116.169 5.81195C115.825 5.74015 115.451 5.70425 115.049 5.70425C114.188 5.70425 113.484 5.91247 112.938 6.32889C112.393 6.73096 112.106 7.38431 112.077 8.28896H110.72ZM117.957 9.92594H117.914C117.828 10.0839 117.663 10.1988 117.419 10.2706C117.174 10.3424 116.959 10.3926 116.772 10.4213C116.198 10.5219 115.602 10.6152 114.985 10.7014C114.382 10.7731 113.829 10.888 113.326 11.046C112.824 11.2039 112.407 11.4337 112.077 11.7352C111.761 12.0224 111.603 12.4388 111.603 12.9845C111.603 13.3291 111.668 13.6379 111.797 13.9107C111.94 14.1692 112.127 14.3989 112.357 14.6C112.587 14.7866 112.852 14.9302 113.154 15.0307C113.455 15.1313 113.764 15.1815 114.08 15.1815C114.597 15.1815 115.092 15.1025 115.566 14.9446C116.04 14.7866 116.449 14.5569 116.794 14.2553C117.153 13.9538 117.433 13.5876 117.634 13.1568C117.849 12.726 117.957 12.2378 117.957 11.6922V9.92594ZM124.172 4.88576H126.434V6.02734H124.172V13.523C124.172 13.9681 124.23 14.3199 124.345 14.5784C124.474 14.8225 124.783 14.9589 125.271 14.9877C125.659 14.9877 126.046 14.9661 126.434 14.923V16.0646C126.233 16.0646 126.032 16.0718 125.831 16.0862C125.63 16.1005 125.429 16.1077 125.228 16.1077C124.323 16.1077 123.691 15.9354 123.332 15.5908C122.973 15.2318 122.801 14.5784 122.815 13.6307V6.02734H120.877V4.88576H122.815V1.54719H124.172V4.88576ZM128.413 0.620998H129.77V2.79646H128.413V0.620998ZM128.413 4.88576H129.77V16H128.413V4.88576ZM131.118 4.88576H132.626L136.115 14.643H136.158L139.604 4.88576H141.005L136.847 16H135.404L131.118 4.88576ZM150.329 9.66747C150.314 9.15053 150.221 8.65513 150.049 8.18126C149.891 7.7074 149.661 7.29098 149.359 6.93199C149.058 6.55864 148.692 6.26427 148.261 6.04888C147.83 5.81913 147.342 5.70425 146.796 5.70425C146.236 5.70425 145.741 5.81913 145.31 6.04888C144.879 6.26427 144.513 6.55864 144.212 6.93199C143.91 7.29098 143.666 7.71458 143.479 8.2028C143.307 8.67667 143.192 9.16489 143.135 9.66747H150.329ZM143.135 10.809C143.135 11.2973 143.199 11.807 143.328 12.3383C143.472 12.8553 143.695 13.322 143.996 13.7384C144.298 14.1548 144.678 14.4994 145.138 14.7723C145.597 15.0451 146.15 15.1815 146.796 15.1815C147.787 15.1815 148.562 14.923 149.122 14.4061C149.682 13.8892 150.07 13.1999 150.286 12.3383H151.643C151.355 13.602 150.824 14.5784 150.049 15.2677C149.288 15.9569 148.203 16.3015 146.796 16.3015C145.92 16.3015 145.159 16.1508 144.513 15.8492C143.881 15.5333 143.364 15.1097 142.962 14.5784C142.56 14.0328 142.259 13.4081 142.058 12.7045C141.871 11.9865 141.778 11.2327 141.778 10.4429C141.778 9.71055 141.871 8.99257 142.058 8.28896C142.259 7.58535 142.56 6.96071 142.962 6.41505C143.364 5.85503 143.881 5.40988 144.513 5.07962C145.159 4.73499 145.92 4.56268 146.796 4.56268C147.687 4.56268 148.448 4.74217 149.079 5.10116C149.711 5.46014 150.221 5.93401 150.609 6.52274C151.011 7.09712 151.298 7.76484 151.47 8.52589C151.643 9.27258 151.714 10.0336 151.686 10.809H143.135Z" fill="white"/>
</svg>
