<svg width="20" height="13" viewBox="0 0 20 13" fill="none" xmlns="http://www.w3.org/2000/svg">
<path d="M18.3264 1.6918H12.4937V0.0917969H18.3264V1.6918ZM19.764 9.6918C19.3962 10.7294 18.0743 12.0918 15.5152 12.0918C12.9562 12.0918 10.884 10.7085 10.884 7.55169C10.884 4.42349 12.8205 2.81586 15.4365 2.81586C18.0035 2.81586 19.5708 4.24112 19.9136 6.35645C19.9876 6.92411 20.0141 7.49655 19.993 8.06829H13.3015C13.282 8.50125 13.3989 8.9298 13.6369 9.29798C13.8749 9.66616 14.2229 9.95686 14.6356 10.1321C15.0483 10.3074 15.5064 10.359 15.9501 10.2804C16.3939 10.2017 16.8026 9.99637 17.1229 9.69116H19.7621L19.764 9.6918ZM13.3624 6.4918H17.498C17.4978 6.24084 17.4426 5.99275 17.3359 5.76366C17.2293 5.53457 17.0736 5.32962 16.879 5.16214C16.6844 4.99467 16.4552 4.86843 16.2065 4.79163C15.9577 4.71484 15.6949 4.68921 15.4352 4.71642C15.1759 4.69448 14.9147 4.72373 14.6676 4.80236C14.4205 4.88099 14.1928 5.00734 13.9985 5.17364C13.8041 5.33993 13.6473 5.54266 13.5375 5.76935C13.4278 5.99604 13.3675 6.2419 13.3604 6.4918H13.3624ZM5.38544 12.0816H0V0.108318H5.791C10.3521 0.17186 10.4388 4.46352 8.05633 5.6327C10.9396 6.64112 11.0362 12.0816 5.38544 12.0816ZM2.49887 4.8918H5.48402C7.5727 4.8918 7.90482 2.4918 5.22401 2.4918H2.49887V4.8918ZM5.32325 7.2918H2.49887V9.70641H5.28157C7.82609 9.7045 7.67061 7.2918 5.32325 7.2918Z" fill="black"/>
</svg>
