<svg width="15" height="16" viewBox="0 0 15 16" fill="none" xmlns="http://www.w3.org/2000/svg">
<rect width="15" height="16" fill="#888888"/>
<g id="Landing General - Find It" clip-path="url(#clip0_390_719)">
<rect width="1440" height="5543" transform="translate(-1211 -5467)" fill="black"/>
<g id="Footer Wireframe">
<rect width="1440" height="532" transform="translate(-1211 -455.908)" fill="#FCFCFC"/>
<g id="Vector">
<path d="M7.50346 15.0771C6.47449 15.0771 5.44412 15.1106 4.41682 15.0687C3.09502 15.0145 2.00005 14.4403 1.13721 13.4443C0.363036 12.5507 -0.000837614 11.4991 1.4477e-06 10.3183C0.00139988 8.4899 -0.000557927 6.66149 0.000560822 4.83337C0.00223895 2.64704 1.42473 0.79405 3.54364 0.249775C3.93129 0.150308 4.34243 0.104486 4.74322 0.101133C6.57769 0.085766 8.41244 0.0938686 10.2472 0.0944275C12.5974 0.0952657 14.5437 1.73312 14.9356 4.04741C14.9789 4.30278 14.9954 4.5657 14.996 4.82498C15.001 6.66736 15.0008 8.50974 14.9982 10.3518C14.9952 12.6471 13.4239 14.561 11.1707 15.0039C10.8759 15.0617 10.5702 15.0827 10.2693 15.086C9.34743 15.0964 8.4253 15.0897 7.50318 15.0897L7.50346 15.0771ZM7.50178 13.5985V13.6105C8.40041 13.6105 9.29933 13.6144 10.198 13.608C10.4295 13.6063 10.6659 13.5963 10.8919 13.5502C12.4648 13.2297 13.5187 11.9321 13.519 10.3289C13.5195 8.51924 13.5195 6.70955 13.5181 4.89986C13.5181 4.76519 13.5109 4.63024 13.4983 4.49613C13.3433 2.84682 11.9639 1.57973 10.3112 1.57638C8.44852 1.57246 6.5858 1.57526 4.72336 1.57638C4.32928 1.57638 3.94667 1.64148 3.57664 1.7809C2.31945 2.25449 1.48262 3.45228 1.48095 4.79397C1.47871 6.62238 1.47843 8.45051 1.48262 10.2789C1.48318 10.5055 1.50136 10.7343 1.53604 10.9584C1.75392 12.3672 3.04636 13.546 4.4708 13.5926C5.4802 13.6256 6.49127 13.5985 7.50178 13.5985Z" fill="black"/>
<path d="M3.73305 7.59325C3.73305 5.50863 5.41676 3.82496 7.50211 3.8244C9.58355 3.82384 11.2667 5.51254 11.2647 7.59884C11.2625 9.68234 9.57572 11.3635 7.48981 11.361C5.41592 11.3585 3.73305 9.67061 3.73305 7.59325ZM5.21175 7.59325C5.21203 8.85615 6.23765 9.88183 7.49988 9.88183C8.76238 9.88183 9.7866 8.85559 9.78576 7.59213C9.78492 6.32728 8.76155 5.30355 7.49848 5.30411C6.23569 5.30467 5.21147 6.33035 5.21175 7.59325Z" fill="black"/>
<path d="M11.5035 2.73361C11.9826 2.73361 12.3669 3.11667 12.3622 3.58942C12.3574 4.06217 11.9793 4.4388 11.5097 4.43936C11.0353 4.43992 10.6452 4.05099 10.6488 3.5816C10.6524 3.11248 11.0342 2.73361 11.5035 2.73361Z" fill="black"/>
</g>
</g>
</g>
<defs>
<clipPath id="clip0_390_719">
<rect width="1440" height="5543" fill="white" transform="translate(-1211 -5467)"/>
</clipPath>
</defs>
</svg>
