<svg width="14" height="14" viewBox="0 0 14 14" fill="none" xmlns="http://www.w3.org/2000/svg">
<path d="M0.177313 13.0918H3.17847V4.32034H0.177313V13.0918Z" fill="black"/>
<path d="M1.65843 3.1226H1.67798C2.72456 3.1226 3.3759 2.44911 3.3759 1.60738C3.35634 0.746656 2.72456 0.0917969 1.69792 0.0917969C0.671269 0.0917969 0 0.746656 0 1.60738C0 2.44911 0.651338 3.1226 1.65843 3.1226Z" fill="black"/>
<path d="M10.9992 13.0918H14V8.06226C14 5.36811 12.5194 4.11448 10.5449 4.11448C8.9527 4.11448 8.23912 4.9646 7.84031 5.56229V4.32034H4.83934C4.87864 5.14325 4.83934 13.0918 4.83934 13.0918H7.84031V8.19342C7.84031 7.93129 7.85968 7.66935 7.93902 7.48193C8.15601 6.95823 8.64978 6.41571 9.47881 6.41571C10.5647 6.41571 10.9992 7.21998 10.9992 8.39927V13.0918Z" fill="black"/>
</svg>
