<svg width="132" height="46" viewBox="0 0 132 46" fill="none" xmlns="http://www.w3.org/2000/svg">
<path d="M53.08 26.166V45.924H33.322V26.166C33.322 12.104 39.196 0 52.902 0V8.9C44.892 8.9 42.578 17.978 42.578 26.166H53.08ZM20.506 26.166V45.924H0.747986V26.166C0.747986 12.104 6.62199 0 20.328 0V8.9C12.318 8.9 10.004 17.978 10.004 26.166H20.506Z" fill="white"/>
<path d="M79.563 19.758V0H99.3211V19.758C99.3211 33.82 93.4471 45.924 79.7411 45.924V37.024C87.7511 37.024 90.065 27.946 90.065 19.758H79.563Z" fill="white"/>
<path d="M112.243 19.758V0H132.001V19.758C132.001 33.82 126.127 45.924 112.421 45.924V37.024C120.431 37.024 122.745 27.946 122.745 19.758H112.243Z" fill="white"/>
</svg>
