<svg width="14" height="16" viewBox="0 0 14 16" fill="none" xmlns="http://www.w3.org/2000/svg">
<path d="M10.2422 4.91678C10.2311 4.9382 10.2373 4.96161 10.2373 4.98408C10.2369 6.75064 10.2375 8.5172 10.2368 10.2838C10.2363 11.3783 9.88621 12.3655 9.16809 13.2298C8.38671 14.1703 7.36907 14.776 6.11579 14.9959C4.40456 15.2962 2.88999 14.8905 1.60931 13.7867C0.759678 13.0545 0.238963 12.1393 0.0669687 11.0689C-0.183737 9.50947 0.269601 8.14042 1.42474 6.99108C2.20401 6.21573 3.17283 5.7522 4.29584 5.57685C4.78305 5.5007 5.27288 5.49709 5.76345 5.55147C5.82112 5.55787 5.84316 5.57324 5.84304 5.63414C5.8403 6.48156 5.84117 7.32898 5.84117 8.1764C5.84117 8.25243 5.84154 8.25068 5.76557 8.2338C4.89339 8.03889 4.12023 8.20679 3.47821 8.8041C3.07207 9.18205 2.85612 9.64908 2.82672 10.1858C2.76757 11.2633 3.55157 12.204 4.67769 12.4126C5.94566 12.6474 7.17702 11.8432 7.38401 10.6456C7.40319 10.5343 7.41303 10.4227 7.41303 10.3102C7.41303 6.93018 7.41303 3.55029 7.41303 0.170275C7.41303 0.118732 7.43989 0.0929612 7.49361 0.0929612C8.3831 0.0929612 9.27271 0.093427 10.1622 0.0917969C10.2175 0.0917969 10.2373 0.0982008 10.2388 0.158049C10.2803 1.76265 11.4283 3.11214 13.0851 3.50639C13.3652 3.57299 13.6499 3.61014 13.9393 3.60769C13.9912 3.60722 13.9996 3.62329 13.9996 3.66684C13.9984 4.47735 13.9981 5.28797 14 6.0986C14 6.1475 13.9824 6.15461 13.9367 6.15414C13.0604 6.14459 12.226 5.96575 11.4344 5.614C11.0194 5.42968 10.6332 5.20193 10.2747 4.93331C10.2654 4.92644 10.258 4.91585 10.2422 4.91713V4.91678Z" fill="black"/>
</svg>
