<svg width="145" height="47" viewBox="0 0 145 47" fill="none" xmlns="http://www.w3.org/2000/svg">
<path d="M29.9692 33.3286C30.5503 33.3286 30.4747 32.9996 30.4747 32.3832V29.3869C30.4747 28.7679 30.418 28.5726 30.7709 28.5726C32.0025 28.5726 32.339 28.4579 32.339 27.3625V16.2307C32.339 13.1978 30.1986 13.7008 29.5974 12.5928C28.7389 11.0952 31.1982 11.0952 30.3045 7.84936C30.0776 7.11321 29.5016 6.65942 28.391 6.65942C27.2805 6.65942 26.7007 7.11321 26.475 7.84936C25.5826 11.094 28.0456 11.094 27.1872 12.5928C26.5809 13.7008 24.4443 13.1978 24.4443 16.2307V27.3625C24.4443 28.4591 24.7758 28.5726 26.0124 28.5726C26.3578 28.5726 26.3048 28.7679 26.3048 29.3869V32.3832C26.3048 32.9996 26.2305 33.3286 26.8141 33.3286H29.9705" fill="#555555"/>
<path d="M20.224 9.18174C19.1286 10.3465 17.3991 13.0667 18.5286 15.3256C20.824 16.2092 20.6475 8.05104 23.5102 8.19096C24.9233 9.49939 23.0867 13.3491 22.5182 15.042C21.8123 17.1319 21.2488 21.5073 19.9063 23.625C18.7794 25.3935 19.624 30.9386 19.2698 32.8458C18.3193 33.7987 15.7377 33.1256 14.6436 32.9479C14.6436 30.7608 14.3575 29.0314 14.0083 25.5334C13.9743 24.8288 13.2305 14.0209 13.8318 12.7138C15.0684 9.99226 21.8135 4.8039 22.7362 3.81312C23.5442 2.93074 26.4044 0 27.5011 0C28.275 0.530685 27.8175 1.76601 27.6435 2.26014C26.5481 4.98038 21.8135 7.66279 20.224 9.183" fill="#555555"/>
<path d="M36.6828 9.18174C37.7404 10.3465 39.4737 13.0667 38.3757 15.3256C36.0463 16.2092 36.224 8.05104 33.3601 8.19096C31.9861 9.49939 33.8202 13.3491 34.3861 15.042C35.0933 17.1319 35.6593 21.5073 36.9967 23.625C38.0959 25.3935 37.2791 30.9386 37.598 32.8458C38.59 33.7987 41.13 33.1256 42.2607 32.9479C42.2607 30.7608 42.509 29.0314 42.862 25.5334C42.9313 24.8288 43.6738 14.0209 43.0737 12.7138C41.8384 9.99226 35.0933 4.8039 34.1756 3.81312C33.3298 2.93074 30.5012 0 29.4045 0C28.5965 0.530685 29.0894 1.76601 29.2658 2.26014C30.3625 4.98038 35.0933 7.66279 36.6841 9.183" fill="#555555"/>
<path d="M10.4133 5.51865C9.81199 6.08715 8.46448 6.47414 7.54555 7.7082C7.1926 7.03886 8.11027 5.41403 9.20819 4.45854C10.02 3.7829 11.6158 2.68749 12.0709 2.58287C12.4263 3.39591 11.1545 4.63628 10.412 5.51865" fill="#555555"/>
<path d="M8.53757 9.94434C7.51401 10.8948 6.4186 11.2868 4.99924 13.0226C4.39797 10.9326 4.54041 9.09222 4.82151 7.85312C5.31942 6.22829 6.1312 4.42068 7.51401 3.85596C7.23039 4.77741 6.76651 6.04929 6.66189 7.78505C6.06313 10.1574 5.70514 10.2267 5.84884 10.5456C5.9875 10.5456 6.76651 9.30651 7.72326 8.35103C8.85774 7.22033 10.2695 6.96948 11.1897 6.30014C11.0523 6.75897 10.2393 8.20859 8.53757 9.94434Z" fill="#555555"/>
<path d="M3.55093 19.7463C2.16938 17.2681 2.02694 15.463 1.91979 13.373C1.9929 11.9247 2.70006 8.56408 3.76017 8.06995C3.44126 11.1104 4.25935 11.394 3.93665 13.9062C3.93665 14.0474 3.58118 16.6668 3.58118 16.808C4.00724 16.7387 3.61899 14.4004 8.46323 11.0398C7.4069 12.8802 7.89851 13.4461 5.98628 15.8891C3.76017 18.0836 3.44126 20.2379 3.54967 19.7463" fill="#555555"/>
<path d="M5.49592 22.0833C4.46732 23.5682 4.6438 24.3107 4.39673 25.0166C1.95256 23.6035 -0.804234 17.9777 0.219321 15.1819C0.858412 17.3034 1.74205 17.7635 2.37988 19.5332C3.4778 22.1867 3.30385 22.9997 4.00723 23.6023C3.86479 22.222 4.32488 20.5934 4.78876 19.3908C5.46063 18.3647 5.98627 17.0197 6.4867 16.5584C7.01613 18.5084 6.62536 20.0992 5.49592 22.0821" fill="#555555"/>
<path d="M7.69052 26.8948C7.69052 29.0528 7.29849 30.0083 7.12202 31.5991C2.91057 30.2213 0.714714 25.4086 0.714714 23.0375C1.99164 25.938 3.86479 25.9015 6.31149 30.0083C6.522 28.449 5.88291 29.6175 5.81484 26.6818C5.88417 23.6023 6.522 23.4939 6.62662 21.5867C7.40816 22.4337 7.69052 25.8334 7.69052 26.8948Z" fill="#555555"/>
<path d="M11.1898 33.0134C11.5112 34.6055 11.6499 36.4837 11.9007 37.864C9.49562 36.9791 8.89056 37.6509 6.02789 35.8446C4.71567 35.1362 2.38116 32.1664 2.52738 30.0398C5.35602 33.1912 5.85015 32.8395 7.2317 34.0042C8.50484 35.0328 9.52966 36.5543 10.4536 36.3438C10.5204 35.4942 8.36366 33.6513 8.64476 28.3457C9.21074 28.9444 10.7675 31.3508 11.191 33.0134" fill="#555555"/>
<path d="M15.9684 36.9803C16.7109 38.0404 16.5369 38.5005 18.4479 40.6926C17.9828 40.9044 15.2625 41.614 13.4524 41.6859C12.2549 41.6859 8.0069 40.5527 6.59258 37.6509C9.03297 38.9594 9.06953 38.6417 12.323 39.3501C14.66 39.8808 16.3226 40.6233 16.9605 40.5527C16.8193 40.235 15.0167 39.49 13.7764 37.9345C12.5347 36.2719 12.8196 34.3962 11.7192 33.0134C12.4654 32.8016 15.3659 36.2013 15.9672 36.9791" fill="#555555"/>
<path d="M46.2931 5.51865C46.8591 6.08715 48.2407 6.47414 49.1256 7.7082C49.5138 7.03886 48.5621 5.41403 47.4629 4.45854C46.6902 3.7829 45.0931 2.68749 44.5939 2.58287C44.2422 3.39591 45.5154 4.63628 46.2944 5.51865" fill="#555555"/>
<path d="M48.1701 9.94434C49.1609 10.8948 50.2601 11.2868 51.6706 13.0226C52.2744 10.9326 52.132 9.09222 51.8534 7.85312C51.3933 6.22829 50.5412 4.42068 49.1609 3.85596C49.4823 4.77741 49.9046 6.04929 50.0105 7.78505C50.6118 10.1574 50.966 10.2267 50.8248 10.5456C50.6836 10.5456 49.9046 9.30651 48.9466 8.35103C47.8537 7.22033 46.4331 6.96948 45.4814 6.30014C45.6238 6.75897 46.4722 8.20859 48.1701 9.94434Z" fill="#555555"/>
<path d="M53.1265 19.7463C54.5421 17.2681 54.6429 15.463 54.7551 13.373C54.6808 11.9247 53.9736 8.56408 52.9488 8.06995C53.2311 11.1104 52.4168 11.394 52.7711 13.9062C52.7711 14.0474 53.0912 16.6668 53.0912 16.808C52.7005 16.7387 53.0534 14.4004 48.2419 11.0398C49.2705 12.8802 48.7714 13.4461 50.6849 15.8891C52.9488 18.0836 53.2311 20.2379 53.1265 19.7463Z" fill="#555555"/>
<path d="M51.2105 22.0833C52.2063 23.5682 52.0273 24.3107 52.2744 25.0166C54.7173 23.6035 57.5106 17.9777 56.4493 15.1819C55.848 17.3034 54.9291 17.7635 54.3278 19.5332C53.1958 22.1867 53.3698 22.9997 52.6992 23.6023C52.8391 22.222 52.345 20.5934 51.8849 19.3908C51.2483 18.3647 50.6848 17.0197 50.1857 16.5584C49.6915 18.5084 50.0432 20.0992 51.2105 22.0821" fill="#555555"/>
<path d="M48.9844 26.8948C48.9844 29.0528 49.4054 30.0083 49.5857 31.5991C53.7644 30.2213 55.9917 25.4086 55.9917 23.0375C54.6795 25.938 52.8391 25.9015 50.3647 30.0083C50.1517 28.449 50.7857 29.6175 50.8588 26.6818C50.7857 23.6023 50.1517 23.4939 50.0433 21.5867C49.2693 22.4337 48.9844 25.8334 48.9844 26.8948Z" fill="#555555"/>
<path d="M45.4826 33.0134C45.1624 34.6055 45.0565 36.4837 44.8107 37.864C47.1818 36.9791 47.7831 37.6509 50.647 35.8446C51.9567 35.1362 54.3303 32.1664 54.1879 30.0398C51.3554 33.1912 50.8273 32.8395 49.4835 34.0042C48.2066 35.0328 47.1453 36.5543 46.2238 36.3438C46.1545 35.4942 48.3113 33.6513 48.0654 28.3457C47.4629 28.9444 45.9049 31.3508 45.4826 33.0134Z" fill="#555555"/>
<path d="M40.7027 36.9803C39.993 38.0404 40.1695 38.5005 38.227 40.6926C38.7211 40.9044 41.4123 41.614 43.2527 41.6859C44.42 41.6859 48.6667 40.5527 50.0785 37.6509C47.6419 38.9594 47.6028 38.6417 44.3494 39.3501C42.0124 39.8808 40.385 40.6233 39.7157 40.5527C39.8543 40.235 41.6922 39.49 42.901 37.9345C44.1364 36.2719 43.8553 34.3962 44.9847 33.0134C44.2095 32.8016 41.3077 36.2013 40.7027 36.9791" fill="#555555"/>
<path d="M22.3039 46.9575L21.5955 46.6032C21.5955 46.6032 26.0956 41.1187 33.805 41.5435C41.5195 41.9683 40.9901 43.7746 45.1271 43.4885C45.5885 43.4544 44.7755 44.057 44.7755 44.057C44.7755 44.057 40.7405 45.6099 35.7513 43.9133C30.7961 42.2153 27.5754 41.188 22.3052 46.9562" fill="#555555"/>
<path d="M34.5084 46.9575L35.2219 46.6032C35.2219 46.6032 30.7608 41.1187 23.0476 41.5435C15.2978 41.9683 15.8285 43.7746 11.6889 43.4885C11.2276 43.4544 12.0406 44.057 12.0406 44.057C12.0406 44.057 16.0718 45.6099 21.0648 43.9133C26.0515 42.2153 29.2747 41.188 34.5084 46.9562" fill="#555555"/>
<path d="M75.951 14.3109C75.951 18.6925 73.585 20.7938 68.7609 20.7938C63.9369 20.7938 61.5456 18.6913 61.5456 14.3109V4.61991H66.4138V13.2268C66.4138 14.8416 66.4138 16.8559 68.7824 16.8559C71.1509 16.8559 71.0841 14.8403 71.0841 13.2268V4.61991H75.951V14.3109Z" fill="#555555"/>
<path d="M78.8717 4.61991H83.8496L88.4518 13.0705H88.4959V4.61991H93.0981V20.4169H88.3636L83.5181 11.7886H83.4739V20.4169H78.8717V4.61991Z" fill="#555555"/>
<path d="M96.0855 4.61991H100.954V10.107H105.512V4.61991H110.379V20.4169H105.512V14.1559H100.954V20.4169H96.0855V4.61991Z" fill="#555555"/>
<path d="M122.835 10.5053C122.747 9.92926 122.305 8.18215 120.289 8.18215C118.01 8.18215 117.281 10.3931 117.281 12.5171C117.281 14.6411 118.01 16.8546 120.289 16.8546C121.928 16.8546 122.569 15.7038 122.858 14.2214H127.637C127.637 17.4068 125.048 20.7926 120.424 20.7926C115.314 20.7926 112.415 17.1862 112.415 12.5171C112.415 7.53802 115.557 4.24298 120.424 4.24298C124.76 4.26441 127.151 6.54346 127.57 10.5041H122.837" fill="#555555"/>
<path d="M134.539 8.38006H136.82C138.679 8.38006 139.232 8.95486 139.232 9.95194C139.232 11.3663 137.992 11.5226 137.086 11.5226H134.541V8.38006H134.539ZM129.671 20.4169H134.539V14.9084H137.131C139.055 14.9084 139.187 16.479 139.319 17.9841C139.385 18.8022 139.473 19.6203 139.718 20.4156H144.586C144.142 19.6858 144.121 17.8063 144.054 17.0324C143.878 15.0634 143.059 13.6025 141.731 13.0932C143.347 12.4957 144.099 10.77 144.099 9.1326C144.099 6.14513 141.708 4.61862 138.944 4.61862H129.673V20.4144" fill="#555555"/>
<path d="M69.9067 28.5423H69.9509L71.408 33.5189H68.3487L69.9067 28.5423ZM67.4878 23.1397L61.5469 39.2846H66.5386L67.2672 36.9778H72.4026L73.0757 39.2846H78.2326L72.3585 23.1397H67.4878Z" fill="#555555"/>
<path d="M93.4851 29.1537H88.6383C88.5576 28.6167 88.3282 28.086 87.9538 27.5642C87.5782 27.0423 86.9416 26.7801 86.0429 26.7801C84.9752 26.7801 84.1949 27.2087 83.702 28.0671C83.2092 28.9243 82.9621 29.9743 82.9621 31.2185C82.9621 32.4626 83.2079 33.5013 83.702 34.3584C84.1949 35.2156 84.9752 35.6455 86.0429 35.6455C86.8156 35.6455 87.4042 35.4097 87.8089 34.9396C88.2147 34.4681 88.4971 33.8101 88.6597 32.963H93.5519C93.5519 33.7799 93.388 34.5866 93.0603 35.3845C92.7325 36.1824 92.2472 36.9073 91.6031 37.5577C90.9589 38.2094 90.1736 38.7237 89.2497 39.1018C88.3257 39.4813 87.2996 39.6703 86.1727 39.6703C84.4785 39.6703 83.0138 39.3023 81.7759 38.5661C80.5381 37.8312 79.5977 36.8165 78.9536 35.5244C78.3095 34.2324 77.9868 32.7954 77.9868 31.2147C77.9868 29.9415 78.1771 28.7919 78.5565 27.7646C78.936 26.7385 79.4931 25.8423 80.2305 25.0771C80.9667 24.312 81.8327 23.7334 82.826 23.3439C83.8205 22.9531 84.9348 22.759 86.1727 22.759C87.263 22.759 88.2412 22.9014 89.1059 23.1838C89.9719 23.4674 90.7131 23.8834 91.3321 24.4317C91.951 24.9801 92.4401 25.6532 92.8018 26.4486C93.1624 27.244 93.3905 28.1465 93.4863 29.1562" fill="#555555"/>
<path d="M105.282 23.1397V31.7756H105.238L100.537 23.1397H95.4465V39.2846H100.15V30.4621H100.194L105.139 39.2846H109.985V23.1397H105.282Z" fill="#555555"/>
<path d="M127.037 23.1397V33.0437C127.037 35.2673 126.428 36.9262 125.209 38.0229C123.991 39.1195 122.148 39.6679 119.683 39.6679C118.439 39.6679 117.362 39.5317 116.452 39.2594C115.543 38.9872 114.779 38.5762 114.16 38.0279C113.541 37.4796 113.08 36.7875 112.775 35.9518C112.47 35.1173 112.317 34.1467 112.317 33.0425V23.1385H117.292V31.9307C117.292 32.6971 117.332 33.3261 117.413 33.8202C117.493 34.3131 117.715 34.7404 118.076 35.1009C118.437 35.4615 118.982 35.643 119.71 35.643C120.439 35.643 120.957 35.4615 121.306 35.1009C121.657 34.7404 121.87 34.3131 121.948 33.8202C122.025 33.3274 122.064 32.6971 122.064 31.9307V23.1385H127.038L127.037 23.1397Z" fill="#555555"/>
<path d="M134.321 26.9843V30.1949H136.928C137.547 30.1949 138.066 30.0878 138.486 29.876C138.906 29.6617 139.116 29.2319 139.116 28.5839C139.116 28.0545 138.934 27.6562 138.569 27.3864C138.204 27.1179 137.566 26.9843 136.652 26.9843H134.321ZM129.347 39.2846V23.1397H138.821C139.527 23.1397 140.206 23.2393 140.853 23.4384C141.501 23.6376 142.069 23.9338 142.554 24.3271C143.039 24.7217 143.417 25.2057 143.686 25.7792C143.954 26.3541 144.089 27.0121 144.089 27.7558C144.089 28.6621 143.884 29.4877 143.472 30.2352C143.059 30.9827 142.461 31.5033 141.674 31.7983C142.336 32.0416 142.874 32.5193 143.29 33.2328C143.705 33.9475 143.957 34.8122 144.045 35.8282C144.06 36.0413 144.085 36.4219 144.122 36.9703C144.159 37.5186 144.213 37.9888 144.282 38.3783C144.351 38.7678 144.452 39.0703 144.586 39.2834H139.622C139.43 38.6796 139.294 37.8514 139.213 36.7989C139.154 36.1446 139.074 35.6001 138.97 35.1652C138.867 34.7316 138.659 34.3711 138.346 34.0837C138.034 33.7963 137.575 33.6538 136.971 33.6538H134.32V39.2846H129.346H129.347Z" fill="#555555"/>
</svg>
