<svg width="201" height="31" viewBox="0 0 201 31" fill="none" xmlns="http://www.w3.org/2000/svg">
<path d="M20.2852 0.105662H14.6949L0.859375 29.7067L14.3527 29.6596L24.0746 22.9778L27.2091 29.7895H34.108L20.2852 0.105662ZM9.85908 25.0667L17.2169 9.10076H17.7417L22.7309 19.9416L9.85908 25.0667Z" fill="#555555"/>
<path d="M40.6289 18.3717C40.6289 15.0546 42.7363 12.6466 45.6393 12.6466C47.7043 12.6466 49.5432 13.9932 50.195 15.9139L56.5715 15.1119C55.6975 10.3328 51.5145 7.38988 45.5099 7.38988C38.3488 7.38988 33.7221 11.7 33.7221 18.3714C33.7221 24.9405 38.4591 29.3535 45.5099 29.3535C51.4736 29.3535 55.6542 26.4118 56.5664 21.6345L50.1938 20.8696C49.5374 22.7937 47.7152 24.0965 45.5965 24.0965C42.7179 24.0968 40.6289 21.6894 40.6289 18.3717Z" fill="#555555"/>
<path d="M67.6819 21.6286V13.0485H72.3343V8.51587H67.6819V1.65411H62.3888L60.9241 8.51587H57.8882V13.0485H60.7311V22.0127C60.7311 26.8191 63.651 29.9257 68.1695 29.9257C69.3277 29.9257 71.0988 29.7341 72.4634 29.3185V24.8887C71.8913 24.9916 71.3179 25.0525 70.8827 25.0525C68.9686 25.0522 67.6819 23.6762 67.6819 21.6286Z" fill="#555555"/>
<path d="M82.2695 8.26144H75.3621V29.1172H82.2695V8.26144Z" fill="#555555"/>
<path d="M78.8018 0C76.839 0 75.4689 1.29709 75.4689 3.15488C75.4689 5.00367 76.8711 6.34574 78.8018 6.34574C80.7853 6.34574 82.1702 5.03426 82.1702 3.15488C82.1705 1.26861 80.8168 0 78.8018 0Z" fill="#555555"/>
<path d="M101.599 8.26144L96.7452 23.6479H96.2822L91.4276 8.26144H84.1253L91.0697 29.1172H101.999L108.944 8.26144H101.599Z" fill="#555555"/>
<path d="M120.832 7.38988C113.315 7.38988 108.827 11.4949 108.827 18.3714C108.827 25.1453 113.428 29.3535 120.832 29.3535C128.21 29.3535 132.793 25.1453 132.793 18.3714C132.793 11.5981 128.21 7.38988 120.832 7.38988ZM120.832 23.7981C117.856 23.7981 115.777 21.5671 115.777 18.3714C115.777 15.1766 117.855 12.9447 120.832 12.9447C123.76 12.9447 125.886 15.2267 125.886 18.3714C125.886 21.5161 123.76 23.7981 120.832 23.7981Z" fill="#555555"/>
<path d="M141.607 15.8214V8.67716H144.742C146.074 8.67716 147.026 9.47773 147.026 10.5925C147.026 11.2716 146.585 11.8794 145.971 12.0722V12.1736C146.708 12.3762 147.231 13.0452 147.231 13.8155C147.231 14.9707 146.186 15.8217 144.742 15.8217L141.607 15.8214ZM142.539 11.7475H144.629C145.49 11.7475 146.104 11.2812 146.104 10.6228C146.104 9.96436 145.49 9.48762 144.629 9.48762H142.539V11.7475ZM142.539 15.0109H144.608C145.602 15.0109 146.309 14.4838 146.309 13.7645C146.309 13.0653 145.602 12.5585 144.608 12.5585H142.539V15.0109Z" fill="#555555"/>
<path d="M144.745 15.9748H141.459V8.53075H144.745C146.156 8.53075 147.181 9.39908 147.181 10.596C147.181 11.2461 146.814 11.8391 146.263 12.1198C146.935 12.4109 147.386 13.0769 147.386 13.819C147.386 15.0678 146.275 15.9748 144.745 15.9748ZM141.763 15.675H144.745C146.1 15.675 147.083 14.8942 147.083 13.8187C147.083 13.123 146.61 12.5072 145.934 12.3213L145.823 12.2907V11.9657L145.929 11.9327C146.488 11.7576 146.878 11.208 146.878 10.596C146.878 9.55649 146.001 8.83059 144.746 8.83059H141.763L141.763 15.675ZM144.612 15.1643H142.392V12.4121H144.612C145.685 12.4121 146.464 12.9824 146.464 13.768C146.464 14.577 145.685 15.1643 144.612 15.1643ZM142.695 14.8645H144.612C145.51 14.8645 146.161 14.4034 146.161 13.768C146.161 13.156 145.51 12.712 144.612 12.712H142.695V14.8645ZM144.633 11.9009H142.391V9.34121H144.633C145.575 9.34121 146.259 9.88152 146.259 10.6263C146.259 11.3648 145.575 11.9009 144.633 11.9009ZM142.695 11.6011H144.633C145.412 11.6011 145.956 11.2002 145.956 10.6263C145.956 10.0554 145.4 9.64105 144.633 9.64105H142.695V11.6011Z" fill="#555555"/>
<path d="M148.183 15.8214L150.907 8.67716H152.177L154.871 15.8214H153.98L153.366 14.2202H149.689L149.074 15.8214H148.183ZM149.965 13.4602H153.099L151.584 9.48762H151.491L149.965 13.4602Z" fill="#555555"/>
<path d="M155.091 15.9748H153.878L153.263 14.3737H149.795L149.18 15.9748H147.966L150.804 8.53075H152.284L152.321 8.6282L155.091 15.9748ZM154.086 15.675H154.655L152.074 8.83059H151.014L148.404 15.675H148.971L149.586 14.0738H153.472L154.086 15.675ZM153.321 13.6136H149.747L151.389 9.34121H151.69L153.321 13.6136ZM150.186 13.3137H152.882L151.539 9.79366L150.186 13.3137Z" fill="#555555"/>
<path d="M156.258 15.8214V8.67716H157.6L161.021 14.6055H161.113V8.67716H162.045V15.8214H160.714L157.292 9.8933H157.19V15.8214H156.258Z" fill="#555555"/>
<path d="M162.2 15.9748H160.629L157.345 10.2842V15.9748H156.11V8.53075H157.691L160.965 14.204V8.53075H162.2V15.9748ZM160.805 15.675H161.898V8.83059H161.269V14.759H160.937L157.516 8.83059H156.414V15.675H157.042V9.74689H157.384L160.805 15.675Z" fill="#555555"/>
<path d="M163.657 12.2452C163.657 10.0258 165.224 8.4247 167.396 8.4247C169.024 8.4247 170.458 9.5191 170.817 11.0189L169.905 11.1406C169.639 10.036 168.584 9.23545 167.396 9.23545C165.757 9.23545 164.589 10.5023 164.589 12.2452C164.589 13.9984 165.767 15.2652 167.396 15.2652C168.564 15.2652 169.618 14.4847 169.915 13.4308L170.806 13.6032C170.448 15.0322 169.014 16.0756 167.395 16.0756C165.224 16.0756 163.647 14.4646 163.657 12.2452Z" fill="#555555"/>
<path d="M167.399 16.2294C166.328 16.2294 165.348 15.842 164.64 15.1386C163.906 14.4081 163.504 13.3818 163.509 12.2481C163.509 9.94838 165.145 8.27829 167.399 8.27829C169.092 8.27829 170.592 9.41797 170.968 10.9879L171.006 11.1489L169.793 11.3108L169.761 11.1789C169.512 10.1418 168.518 9.38889 167.399 9.38889C165.861 9.38889 164.744 10.5915 164.744 12.2487C164.744 13.9116 165.861 15.1188 167.399 15.1188C168.493 15.1188 169.491 14.3935 169.773 13.3941L169.811 13.2607L170.996 13.4897L170.957 13.6427C170.581 15.1418 169.085 16.2294 167.399 16.2294ZM167.399 8.57843C165.321 8.57843 163.812 10.122 163.812 12.249C163.807 13.303 164.178 14.2537 164.855 14.9272C165.506 15.5736 166.409 15.9295 167.399 15.9295C168.89 15.9295 170.217 15.0105 170.62 13.723L170.023 13.6076C169.658 14.6651 168.578 15.4189 167.399 15.4189C165.686 15.4189 164.441 14.0858 164.441 12.249C164.441 10.4182 165.685 9.08935 167.399 9.08935C168.609 9.08935 169.689 9.87612 170.02 10.9783L170.63 10.8971C170.226 9.5442 168.894 8.57843 167.399 8.57843Z" fill="#555555"/>
<path d="M171.969 12.2452C171.969 10.0156 173.588 8.4247 175.872 8.4247C178.156 8.4247 179.774 10.0159 179.774 12.2452C179.774 14.4949 178.156 16.0756 175.872 16.0756C173.588 16.0756 171.969 14.4949 171.969 12.2452ZM178.832 12.2452C178.832 10.4921 177.603 9.23545 175.872 9.23545C174.141 9.23545 172.902 10.4921 172.902 12.2452C172.902 13.9984 174.141 15.2652 175.872 15.2652C177.603 15.2652 178.832 13.9987 178.832 12.2452Z" fill="#555555"/>
<path d="M175.875 16.2291C173.488 16.2291 171.821 14.5922 171.821 12.2487C171.821 9.94808 173.526 8.27829 175.875 8.27829C178.224 8.27829 179.929 9.94808 179.929 12.2487C179.929 14.5922 178.262 16.2291 175.875 16.2291ZM175.875 8.57813C173.667 8.57813 172.124 10.0875 172.124 12.2487C172.124 14.4156 173.667 15.9292 175.875 15.9292C178.084 15.9292 179.626 14.4156 179.626 12.2487C179.626 10.0875 178.084 8.57813 175.875 8.57813ZM175.875 15.4186C174.066 15.4186 172.754 14.0855 172.754 12.2487C172.754 10.4179 174.066 9.08905 175.875 9.08905C177.678 9.08905 178.987 10.4179 178.987 12.2487C178.987 14.0855 177.678 15.4186 175.875 15.4186ZM175.875 9.38888C174.215 9.38888 173.057 10.5648 173.057 12.2487C173.057 13.9116 174.242 15.1188 175.875 15.1188C177.529 15.1188 178.684 13.9386 178.684 12.2487C178.684 10.5651 177.529 9.38888 175.875 9.38888Z" fill="#555555"/>
<path d="M141.544 25.2319V20.8336H142.486V25.2319C142.486 26.5089 143.336 27.4207 144.514 27.4207C145.692 27.4207 146.532 26.5089 146.532 25.2319V20.8336H147.464V25.2319C147.464 26.9749 146.234 28.2315 144.514 28.2315C142.793 28.2315 141.544 26.9749 141.544 25.2319Z" fill="#555555"/>
<path d="M144.518 28.3849C142.709 28.3849 141.396 27.0602 141.396 25.2354V20.6872H142.641V25.2354C142.641 26.436 143.413 27.2743 144.517 27.2743C145.616 27.2743 146.384 26.436 146.384 25.2354V20.6872H147.619V25.2354C147.619 27.0602 146.315 28.3849 144.518 28.3849ZM141.699 20.987V25.2354C141.699 26.8866 142.884 28.0851 144.518 28.0851C146.139 28.0851 147.316 26.8866 147.316 25.2354V20.987H146.687V25.2354C146.687 26.5907 145.775 27.5741 144.518 27.5741C143.255 27.5741 142.338 26.5907 142.338 25.2354V20.987H141.699Z" fill="#555555"/>
<path d="M149.465 27.9781V20.8336H150.807L154.228 26.762H154.32V20.8336H155.252V27.9781H153.921L150.499 22.05H150.397V27.9781H149.465Z" fill="#555555"/>
<path d="M155.407 28.1315H153.836L150.552 22.4409V28.1315H149.317V20.6872H150.898L154.172 26.3607V20.6872H155.407V28.1315ZM154.012 27.8317H155.104V20.987H154.476V26.9154H154.144L150.723 20.987H149.62V27.8317H150.249V21.9036H150.591L154.012 27.8317Z" fill="#555555"/>
<path d="M157.303 27.9781V20.8336H158.234V27.9781H157.303Z" fill="#555555"/>
<path d="M158.39 28.1315H157.155V20.6872H158.39V28.1315ZM157.458 27.8317H158.087V20.987H157.458V27.8317Z" fill="#555555"/>
<path d="M162.179 27.9781L159.608 20.8336H160.561L162.865 27.2891H162.958L165.252 20.8336H166.204L163.634 27.9781H162.179Z" fill="#555555"/>
<path d="M163.738 28.1315H162.07L159.391 20.6872H160.666L162.909 26.9712L165.142 20.6872H166.417L163.738 28.1315ZM162.284 27.8317H163.525L165.987 20.987H165.357L163.063 27.4425H162.756L160.452 20.987H159.821L162.284 27.8317Z" fill="#555555"/>
<path d="M167.58 27.9781V20.8336H172.537V21.6444H168.522V23.8739H172.127V24.6847H168.522V27.1673H172.64V27.9781H167.58Z" fill="#555555"/>
<path d="M172.795 28.1315H167.432V20.6872H172.692V21.7978H168.677V23.7275H172.282V24.8381H168.677V27.0209H172.795V28.1315ZM167.735 27.8317H172.492V27.3208H168.374V24.5383H171.979V24.0274H168.374V21.498H172.389V20.987H167.735V27.8317Z" fill="#555555"/>
<path d="M174.23 27.9781V20.8336H177.374C178.941 20.8336 179.976 21.6851 179.976 23.0023C179.976 24.2185 179.013 25.0697 177.671 25.1306H177.548L180.17 27.9781H178.992L176.493 25.1812H175.162V27.9781H174.23ZM175.162 24.3705H177.374C178.409 24.3705 179.044 23.8434 179.044 23.0026C179.044 22.1718 178.409 21.6447 177.374 21.6447H175.162V24.3705Z" fill="#555555"/>
<path d="M180.517 28.1315H178.928L176.429 25.3347H175.317V28.1315H174.082V20.6872H177.378C179.024 20.6872 180.131 21.6188 180.131 23.0058C180.131 24.222 179.216 25.1302 177.881 25.269L180.517 28.1315ZM179.064 27.8317H179.831L177.209 24.9842H177.675C178.96 24.9257 179.828 24.1305 179.828 23.0058C179.828 21.7792 178.866 20.987 177.377 20.987H174.384V27.8317H175.013V25.0348H176.565L179.064 27.8317ZM177.378 24.5239H175.014V21.498H177.378C178.484 21.498 179.199 22.0898 179.199 23.0058C179.198 23.9281 178.484 24.5239 177.378 24.5239ZM175.317 24.2241H177.378C178.328 24.2241 178.896 23.7686 178.896 23.0061C178.896 22.2496 178.328 21.7981 177.378 21.7981H175.317V24.2241Z" fill="#555555"/>
<path d="M181.202 25.6583H182.124C182.134 26.7632 182.923 27.4216 184.275 27.4216C185.453 27.4216 186.139 26.9152 186.139 26.1146C186.139 25.1318 185.135 24.9696 184.049 24.7971C182.749 24.5942 181.315 24.2598 181.315 22.7094C181.315 21.4225 182.308 20.5811 184.049 20.5811C185.822 20.5811 186.897 21.4932 186.907 23.0032H186.006C186.006 21.9898 185.289 21.3919 184.049 21.3919C182.882 21.3919 182.247 21.8884 182.247 22.6587C182.247 23.6014 183.21 23.7735 184.275 23.9357C185.586 24.1486 187.071 24.4322 187.071 26.0535C187.071 27.3913 186.037 28.2324 184.265 28.2324C182.37 28.2324 181.202 27.2495 181.202 25.6583Z" fill="#555555"/>
<path d="M184.268 28.3855C182.286 28.3855 181.054 27.3418 181.054 25.6615V25.5116H182.278L182.279 25.66C182.289 26.6863 183.017 27.2749 184.279 27.2749C185.351 27.2749 185.991 26.8425 185.991 26.1178C185.991 25.3173 185.25 25.1422 184.029 24.9488C182.644 24.7326 181.167 24.3638 181.167 22.7129C181.167 21.3076 182.273 20.4347 184.053 20.4347C185.899 20.4347 187.052 21.42 187.062 23.0058L187.063 23.1566H185.858V23.0067C185.858 22.0778 185.2 21.5453 184.053 21.5453C183.004 21.5453 182.402 21.9522 182.402 22.6622C182.402 23.4433 183.154 23.6163 184.302 23.7911C185.537 23.9917 187.226 24.266 187.226 26.0573C187.226 27.4932 186.093 28.3855 184.268 28.3855ZM181.361 25.8114C181.43 27.2389 182.506 28.0857 184.268 28.0857C185.93 28.0857 186.923 27.3274 186.923 26.0567C186.923 24.6357 185.714 24.3239 184.254 24.0867C183.244 23.9329 182.099 23.7587 182.099 22.6619C182.099 21.775 182.829 21.2452 184.053 21.2452C185.312 21.2452 186.087 21.8443 186.156 22.8565H186.754C186.676 21.5243 185.677 20.7343 184.053 20.7343C182.435 20.7343 181.47 21.474 181.47 22.7126C181.47 24.1272 182.758 24.4462 184.077 24.6522C185.167 24.8252 186.294 25.0039 186.294 26.1178C186.294 27.0164 185.522 27.5747 184.279 27.5747C182.908 27.5747 182.061 26.9187 181.982 25.8114H181.361Z" fill="#555555"/>
<path d="M188.069 27.9781L190.793 20.8336H192.063L194.757 27.9781H193.866L193.252 26.377H189.574L188.96 27.9781H188.069ZM189.851 25.6169H192.985L191.469 21.6444H191.377L189.851 25.6169Z" fill="#555555"/>
<path d="M194.977 28.1315H193.763L193.149 26.5304H189.681L189.066 28.1315H187.851L190.69 20.6872H192.17L192.207 20.7846L194.977 28.1315ZM193.972 27.8317H194.54L191.96 20.987H190.899L188.289 27.8317H188.857L189.471 26.2306H193.357L193.972 27.8317ZM193.206 25.7703H189.633L191.274 21.498H191.576L193.206 25.7703ZM190.072 25.4705H192.768L191.424 21.9504L190.072 25.4705Z" fill="#555555"/>
<path d="M196.136 27.9781V20.8336H197.068V27.1673H200.704V27.9781H196.136Z" fill="#555555"/>
<path d="M200.859 28.1315H195.988V20.6872H197.223V27.0209H200.859V28.1315ZM196.291 27.8317H200.556V27.3208H196.92V20.987H196.291V27.8317Z" fill="#555555"/>
<path d="M137.354 6.40822H136.445V30.3951H137.354V6.40822Z" fill="#555555"/>
</svg>
