<svg width="151" height="60" viewBox="0 0 151 60" fill="none" xmlns="http://www.w3.org/2000/svg">
<path d="M129.005 39.0837V58.6214H129.014V39.0837H129.005Z" fill="#555555"/>
<path d="M0 0V60H150.286V0H0ZM22.6703 1.37863H26.6775L22.6703 5.45531V1.37863ZM22.6703 7.42599L28.6129 1.37863H33.7113L22.6703 12.6107V7.42599ZM22.6703 14.5813L35.6552 1.38709H40.7367L22.8835 19.5461H22.6703V14.5813ZM1.38972 40.4624H5.01322L1.38972 44.1584V40.4624ZM1.38972 46.1207L6.95712 40.4624H12.0471L1.38972 51.2969V46.1207ZM1.38972 53.276L1.40677 53.2591L13.9995 40.4624H19.0809L1.38972 58.4522V53.276ZM21.2806 58.6214H17.2479L21.2806 54.5109V58.6214ZM21.2806 52.5402L15.304 58.6214H10.2055L21.2806 47.3555V52.5402ZM21.2806 45.3848L8.26158 58.6214H3.17163L21.0333 40.4624H21.2806V45.3848ZM21.2806 39.0837H1.38972V1.37863H21.2806V39.0837ZM42.5527 58.6214H22.6703V20.9247H42.5527V58.6214ZM42.5527 19.5461H38.8951L42.5527 15.8331V19.5461ZM42.5527 13.8709C42.5527 13.8709 42.493 13.9132 42.4674 13.9385L36.9512 19.5461H31.8612L42.5527 8.67776V13.8709ZM42.5527 6.69862L29.9258 19.5461H24.8274L42.5527 1.52241V6.69862ZM43.9424 40.4708H48.3588L43.9424 44.9619V40.4708ZM43.9424 46.9326L50.3027 40.4708H55.3927L43.9424 52.1173V46.9326ZM44.5818 58.6214H43.9424V54.088L57.3366 40.4708H62.4265L44.6074 58.5875C44.6074 58.5875 44.5904 58.6045 44.5818 58.6214ZM63.8333 58.6214H60.5849L63.8333 55.3313V58.6214ZM63.8333 53.3521L58.6581 58.6214H53.5511L63.8333 48.1675V53.3521ZM63.8333 46.2052L51.6157 58.6214H46.5172L63.8333 41.0121V46.2052ZM63.8418 39.0922H43.9424V1.38709H63.8418V39.0922ZM86.5121 1.38709H90.8603L86.5121 5.81054V1.38709ZM86.5121 7.78968L92.8042 1.38709H97.8942L86.5121 12.9659V7.78968ZM86.5121 14.945L99.8466 1.38709H104.928L87.0748 19.5376H86.5121V14.945ZM65.2315 20.9332H68.9318L65.2315 24.6969V20.9332ZM65.2315 26.6676L70.8757 20.9332H75.9656L65.2315 31.8523V26.6676ZM65.2315 33.8145L77.9095 20.9332H82.9995L65.2315 38.9992V33.8145ZM65.2315 40.4708H69.5115L65.2315 44.8266V40.4708ZM65.2315 46.7888L71.4639 40.4708H76.5454L65.2315 51.982V46.7888ZM65.2315 58.6214V53.9526L78.4978 40.4708H83.5877L65.7345 58.6214H65.2315ZM85.0542 58.6214H81.7461L85.0542 55.2551V58.6214ZM85.0542 53.2929C85.0542 53.2929 85.0286 53.3098 85.0116 53.3268L79.8023 58.6214H74.7123L85.0542 48.0998V53.2929ZM85.0542 46.1291L72.7684 58.6214H67.6785L85.0542 40.9445V46.1291ZM85.0542 39.0837H81.1664L85.0542 35.1255V39.0837ZM85.0542 33.1548L79.2225 39.0837H74.1325L85.0542 27.9786V33.1548ZM85.0542 25.9994L72.1886 39.0837H67.0987L84.9519 20.9332H85.0542V25.9994ZM85.1224 19.5461H65.2315V1.38709H85.0542V19.5376H85.1224V19.5461ZM106.335 58.6298H86.5121V20.9163H106.335V58.6298ZM106.335 19.5461H103.095L106.335 16.256V19.5461ZM106.335 14.2769L101.151 19.5461H96.0611L106.335 9.10065V14.2769ZM106.335 7.12151L94.1087 19.5461H89.0273L106.335 1.93685V7.12151ZM129.005 1.38709H132.526L129.014 4.96476H129.005V1.37863V1.38709ZM129.005 7.04539H129.014L134.555 1.38709H139.518L129.014 12.0694H129.005V7.04539ZM129.005 14.2346H129.014L141.615 1.41246C141.615 1.41246 141.632 1.39555 141.632 1.38709H146.509L129.014 19.174H129.005V14.2346ZM107.725 40.4708H111.297L107.725 44.1077V40.4708ZM107.725 46.0868L113.249 40.4708H118.331L107.725 51.263V46.0868ZM107.725 53.2422L120.283 40.4708H125.373L107.725 58.4099V53.2422ZM127.624 58.6298H123.523L127.615 54.477V58.6298H127.624ZM127.624 52.4894L121.596 58.6298H116.498L127.624 47.3217V52.4894ZM127.624 45.3341L114.562 58.6298H109.464L127.334 40.4708H127.632V45.3341H127.624ZM127.624 39.0922H107.725V1.37863H127.624V39.0922ZM148.896 58.6298H129.005V20.9247H148.896V58.6298ZM148.896 19.5546H145.025L148.896 15.6132V19.5546ZM148.896 13.2112C148.845 13.2365 148.794 13.2788 148.751 13.3211L142.698 19.4784C142.698 19.4784 142.655 19.5292 142.638 19.5546H137.94L148.896 8.41556V13.2112ZM148.896 6.06428H148.887L135.681 19.4953C135.681 19.4953 135.647 19.5376 135.63 19.5546H130.855L148.683 1.42938C148.683 1.42938 148.717 1.39555 148.725 1.37863H148.896V6.06428Z" fill="#555555"/>
<path d="M129.005 1.37863V4.96476H129.014V1.37864L129.005 1.37863ZM129.005 12.0694H129.014V7.02848H129.005L129.005 12.0694ZM129.005 14.2346L129.005 19.1824H129.014V14.2261H129.005L129.005 14.2346Z" fill="#555555"/>
<path d="M97.1866 25.8218H95.5922C95.3709 25.8218 95.1915 25.9998 95.1915 26.2193V52.6586C95.1915 52.8781 95.3709 53.0561 95.5922 53.0561H97.1866C97.4079 53.0561 97.5873 52.8781 97.5873 52.6586V26.2193C97.5873 25.9998 97.4079 25.8218 97.1866 25.8218Z" fill="#555555"/>
<path d="M80.4502 5.16776V6.78321C80.4502 6.99466 80.2797 7.16382 80.0665 7.16382H76.7585C76.5453 7.16382 76.3748 7.33297 76.3748 7.54442V16.0615C76.3748 16.2729 76.2043 16.4421 75.9911 16.4421H74.3627C74.1496 16.4421 73.979 16.2729 73.979 16.0615V7.54442C73.979 7.33297 73.8085 7.16382 73.5954 7.16382H70.2788C70.0657 7.16382 69.8951 6.99466 69.8951 6.78321V5.16776C69.8951 4.95632 70.0657 4.78716 70.2788 4.78716H80.0665C80.2797 4.78716 80.4502 4.95632 80.4502 5.16776Z" fill="#555555"/>
<path d="M59.8091 5.15083V35.7175C59.8091 35.8697 59.6897 35.9882 59.5362 35.9882H57.6179C57.4985 35.9882 57.3877 35.912 57.3536 35.7936L50.908 14.556C50.8142 14.2515 50.3709 14.3191 50.3709 14.6321V35.709C50.3709 35.8613 50.2515 35.9797 50.0981 35.9797H48.248C48.0945 35.9797 47.9751 35.8613 47.9751 35.709V5.15083C47.9751 4.99859 48.0945 4.88018 48.248 4.88018H50.1663C50.2856 4.88018 50.3965 4.9563 50.4306 5.07471L56.8761 26.3124C56.9699 26.6169 57.4133 26.5492 57.4133 26.2363V5.15083C57.4133 4.99859 57.5326 4.88018 57.6861 4.88018H59.5362C59.6897 4.88018 59.8091 4.99859 59.8091 5.15083Z" fill="#555555"/>
<path d="M11.0921 35.3707C7.57948 35.2439 4.8512 32.2667 4.8512 28.7821C4.8512 24.0795 4.8512 16.3913 4.8512 11.6972C4.8512 8.21258 7.57948 5.23542 11.0921 5.10855C14.7753 4.97322 17.8105 7.9081 17.8105 11.5281V16.256C17.8105 16.5351 17.5803 16.7635 17.299 16.7635H15.9263C15.645 16.7635 15.4148 16.5351 15.4148 16.256V11.6634C15.4148 9.54892 13.8375 7.69665 11.7145 7.50212C9.29318 7.28222 7.2555 9.17678 7.2555 11.5281V28.8244C7.2555 30.9388 8.83278 32.7911 10.9557 32.9856C13.3771 33.2055 15.4148 31.311 15.4148 28.9597V24.2318C15.4148 23.9526 15.645 23.7243 15.9263 23.7243H17.299C17.5803 23.7243 17.8105 23.9526 17.8105 24.2318V28.9597C17.8105 32.5797 14.7753 35.5145 11.0921 35.3792V35.3707Z" fill="#555555"/>
<path d="M33.5067 25.5935H31.7163C31.5543 25.5935 31.4093 25.7119 31.3838 25.8641L25.8675 53.5382C25.8249 53.7496 25.9869 53.9442 26.2 53.9442H27.9478C28.1098 53.9442 28.2548 53.8258 28.2803 53.6735L30.0964 44.5644C30.1305 44.4037 30.2669 44.2938 30.4289 44.2938H34.7771C34.9391 44.2938 35.084 44.4122 35.1096 44.5644L36.9256 53.6735C36.9597 53.8342 37.0961 53.9442 37.2581 53.9442H39.0059C39.2191 53.9442 39.381 53.7496 39.3384 53.5382L33.8307 25.8641C33.7966 25.7034 33.6602 25.5935 33.4982 25.5935H33.5067ZM30.7102 41.5027L32.279 33.6453C32.3557 33.2816 32.8758 33.2816 32.9525 33.6453L34.5128 41.5027C34.5554 41.7141 34.3934 41.9086 34.1803 41.9086H31.0513C30.8381 41.9086 30.6761 41.7141 30.7187 41.5027H30.7102Z" fill="#555555"/>
<path d="M139.91 25.5935H138C137.872 25.5935 137.761 25.6865 137.736 25.8134L132.194 53.6312C132.16 53.8004 132.288 53.9526 132.458 53.9526H134.351C134.479 53.9526 134.59 53.8596 134.615 53.7327L136.457 44.5052C136.482 44.3783 136.593 44.2853 136.721 44.2853H141.189C141.317 44.2853 141.427 44.3783 141.453 44.5052L143.286 53.7327C143.312 53.8596 143.422 53.9526 143.55 53.9526H145.443C145.614 53.9526 145.741 53.8004 145.707 53.6312L140.166 25.8134C140.14 25.6865 140.029 25.5935 139.901 25.5935H139.91ZM137.037 41.5873L138.691 33.2816C138.75 32.9941 139.159 32.9941 139.219 33.2816L140.873 41.5873C140.907 41.7564 140.779 41.9086 140.609 41.9086H137.301C137.13 41.9086 137.002 41.7564 137.037 41.5873Z" fill="#555555"/>
<path d="M123.6 5.22694V35.6245C123.6 35.819 123.438 35.9797 123.242 35.9797H121.468C121.306 35.9797 121.17 35.8782 121.127 35.726L114.861 15.0888C114.741 14.6913 114.153 14.7843 114.153 15.1903V35.6245C114.153 35.819 113.991 35.9797 113.795 35.9797H112.115C111.919 35.9797 111.757 35.819 111.757 35.6245V5.22694C111.757 5.03241 111.919 4.87171 112.115 4.87171H113.889C114.051 4.87171 114.187 4.97321 114.23 5.12545L120.496 25.7626C120.616 26.1601 121.204 26.0671 121.204 25.6611V5.22694C121.204 5.03241 121.366 4.87171 121.562 4.87171H123.242C123.438 4.87171 123.6 5.03241 123.6 5.22694Z" fill="#555555"/>
</svg>
