<svg width="155" height="20" viewBox="0 0 155 20" fill="none" xmlns="http://www.w3.org/2000/svg">
<path d="M14.4393 0C17.3457 0 19.7897 2.4152 19.8716 5.42885H17.1564C17.1564 3.93567 15.9334 2.7154 14.4412 2.7154H6.29173C4.79759 2.7154 3.57653 3.93762 3.57653 5.42885V13.5711C3.57653 15.0643 4.79954 16.2846 6.29173 16.2846H14.4393C15.9334 16.2846 17.1545 15.0624 17.1545 13.5711H19.8697C19.8697 16.4483 17.4802 19 14.4373 19H6.29173C3.38537 19 0.859375 16.6394 0.859375 13.5711V5.42885C0.859375 2.49708 3.24883 0.0818713 6.29173 0H14.4393ZM40.8813 19H38.1661V13.5711H24.5862V19H21.871V5.42885C21.871 2.55166 24.2604 0 27.3033 0H35.4509C38.3573 0 40.8013 2.4152 40.8833 5.42885V19H40.8813ZM27.3014 2.71345C25.8073 2.71345 24.5862 3.93567 24.5862 5.4269V10.8557H38.1661V5.42885C38.1661 3.93567 36.9431 2.7154 35.4509 2.7154H27.3033L27.3014 2.71345ZM60.5061 18.998L55.0737 13.5692H46.1381V18.998H43.4229V0H57.0028C59.8546 0 62.4352 2.4152 62.4352 5.42885V8.1423C62.4352 10.4503 60.9137 12.54 58.6608 13.3002L62.4352 17.0721V19H60.5061V18.998ZM59.718 5.4269C59.718 3.93372 58.495 2.71345 57.0028 2.71345H46.1381V10.8557H57.0028C58.497 10.8557 59.718 9.63353 59.718 8.1423V5.42885V5.4269ZM64.7037 18.998V0H78.2836C81.1354 0 83.716 2.4152 83.716 5.42885C83.716 7.05653 83.0918 8.4152 81.8688 9.50097C83.0918 10.5867 83.716 11.9435 83.716 13.5731C83.716 16.5049 81.3265 18.9201 78.2836 19.0019H64.7037V18.998ZM67.4189 8.14035H78.2836C79.7778 8.14035 80.9988 6.91813 80.9988 5.4269C80.9988 3.93567 79.7758 2.71345 78.2836 2.71345H67.4189V8.1423V8.14035ZM67.4189 10.8538V16.2826H78.2836C79.7778 16.2826 80.9988 15.0604 80.9988 13.5692C80.9988 12.078 79.7758 10.8557 78.2836 10.8557H67.4189V10.8538ZM85.9865 0H88.7017V19H85.9865V0ZM110.257 19H107.542L93.9604 4.39766V19H91.2452V0H93.9604L107.54 14.386V0H110.256V19H110.257ZM131.538 13.5711C131.538 16.5575 129.094 19 126.106 19H117.958C114.945 19 112.526 16.5848 112.526 13.5711V5.42885C112.526 2.4425 114.97 0 117.958 0H126.106C128.985 0 131.538 2.46979 131.538 5.42885V13.5711ZM128.823 5.42885C128.823 3.93567 127.6 2.7154 126.108 2.7154H117.96C116.466 2.7154 115.245 3.93762 115.245 5.42885V13.5711C115.245 15.0643 116.468 16.2846 117.96 16.2846H126.108C127.602 16.2846 128.823 15.0624 128.823 13.5711V5.42885ZM154.859 4.75828V0.0721247H152.365V2.94347H151.885V0.0721247H149.388V2.88694L143.975 6.95517L138.562 2.88694V0.0721247H136.329V2.94347H135.849V0.0721247H133.091V4.75828L140.226 9.53606L133.091 15.1559V19H135.849V16.2865H136.329V19H138.562V16.6842L143.975 12.5517L149.388 16.6842V19H151.885V16.2865H152.365V19H154.859V15.1559L147.578 9.53606L154.859 4.75828Z" fill="#555555"/>
</svg>
