<svg width="145" height="34" viewBox="0 0 145 34" fill="none" xmlns="http://www.w3.org/2000/svg">
<path d="M30.3603 33.289H2.82285C1.26923 33.289 0 32.0157 0 30.4572V2.83185C0 1.27327 1.26923 0 2.82285 0H30.3603C31.914 0 33.1832 1.27327 33.1832 2.83185V30.4572C33.1832 32.0157 31.914 33.289 30.3603 33.289Z" fill="#555555"/>
<path d="M26.7055 12.2918C26.0426 9.80184 23.8074 9.00959 22.4183 9.2383C22.3125 9.25245 22.2115 9.2831 22.1174 9.3279C21.6873 8.25034 20.5333 7.60427 19.3651 7.85421C18.7869 7.97682 18.3004 8.29985 17.9619 8.73371C17.4965 7.7316 16.3848 7.14448 15.2613 7.38498C14.7113 7.50288 14.2435 7.79998 13.9098 8.20082L13.2634 5.15676C12.9837 3.83868 11.6886 2.99455 10.3747 3.27514C9.06086 3.55573 8.21941 4.85494 8.49911 6.17302L10.5322 15.7485C9.39462 14.8572 7.71407 14.546 6.61878 14.9775C5.66451 15.3547 5.21793 16.2814 5.50233 17.2882C5.70446 17.9909 6.37433 18.7808 7.80809 20.014L7.89505 20.0894C9.39227 21.4051 11.6557 23.3929 12.7581 25.166C13.1647 25.8168 13.9497 27.5758 14.5021 28.8939C14.7301 29.4975 15.4705 30.2732 16.6386 30.0233L25.1894 28.2006C26.4422 27.9342 26.7666 26.8849 26.6796 26.2294C26.5809 25.3075 26.5903 24.4162 26.6208 24.0743C26.649 23.8149 26.9922 22.2092 27.199 21.2495L27.2108 21.1929C27.5728 19.4999 27.7232 18.7808 27.749 18.5049C27.8666 17.2528 26.9499 13.2137 26.7055 12.2918Z" fill="black"/>
<path d="M24.999 27.2858L16.4482 29.1084C15.6256 29.2829 15.3694 28.5496 15.3694 28.5496C15.2025 28.1511 14.1237 25.5904 13.5478 24.6685C12.3726 22.7798 10.048 20.7378 8.51086 19.3868L8.4192 19.3066C7.64121 18.6369 6.58352 17.6726 6.39784 17.0265C6.24036 16.4771 6.4472 16.0456 6.96194 15.8428C8.01022 15.4302 10.0151 16.055 10.6286 17.2646C10.8331 17.6678 10.9341 17.9036 11.0188 18.1701C11.0517 18.2691 11.1104 18.4247 11.1363 18.4695C11.2444 18.6582 11.4442 18.7501 11.6369 18.71C11.8884 18.6558 12.0506 18.4082 11.9965 18.1559L9.41107 5.98203C9.23714 5.16619 9.75659 4.36214 10.5722 4.19001C11.3854 4.01553 12.1869 4.53898 12.3585 5.35482L14.5444 15.6613C14.5843 15.8499 14.7324 15.9867 14.911 16.0197C14.9698 16.0315 15.0333 16.0315 15.0967 16.0173C15.1884 15.9984 15.2683 15.9513 15.3294 15.8876C15.4305 15.7839 15.4799 15.633 15.454 15.4797C15.454 15.4773 14.3093 10.0777 14.3093 10.0777C14.1378 9.26896 14.6525 8.47198 15.461 8.29985C16.2672 8.12773 17.0617 8.64411 17.2333 9.45523L18.5471 15.6589C18.6012 15.9088 18.8457 16.0692 19.0971 16.0173C19.3486 15.9631 19.5061 15.7178 19.4544 15.4655L18.4132 10.5493C18.2416 9.74054 18.7563 8.94356 19.5649 8.77144C20.3711 8.59931 21.1655 9.11569 21.3371 9.92681L22.5523 15.6589C22.6063 15.9088 22.8508 16.0692 23.1023 16.0173C23.3514 15.9631 23.5112 15.7178 23.4595 15.4655C23.4595 15.4655 22.6181 11.4194 22.3924 10.429C22.3783 10.3701 22.3901 10.3088 22.423 10.2593C22.4559 10.2098 22.5076 10.172 22.5664 10.165C23.382 10.0235 25.2505 10.4173 25.8146 12.537C26.1672 13.8692 26.9217 17.4745 26.8371 18.4224C26.8136 18.6723 26.5762 19.7758 26.3035 21.0538C26.0356 22.2964 25.7347 23.7065 25.7089 23.9894C25.6689 24.4374 25.6666 25.4042 25.77 26.345C25.7606 26.3402 25.8734 27.0995 24.999 27.2858Z" fill="#555555"/>
<path d="M42.7541 5.53166H38.6503V26.8118H42.7541V5.53166Z" fill="#555555"/>
<path d="M56.4641 12.6903C55.6203 12.155 54.6637 11.8886 53.5989 11.8886C52.4919 11.8886 51.5024 12.1315 50.6257 12.6148C50.1509 12.8789 49.7372 13.202 49.3729 13.5745V12.1904H45.4195V26.8095H49.3729V18.4271C49.3729 17.8423 49.4975 17.3259 49.7513 16.8827C50.0028 16.4394 50.3483 16.0951 50.7925 15.8522C51.2344 15.6094 51.7374 15.4891 52.3015 15.4891C53.1665 15.4891 53.8716 15.7626 54.4145 16.3073C54.9575 16.852 55.2301 17.5594 55.2301 18.4271V26.8118H59.1835V17.5499C59.1835 16.562 58.9414 15.6377 58.4596 14.7794C57.9731 13.9211 57.3079 13.2255 56.4641 12.6903Z" fill="#555555"/>
<path d="M68.51 10.5257C68.51 9.79949 68.7051 9.2383 69.0976 8.84689C69.4901 8.45312 70.0472 8.25741 70.7711 8.25741C71.173 8.25741 71.5044 8.31872 71.7677 8.43897C72.0286 8.55922 72.2707 8.73135 72.4916 8.953L74.9971 6.41117C74.4542 5.84527 73.8407 5.40198 73.1568 5.07894C72.4728 4.75591 71.6572 4.59557 70.7123 4.59557C69.4643 4.59557 68.3784 4.8573 67.4546 5.38312C66.5286 5.90893 65.8141 6.61866 65.3111 7.51703C64.8081 8.41539 64.5566 9.45052 64.5566 10.62V12.1951H61.1767V15.6754H64.5566V26.8142H68.51V15.673H72.8253V12.1904H68.51V10.5257Z" fill="#555555"/>
<path d="M85.661 12.8718C84.4834 12.1951 83.1507 11.8579 81.6629 11.8579C80.2151 11.8579 78.8965 12.1951 77.7095 12.8718C76.5226 13.5486 75.5871 14.4564 74.9031 15.5976C74.2191 16.7388 73.8783 18.0239 73.8783 19.4575C73.8783 20.8911 74.2262 22.188 74.9196 23.3481C75.613 24.5081 76.5484 25.4254 77.726 26.1021C78.9035 26.7788 80.2268 27.116 81.6935 27.116C83.1625 27.116 84.4834 26.7788 85.661 26.1021C86.8385 25.4254 87.767 24.5081 88.4509 23.3481C89.1349 22.188 89.4757 20.8911 89.4757 19.4575C89.4757 18.0262 89.1326 16.7388 88.4509 15.5976C87.7693 14.4564 86.8385 13.5486 85.661 12.8718ZM84.9676 21.5301C84.655 22.1243 84.2131 22.5888 83.6396 22.9213C83.0661 23.2537 82.408 23.4211 81.6629 23.4211C80.939 23.4211 80.295 23.2537 79.7309 22.9213C79.1668 22.5888 78.7249 22.1243 78.4029 21.5301C78.0809 20.9359 77.9211 20.2545 77.9211 19.4858C77.9211 18.7195 78.0809 18.0428 78.4029 17.458C78.7249 16.8732 79.1668 16.4134 79.7309 16.081C80.295 15.7485 80.939 15.5811 81.6629 15.5811C82.408 15.5811 83.0614 15.7485 83.6255 16.081C84.1873 16.4134 84.6315 16.8732 84.9535 17.458C85.2755 18.0428 85.4353 18.7195 85.4353 19.4858C85.4353 20.2521 85.2802 20.9335 84.9676 21.5301Z" fill="#555555"/>
<path d="M102.354 13.4401C101.985 13.0817 101.562 12.7728 101.07 12.5229C100.236 12.0985 99.2746 11.8862 98.1887 11.8862C96.8819 11.8862 95.7043 12.2046 94.6584 12.8388C93.6124 13.4755 92.7921 14.3385 92.1998 15.4278C91.6052 16.5172 91.309 17.748 91.309 19.1203C91.309 20.4926 91.6052 21.7329 92.1998 22.8435C92.7921 23.954 93.6124 24.8265 94.6584 25.4607C95.7043 26.0974 96.8819 26.4133 98.1887 26.4133C99.2558 26.4133 100.205 26.2082 101.04 25.7932C101.529 25.5503 101.952 25.2438 102.323 24.8831V26.1115C102.323 27.2221 101.966 28.0898 101.251 28.7147C100.537 29.3395 99.5661 29.6531 98.3391 29.6531C97.3543 29.6531 96.5129 29.4763 95.8195 29.1226C95.1261 28.7689 94.4962 28.2596 93.9344 27.5947L91.4313 30.1105C92.134 31.1197 93.0789 31.9002 94.2659 32.4567C95.4528 33.0108 96.8208 33.289 98.3697 33.289C99.9186 33.289 101.287 32.9872 102.474 32.3812C103.66 31.7752 104.591 30.9335 105.263 29.8535C105.938 28.7736 106.274 27.5074 106.274 26.0549V12.1904H102.351V13.4401H102.354ZM102.114 21.0444C101.813 21.5985 101.395 22.0323 100.861 22.3459C100.328 22.6595 99.7 22.8152 98.9761 22.8152C98.2522 22.8152 97.6176 22.6548 97.0746 22.3318C96.5317 22.0088 96.1086 21.5702 95.8077 21.0161C95.5069 20.462 95.3541 19.8418 95.3541 19.1557C95.3541 18.4483 95.5045 17.8187 95.8077 17.2646C96.1086 16.7105 96.5317 16.2767 97.0746 15.9631C97.6176 15.6495 98.2522 15.4938 98.9761 15.4938C99.7 15.4938 100.33 15.6518 100.861 15.9631C101.395 16.2767 101.811 16.7035 102.114 17.2505C102.415 17.7952 102.565 18.4318 102.565 19.158C102.565 19.8607 102.415 20.4903 102.114 21.0444Z" fill="#555555"/>
<path d="M117.509 20.5751C117.509 21.4829 117.279 22.1903 116.816 22.6949C116.353 23.1995 115.709 23.4518 114.886 23.4518C114.343 23.4518 113.871 23.341 113.469 23.1193C113.067 22.8977 112.764 22.5699 112.564 22.1361C112.362 21.7022 112.263 21.1835 112.263 20.5775V12.1904H108.279V20.6647C108.279 21.9357 108.561 23.0557 109.123 24.0248C109.687 24.9939 110.465 25.7508 111.462 26.2954C112.458 26.8401 113.598 27.1136 114.886 27.1136C116.172 27.1136 117.314 26.8448 118.311 26.3119C119.307 25.7767 120.081 25.0245 120.633 24.0554C121.185 23.0863 121.463 21.9569 121.463 20.6647V12.1904H117.509V20.5751Z" fill="#555555"/>
<path d="M125.449 5.28408C124.805 5.28408 124.271 5.50573 123.851 5.94901C123.427 6.3923 123.216 6.92755 123.216 7.55239C123.216 8.19846 123.427 8.73843 123.851 9.17228C124.274 9.60614 124.807 9.82306 125.449 9.82306C126.112 9.82306 126.65 9.60614 127.064 9.17228C127.475 8.73843 127.682 8.19846 127.682 7.55239C127.682 6.92755 127.475 6.3923 127.064 5.94901C126.65 5.50808 126.114 5.28408 125.449 5.28408Z" fill="#555555"/>
<path d="M127.44 12.1857H123.458V26.8048H127.44V12.1857Z" fill="#555555"/>
<path d="M140.663 12.1904V13.5957C140.261 13.1666 139.793 12.8035 139.246 12.5229C138.421 12.0985 137.485 11.8862 136.439 11.8862C135.111 11.8862 133.915 12.2187 132.848 12.886C131.781 13.5509 130.946 14.4611 130.345 15.6094C129.741 16.76 129.44 18.0616 129.44 19.5141C129.44 20.9477 129.743 22.2375 130.345 23.3881C130.949 24.5388 131.783 25.4466 132.848 26.1139C133.915 26.7788 135.111 27.1136 136.439 27.1136C137.485 27.1136 138.421 26.8967 139.246 26.4629C139.793 26.1752 140.264 25.8097 140.663 25.3829V26.8118H144.586V12.1928H140.663V12.1904ZM139.848 22.3459C139.164 23.0816 138.268 23.4494 137.163 23.4494C136.439 23.4494 135.8 23.2844 135.248 22.9496C134.695 22.6171 134.263 22.1526 133.95 21.5584C133.638 20.9642 133.483 20.271 133.483 19.4858C133.483 18.7195 133.638 18.038 133.95 17.4415C134.263 16.8473 134.693 16.3828 135.248 16.0503C135.8 15.7178 136.439 15.5504 137.163 15.5504C137.906 15.5504 138.555 15.7178 139.109 16.0503C139.662 16.3828 140.094 16.8473 140.407 17.4415C140.717 18.038 140.875 18.7195 140.875 19.4858C140.872 20.6577 140.531 21.6103 139.848 22.3459Z" fill="#555555"/>
</svg>
