<svg width="136" height="81" viewBox="0 0 136 81" fill="none" xmlns="http://www.w3.org/2000/svg">
<path d="M53.2008 61.5922C53.1033 61.2652 52.9578 60.9697 52.7658 60.7162C52.5693 60.4567 52.3203 60.2452 52.0218 60.0877C51.7203 59.9287 51.3692 59.8477 50.9747 59.8477C50.5802 59.8477 50.2352 59.9302 49.9397 60.0922C49.6486 60.2527 49.4041 60.4687 49.2151 60.7342C49.0306 60.9922 48.8911 61.2877 48.8026 61.6102C48.7111 61.9328 48.6631 62.2658 48.6631 62.5958C48.6631 62.9258 48.7081 63.2573 48.7981 63.5753C48.8896 63.8994 49.0306 64.1949 49.2181 64.4529C49.4086 64.7169 49.6531 64.9329 49.9457 65.0934C50.2412 65.2554 50.5877 65.3394 50.9747 65.3394C51.3617 65.3394 51.7143 65.2584 52.0158 65.0994C52.3128 64.9419 52.5633 64.7304 52.7613 64.4724C52.9563 64.2189 53.1048 63.9234 53.2008 63.5948C53.2953 63.2738 53.3433 62.9378 53.3433 62.5973C53.3433 62.2568 53.2953 61.9133 53.2008 61.5922ZM52.3128 62.6033C52.3128 62.8388 52.2873 63.0863 52.2378 63.3368C52.1898 63.5798 52.1088 63.8049 51.9992 64.0044C51.8942 64.1934 51.7547 64.3524 51.5837 64.4739C51.4262 64.5864 51.2207 64.6434 50.9747 64.6434C50.8157 64.6434 50.6747 64.6164 50.5577 64.5639C50.4347 64.5084 50.3267 64.4334 50.2337 64.3419C50.1392 64.2459 50.0582 64.1334 49.9937 64.0044C49.9232 63.8649 49.8661 63.7148 49.8211 63.5588C49.7761 63.4043 49.7431 63.2423 49.7236 63.0788C49.7026 62.9123 49.6937 62.7518 49.6937 62.6018C49.6937 62.4518 49.7041 62.2898 49.7236 62.1218C49.7431 61.9568 49.7761 61.7948 49.8211 61.6387C49.8661 61.4842 49.9232 61.3342 49.9937 61.1947C50.0582 61.0657 50.1407 60.9502 50.2352 60.8527C50.3282 60.7582 50.4377 60.6802 50.5607 60.6232C50.6777 60.5692 50.8172 60.5407 50.9747 60.5407C51.2207 60.5407 51.4247 60.5992 51.5822 60.7117C51.7532 60.8362 51.8927 60.9967 51.9977 61.1887C52.1088 61.3927 52.1898 61.6192 52.2378 61.8638C52.2873 62.1188 52.3128 62.3663 52.3128 62.6018V62.6033Z" fill="#555555"/>
<path d="M62.4218 64.4544C62.6123 64.7184 62.8568 64.9344 63.1478 65.0949C63.4433 65.2569 63.7898 65.3409 64.1768 65.3409C64.5639 65.3409 64.9164 65.2599 65.2179 65.1009C65.5149 64.9434 65.7654 64.7334 65.9634 64.4739C66.1585 64.2189 66.307 63.9234 66.403 63.5963C66.4975 63.2753 66.5455 62.9393 66.5455 62.5973C66.5455 62.2553 66.4975 61.9133 66.403 61.5922C66.3055 61.2637 66.16 60.9697 65.9679 60.7162C65.7729 60.4567 65.5224 60.2452 65.2239 60.0877C64.9224 59.9287 64.5714 59.8477 64.1768 59.8477C63.7823 59.8477 63.4373 59.9302 63.1418 60.0922C62.8508 60.2527 62.6063 60.4687 62.4173 60.7342C62.2327 60.9922 62.0932 61.2877 62.0047 61.6102C61.9132 61.9328 61.8652 62.2643 61.8652 62.5958C61.8652 62.9273 61.9103 63.2573 62.0003 63.5753C62.0918 63.8994 62.2327 64.1949 62.4203 64.4529L62.4218 64.4544ZM62.8958 62.6033C62.8958 62.4533 62.9063 62.2913 62.9258 62.1233C62.9453 61.9583 62.9783 61.7948 63.0233 61.6402C63.0683 61.4857 63.1253 61.3357 63.1958 61.1962C63.2603 61.0672 63.3428 60.9517 63.4373 60.8542C63.5303 60.7597 63.6398 60.6817 63.7629 60.6247C63.8799 60.5707 64.0193 60.5422 64.1768 60.5422C64.4228 60.5422 64.6269 60.6007 64.7844 60.7132C64.9554 60.8377 65.0949 60.9982 65.1999 61.1902C65.3109 61.3942 65.3919 61.6207 65.4399 61.8653C65.4894 62.1203 65.5149 62.3678 65.5149 62.6033C65.5149 62.8388 65.4894 63.0848 65.4399 63.3368C65.3919 63.5798 65.3109 63.8049 65.2014 64.0044C65.0964 64.1934 64.9569 64.3524 64.7859 64.4739C64.6284 64.5864 64.4228 64.6434 64.1768 64.6434C64.0178 64.6434 63.8769 64.6164 63.7598 64.5639C63.6368 64.5084 63.5288 64.4334 63.4358 64.3419C63.3413 64.2474 63.2603 64.1334 63.1958 64.0044C63.1268 63.8649 63.0683 63.7148 63.0233 63.5588C62.9783 63.4043 62.9453 63.2438 62.9258 63.0788C62.9048 62.9123 62.8958 62.7518 62.8958 62.6018V62.6033Z" fill="#555555"/>
<path d="M108.315 27.6365C108.031 27.8765 107.859 28.172 107.803 28.514C107.743 28.8665 107.827 29.174 108.051 29.426C108.272 29.6766 108.549 29.8041 108.875 29.8041C109.217 29.8041 109.535 29.6826 109.818 29.441C110.1 29.201 110.273 28.9055 110.33 28.5635C110.388 28.211 110.306 27.9035 110.082 27.6515C109.86 27.4009 109.571 27.2734 109.22 27.2734C108.903 27.2734 108.599 27.3949 108.315 27.6365Z" fill="#555555"/>
<path d="M45.9812 60.7194C45.9857 60.7089 45.9901 60.7059 45.9901 60.7059C46.0036 60.6984 46.0291 60.6864 46.0726 60.6804C46.1296 60.6714 46.1956 60.6639 46.2556 60.6609C46.4567 60.6609 46.6037 60.5154 46.6037 60.3129C46.6037 60.1103 46.4582 59.9648 46.2556 59.9648H44.6656C44.4646 59.9648 44.3176 60.1103 44.3176 60.3129C44.3176 60.5154 44.4631 60.6609 44.6656 60.6609C44.7241 60.6609 44.7796 60.6654 44.8321 60.6729C44.8696 60.6789 44.9026 60.6894 44.9266 60.7029C44.9341 60.7074 44.9401 60.7119 44.9461 60.7224C44.9461 60.7224 44.9551 60.7434 44.9551 60.8034V62.1354H42.882V60.8349C42.882 60.7539 42.8955 60.7224 42.897 60.7209C42.9015 60.7104 42.9075 60.7074 42.9075 60.7074C42.921 60.6999 42.9465 60.6879 42.99 60.6819C43.047 60.6729 43.113 60.6654 43.173 60.6624C43.374 60.6624 43.521 60.5169 43.521 60.3144C43.521 60.1118 43.3755 59.9663 43.173 59.9663H41.5829C41.3819 59.9663 41.2349 60.1118 41.2349 60.3144C41.2349 60.5169 41.3804 60.6624 41.5829 60.6624C41.6414 60.6624 41.6969 60.6669 41.7495 60.6744C41.787 60.6804 41.8199 60.6909 41.8439 60.7044C41.8514 60.7089 41.8574 60.7134 41.8634 60.7239C41.8634 60.7239 41.8724 60.7449 41.8724 60.8049V64.3706C41.8724 64.4516 41.8605 64.4801 41.8575 64.4861C41.853 64.4966 41.8484 64.4981 41.8484 64.4981C41.8274 64.5116 41.8004 64.5206 41.7689 64.5251C41.7089 64.5341 41.6414 64.5416 41.5814 64.5446C41.3804 64.5446 41.2334 64.6916 41.2334 64.8926C41.2334 65.0936 41.3789 65.2391 41.5814 65.2391H43.1715C43.3725 65.2391 43.5195 65.0936 43.5195 64.8926C43.5195 64.6916 43.3755 64.5446 43.185 64.5446C43.119 64.5416 43.0515 64.5356 42.9885 64.5251C42.945 64.5176 42.921 64.5071 42.906 64.4981C42.906 64.4981 42.9015 64.4951 42.8955 64.4846C42.8955 64.4816 42.8805 64.4501 42.8805 64.3691V62.8495H44.9536V64.3691C44.9536 64.4501 44.9416 64.4786 44.9386 64.4846C44.9341 64.4951 44.9296 64.4966 44.9296 64.4966C44.9086 64.5101 44.8816 64.5191 44.8501 64.5236C44.7901 64.5326 44.7226 64.5401 44.6626 64.5431C44.4616 64.5431 44.3146 64.6901 44.3146 64.8911C44.3146 65.0921 44.4601 65.2376 44.6626 65.2376H46.2526C46.4537 65.2376 46.6007 65.0921 46.6007 64.8911C46.6007 64.6901 46.4567 64.5431 46.2662 64.5431C46.2002 64.5401 46.1326 64.5341 46.0696 64.5236C46.0261 64.5161 46.0022 64.5056 45.9872 64.4966C45.9872 64.4966 45.9827 64.4936 45.9767 64.4831C45.9767 64.4801 45.9616 64.4486 45.9616 64.3676V60.8334C45.9616 60.7524 45.9752 60.7209 45.9767 60.7179L45.9812 60.7194Z" fill="#555555"/>
<path d="M66.6414 73.7738C66.4328 73.4258 66.1478 73.1348 65.7953 72.9128C65.4383 72.6863 64.9868 72.5723 64.4512 72.5723C64.0702 72.5723 63.7117 72.6398 63.3847 72.7718C63.0577 72.9038 62.7711 73.0853 62.5311 73.3118C62.2881 73.5398 62.0991 73.8128 61.9656 74.1248C61.8336 74.4354 61.7661 74.7744 61.7661 75.1299C61.7661 75.4479 61.8156 75.7599 61.9116 76.0584C62.0106 76.3599 62.1576 76.63 62.3496 76.861C62.5446 77.095 62.7892 77.284 63.0772 77.425C63.3667 77.566 63.7087 77.638 64.0942 77.638C64.5173 77.638 64.8967 77.5615 65.2268 77.4115C65.4383 77.314 65.6333 77.1895 65.8103 77.0395C65.8058 77.137 65.7998 77.239 65.7923 77.3485C65.7758 77.593 65.7473 77.842 65.7053 78.091C65.6633 78.3385 65.6063 78.5801 65.5358 78.8096C65.4668 79.0331 65.3783 79.2326 65.2703 79.4021C65.1653 79.5656 65.0393 79.6991 64.8952 79.8011C64.7587 79.8956 64.5967 79.9421 64.4017 79.9421C64.2202 79.9421 64.0687 79.9151 63.9547 79.8611C63.8437 79.8101 63.7537 79.7396 63.6892 79.6541C63.6232 79.5656 63.5752 79.4606 63.5467 79.3436C63.5167 79.2176 63.5017 79.0826 63.5017 78.9431C63.5017 78.7301 63.5212 78.5336 63.5572 78.3641C63.5782 78.2815 63.5812 78.2531 63.5812 78.229C63.5812 78.121 63.5482 78.0265 63.4837 77.9455C63.4297 77.8795 63.3622 77.8225 63.2812 77.773C63.2032 77.7265 63.1177 77.6905 63.0292 77.668C62.9422 77.6455 62.8582 77.6335 62.7787 77.6335C62.5417 77.6335 62.3511 77.701 62.2101 77.833C62.0721 77.962 61.9941 78.1225 61.9761 78.307C61.9686 78.3475 61.9641 78.3836 61.9641 78.4181V78.4976C61.9641 78.7826 62.0241 79.0541 62.1411 79.3046C62.2581 79.5536 62.4231 79.7711 62.6302 79.9481C62.8327 80.1236 63.0742 80.2646 63.3442 80.3667C63.6142 80.4687 63.9037 80.5197 64.2037 80.5197C64.8083 80.5197 65.3153 80.3711 65.7098 80.0786C66.0968 79.7921 66.4058 79.4231 66.6263 78.9851C66.8439 78.5546 66.9954 78.079 67.0764 77.575C67.1574 77.077 67.1979 76.6 67.1979 76.1589C67.1979 75.7629 67.1574 75.3504 67.0764 74.9319C66.9939 74.5074 66.8484 74.1173 66.6414 73.7738ZM65.7893 74.8974C65.8148 75.2229 65.8283 75.5349 65.8283 75.8214C65.7533 75.9549 65.6678 76.0854 65.5718 76.2114C65.4608 76.357 65.3363 76.492 65.2013 76.6105C65.0708 76.726 64.9282 76.819 64.7767 76.8895C64.6327 76.9555 64.4798 76.99 64.3237 76.99C64.1092 76.99 63.9262 76.9435 63.7807 76.8505C63.6292 76.7545 63.5062 76.627 63.4132 76.4695C63.3157 76.306 63.2452 76.1184 63.2032 75.9114C63.1597 75.6984 63.1372 75.4749 63.1372 75.2484C63.1372 74.9859 63.1582 74.7219 63.2002 74.4654C63.2407 74.2163 63.3112 73.9868 63.4132 73.7873C63.5107 73.5953 63.6457 73.4363 63.8122 73.3163C63.9742 73.2008 64.1887 73.1408 64.4527 73.1408C64.7662 73.1408 65.0048 73.2188 65.1788 73.3778C65.3618 73.5458 65.5028 73.7603 65.6003 74.0183C65.7008 74.2854 65.7638 74.5809 65.7893 74.8989V74.8974Z" fill="#555555"/>
<path d="M59.3975 63.5117C59.3195 63.6602 59.231 63.7998 59.1365 63.9258C59.045 64.0443 58.943 64.1478 58.8335 64.2303C58.7285 64.3113 58.6099 64.3743 58.4794 64.4178C58.3489 64.4613 58.1989 64.4838 58.0354 64.4838C57.7834 64.4838 57.5629 64.4313 57.3799 64.3293C57.1909 64.2213 57.0319 64.0788 56.9073 63.9048C56.7783 63.7248 56.6793 63.5177 56.6163 63.2897C56.5503 63.0542 56.5173 62.8127 56.5173 62.5727C56.5173 62.3537 56.5413 62.1152 56.5909 61.8662C56.6374 61.6246 56.7154 61.3996 56.8219 61.1971C56.9224 61.0051 57.0589 60.8446 57.2239 60.7171C57.3739 60.6031 57.5659 60.5461 57.7924 60.5461C57.9484 60.5461 58.0969 60.5701 58.2319 60.6181C58.3744 60.6691 58.5065 60.7366 58.625 60.8191C58.7465 60.9031 58.8619 61.0051 58.9654 61.1191C59.0749 61.2406 59.1815 61.3711 59.2685 61.4896C59.33 61.5901 59.4305 61.6471 59.5445 61.6471C59.5865 61.6471 59.627 61.6396 59.6795 61.6201C59.8085 61.5661 59.885 61.4551 59.885 61.3261C59.885 61.2886 59.8775 61.2496 59.861 61.2001L59.483 60.2131C59.4425 60.1021 59.3735 60.0196 59.2835 59.9746C59.1665 59.9146 59.0375 59.9071 58.94 59.9491L58.7134 60.0226C58.5694 59.9701 58.4314 59.9296 58.3039 59.9026C58.1449 59.8696 57.9664 59.8516 57.7729 59.8516C57.3919 59.8516 57.0514 59.9371 56.7603 60.1051C56.4768 60.2686 56.2368 60.4846 56.0463 60.7456C55.8618 61.0006 55.7208 61.2931 55.6278 61.6142C55.5363 61.9292 55.4883 62.2517 55.4883 62.5742C55.4883 62.9192 55.5378 63.2597 55.6338 63.5867C55.7328 63.9183 55.8828 64.2168 56.0793 64.4733C56.2788 64.7328 56.5323 64.9458 56.8308 65.1048C57.1339 65.2668 57.4894 65.3478 57.8884 65.3478C58.1524 65.3478 58.3984 65.3088 58.616 65.2338C58.835 65.1573 59.0345 65.0478 59.2085 64.9068C59.381 64.7688 59.534 64.6008 59.6645 64.4073C59.789 64.2228 59.9 64.0158 59.9915 63.7953L60.086 63.5672L59.519 63.2822L59.399 63.5102L59.3975 63.5117Z" fill="#555555"/>
<path d="M38.7281 63.5108C38.6501 63.6593 38.5616 63.7988 38.4671 63.9234C38.3756 64.0419 38.2736 64.1454 38.1641 64.2279C38.0591 64.3089 37.9406 64.3719 37.8101 64.4154C37.6796 64.4589 37.5295 64.4814 37.366 64.4814C37.114 64.4814 36.8935 64.4289 36.7105 64.3269C36.5215 64.2189 36.3625 64.0764 36.2379 63.9024C36.1089 63.7224 36.0099 63.5153 35.9469 63.2873C35.8809 63.0518 35.8479 62.8103 35.8479 62.5703C35.8479 62.3513 35.8719 62.1128 35.92 61.8638C35.9665 61.6222 36.0445 61.3972 36.151 61.1932C36.2515 61.0012 36.388 60.8407 36.553 60.7132C36.703 60.5992 36.895 60.5422 37.1215 60.5422C37.2775 60.5422 37.426 60.5662 37.561 60.6142C37.7035 60.6652 37.8356 60.7327 37.9541 60.8152C38.0756 60.8992 38.1911 61.0012 38.2946 61.1152C38.4041 61.2367 38.5106 61.3687 38.5976 61.4857C38.6591 61.5862 38.7596 61.6432 38.8736 61.6432C38.9156 61.6432 38.9561 61.6357 39.0086 61.6162C39.1376 61.5622 39.2141 61.4512 39.2141 61.3222C39.2141 61.2847 39.2066 61.2457 39.1901 61.1962L38.8121 60.2092C38.7716 60.0982 38.7026 60.0157 38.6126 59.9707C38.4956 59.9107 38.3666 59.9032 38.2691 59.9452L38.0425 60.0187C37.8985 59.9662 37.7605 59.9257 37.633 59.8987C37.474 59.8657 37.2955 59.8477 37.102 59.8477C36.721 59.8477 36.3805 59.9332 36.0894 60.1012C35.8059 60.2647 35.5659 60.4807 35.3754 60.7417C35.1909 60.9967 35.0499 61.2892 34.9569 61.6102C34.8654 61.9253 34.8174 62.2478 34.8174 62.5703C34.8174 62.9153 34.8669 63.2558 34.9629 63.5828C35.0619 63.9144 35.2119 64.2129 35.4084 64.4694C35.6079 64.7289 35.8615 64.9419 36.16 65.1009C36.463 65.2629 36.8185 65.3439 37.2175 65.3439C37.4815 65.3439 37.7275 65.3049 37.9451 65.2299C38.1641 65.1534 38.3636 65.0439 38.5376 64.9029C38.7101 64.7649 38.8631 64.5969 38.9936 64.4034C39.1181 64.2189 39.2291 64.0119 39.3206 63.7913L39.4151 63.5633L38.8481 63.2783L38.7281 63.5078V63.5108Z" fill="#555555"/>
<path d="M59.6599 79.8416C59.5639 79.8356 59.4724 79.8251 59.3884 79.8086C59.3209 79.7966 59.2639 79.7741 59.2174 79.7426C59.1799 79.7171 59.1514 79.6766 59.1289 79.6196C59.1034 79.5521 59.0899 79.4531 59.0899 79.3271V72.6562L57.1533 72.8198C56.9058 72.8588 56.7798 72.9563 56.7798 73.1063C56.7798 73.1918 56.8188 73.3883 57.1803 73.3943C57.2793 73.4003 57.3708 73.4123 57.4518 73.4258C57.5193 73.4378 57.5778 73.4603 57.6228 73.4918C57.6603 73.5173 57.6888 73.5578 57.7113 73.6148C57.7368 73.6823 57.7503 73.7843 57.7503 73.9088V79.3271C57.7503 79.4846 57.7293 79.5731 57.7113 79.6196C57.6888 79.6766 57.6603 79.7171 57.6228 79.7426C57.5778 79.7741 57.5223 79.7951 57.4563 79.8086C57.3753 79.8236 57.2823 79.8341 57.1803 79.8401C56.8188 79.8461 56.7798 80.0426 56.7798 80.1281C56.7798 80.2136 56.8203 80.4176 57.1968 80.4176H59.6434C60.0154 80.4176 60.0709 80.2361 60.0709 80.1281C60.0709 80.0426 60.0304 79.8446 59.6599 79.8401V79.8416Z" fill="#555555"/>
<path d="M74.4148 52.1948C76.6019 51.9142 78.5715 51.2992 80.2696 50.3677L80.4017 50.2957L80.1226 49.7916L79.9921 49.8636C78.3586 50.7592 76.4564 51.3502 74.3413 51.6202C72.4272 51.8678 70.4201 51.8498 68.377 51.5647C66.4254 51.2947 64.4814 50.7847 62.5943 50.0482C60.5887 49.2816 58.8321 48.3141 57.371 47.171C57.134 46.9925 56.8835 46.793 56.6105 46.565C57.689 45.5974 58.7151 44.5249 59.6601 43.3743C60.5242 42.3243 61.3807 41.1467 62.2072 39.8746C62.3753 39.6181 62.5447 39.3601 62.7158 39.1021C63.3143 38.1931 63.9338 37.254 64.5234 36.303C66.0699 33.7963 67.4095 31.2312 68.6486 28.8176C69.1181 27.9101 69.5651 27.0085 69.9086 26.308C70.3767 26.305 70.8447 26.305 71.3127 26.3035C74.5288 26.2945 77.8545 26.284 81.1442 25.966C83.6373 25.7335 85.6429 25.3659 87.4535 24.8124C89.8491 24.0744 91.7962 22.9328 93.2393 21.4192C94.0448 20.5822 94.7259 19.5847 95.2044 18.5376C95.3469 18.2556 95.4579 17.9706 95.5449 17.7321C95.6754 17.405 95.7624 17.1485 95.8284 16.9025C95.9934 16.316 96.1059 15.731 96.1659 15.1639C96.2949 13.9654 96.1599 12.7338 95.7744 11.6028C95.4039 10.5152 94.8159 9.50115 94.0268 8.5861C92.4203 6.70951 90.3772 5.53645 88.7766 4.72341C87.422 4.03337 85.9969 3.50385 84.6139 2.99533C85.2709 2.62031 85.9624 2.28279 86.675 1.99027C87.3785 1.71126 88.0145 1.49675 88.6266 1.33174C89.3316 1.12173 89.9826 0.989724 90.6171 0.926721C91.9687 0.779714 93.3308 0.881721 94.6688 1.22824C96.0759 1.59426 97.315 2.17929 98.35 2.96832C99.4721 3.80087 100.359 4.87942 100.918 6.09298L100.933 6.11998C101.271 6.69001 101.568 7.38454 101.812 8.18408C102.054 8.99562 102.204 9.72166 102.27 10.4027C102.324 11.0252 102.375 11.8458 102.303 12.6783C102.294 12.9513 102.256 13.2303 102.22 13.5003C102.207 13.6024 102.193 13.7029 102.181 13.8004C102.144 14.0374 102.093 14.2789 102.043 14.5129C102.015 14.6479 101.985 14.7829 101.959 14.9194L101.931 15.0634L102.718 15.2314L102.744 15.0754C102.856 14.3749 102.975 13.5453 102.999 12.7128C103.047 11.8368 102.966 10.9817 102.891 10.3322C102.787 9.52665 102.619 8.74361 102.391 8.00557C102.12 7.13703 101.82 6.441 101.454 5.83046C100.837 4.5344 99.8966 3.37184 98.7311 2.4688C97.6165 1.60175 96.3159 0.944725 94.8639 0.517204C93.4313 0.107684 91.9777 -0.0603259 90.5436 0.0191781C89.8026 0.0611802 89.0526 0.164685 88.3775 0.319193C87.707 0.4542 87.0515 0.629708 86.2729 0.853219C85.0699 1.21774 83.8923 1.71426 82.7688 2.33079C80.6072 1.85077 78.6676 1.55825 76.8405 1.43525C74.7944 1.29874 72.7333 1.33775 70.7127 1.55376C66.3084 2.02178 62.3603 3.25934 58.9821 5.22894C55.3639 7.31404 52.2798 10.4717 50.2982 14.1184C49.8166 14.9989 49.3726 15.962 48.9796 16.979C48.8701 17.2715 48.7471 17.5715 48.6301 17.8611C48.3511 18.5496 48.0615 19.2606 47.883 19.9762C47.412 21.9143 47.0835 23.9814 46.9065 26.119C46.5645 30.2157 47.3115 34.4459 49.0681 38.3521C50.3791 41.2742 52.3982 43.9549 54.9154 46.1135C54.1293 46.838 53.3148 47.498 52.4943 48.0771C50.1886 49.6956 47.601 50.8402 45.0119 51.3892C43.6573 51.6787 42.2803 51.8092 40.9182 51.7762C39.5951 51.7387 38.2181 51.5482 36.826 51.2062C35.5149 50.8822 34.1843 50.4382 32.8763 49.8876L29.0031 48.1941C28.4691 47.9646 27.935 47.735 27.401 47.507C25.5949 46.733 23.7303 45.935 21.9167 45.1024C23.0538 43.4103 24.0633 41.5097 24.9169 39.4486C26.2324 36.1785 27.1535 32.7973 28.0431 29.5286C28.2666 28.7081 28.4976 27.8606 28.7301 27.0295C28.8576 27.0295 28.9836 27.028 29.1111 27.025C30.4972 26.989 31.9402 26.791 33.4013 26.437C36.217 25.732 38.8781 24.4224 41.0967 22.6493C42.3838 21.6217 43.3498 20.5837 44.0488 19.4781C44.6519 18.5301 45.3539 17.0315 45.2774 15.2794C45.2099 13.6444 44.6024 12.2088 43.5643 11.2367C42.5188 10.2467 40.9347 9.79216 39.3281 10.0202C37.9705 10.1882 36.595 10.8377 35.3544 11.8968C34.1889 12.8658 33.2468 14.0779 32.4773 15.1354C30.9022 17.303 29.4756 19.8187 28.2351 22.6088C27.788 23.5973 27.3455 24.6564 26.885 25.843C26.2655 25.78 25.6264 25.69 24.9829 25.5759C23.4453 25.3119 21.8882 24.9354 20.3822 24.5694C19.1926 24.2814 17.9641 23.9844 16.731 23.7369C13.5373 23.0543 10.5792 23.0618 7.93304 23.7609C6.32646 24.2094 4.9404 24.9189 3.81385 25.8655C3.18381 26.3905 2.6453 26.983 2.21178 27.6235C1.77676 28.2536 1.43473 28.9826 1.19322 29.7912C0.7792 31.2147 0.749189 32.8003 1.10921 34.3769C1.46923 35.898 2.13377 37.2825 3.02931 38.3806C3.91135 39.4741 5.1504 40.3457 6.61147 40.9037C7.96154 41.4167 9.44964 41.6117 10.9167 41.4722C12.4303 41.3222 13.8314 40.7747 14.9654 39.8867C16.08 39.0331 16.998 37.8346 17.622 36.423L17.685 36.2805L16.932 35.982L16.8795 36.1275C16.434 37.365 15.6134 38.5216 14.5694 39.3826C13.5553 40.1957 12.2698 40.6997 10.8537 40.8437C8.08155 41.1317 5.27041 39.9602 3.69533 37.8616C2.9108 36.819 2.43227 35.5154 2.34677 34.1864C2.25376 32.9158 2.47728 31.6167 2.99331 30.4272C3.45383 29.3411 4.19335 28.3586 5.1879 27.5065C6.11495 26.74 7.2385 26.1445 8.52707 25.7365C9.70013 25.3449 11.0097 25.1064 12.4228 25.0299C13.6454 24.9534 14.9759 25.0119 16.488 25.2099C17.9685 25.3989 19.4761 25.708 20.9342 26.0065C22.1928 26.2645 23.4948 26.5315 24.7984 26.7265C25.3534 26.812 25.9144 26.881 26.4725 26.9305C25.7734 28.8041 25.1314 30.7122 24.5104 32.5588C23.8503 34.5179 23.1693 36.543 22.4343 38.4811C21.7923 40.2242 21.0077 42.2643 20.0371 44.2309C19.1926 43.8379 18.2866 43.4343 17.355 43.0983C15.9705 42.5928 14.5214 42.3228 13.0468 42.2988C12.2383 42.2898 11.5497 42.3063 10.8147 42.4173C9.96714 42.5463 9.20813 42.7908 8.5571 43.1463C7.75006 43.5903 7.1215 44.1589 6.68948 44.8354C6.18695 45.6034 5.93944 46.5335 6.01144 47.384C6.03394 47.7845 6.11795 48.1881 6.27996 48.6636C6.44947 49.0821 6.6595 49.4586 6.90251 49.7841C7.39604 50.4202 8.05757 50.9362 8.8121 51.2782C10.1112 51.8707 11.6067 52.0343 13.2613 51.7612C14.6954 51.5002 16.1025 50.9032 17.3295 50.0347C18.4471 49.2561 19.4956 48.2556 20.5367 46.9775C20.8322 46.61 21.1292 46.2155 21.4667 45.7414C22.8558 46.352 24.2734 46.949 25.6459 47.525C26.657 47.9496 27.704 48.3906 28.7256 48.8301L32.5928 50.5492C34.1139 51.1897 35.3964 51.6397 36.631 51.9608C38.3471 52.4183 40.1007 52.6478 41.8228 52.6478C42.9703 52.6478 44.1028 52.5458 45.2009 52.3403C48.009 51.8092 50.7782 50.7082 53.2113 49.1526C54.1879 48.5301 55.1479 47.819 56.0675 47.0375C56.396 47.285 56.699 47.5025 56.9915 47.7005C58.8441 48.9231 60.6067 49.8666 62.3827 50.5867C64.2638 51.3337 66.2545 51.8572 68.2976 52.1408C70.3917 52.4318 72.4512 52.4483 74.4163 52.1933L74.4148 52.1948ZM71.4627 23.1128L72.3567 21.1822C72.7783 20.2672 73.1953 19.3371 73.5973 18.4386C74.3188 16.826 75.0659 15.1579 75.8504 13.5634C77.019 11.2187 78.3526 8.76311 80.1842 6.68551C81.1142 5.60696 82.1042 4.68591 83.1258 3.95087C83.3718 3.77236 83.6298 3.59835 83.8938 3.43035C85.5724 3.95387 87.1115 4.86592 88.268 5.60545C90.0876 6.80701 91.5532 8.23059 92.5057 9.72016C93.5528 11.3522 93.9608 13.1313 93.6893 14.8669C93.5888 15.641 93.3368 16.4675 92.8988 17.465C92.5088 18.3081 92.0122 19.0836 91.4272 19.7662C90.2901 21.0877 88.73 22.1918 86.7919 23.0483C85.0714 23.8059 83.1168 24.3789 80.9792 24.7524C77.145 25.4094 73.2793 25.5129 70.2926 25.5219L71.4627 23.1113V23.1128ZM78.7351 5.30844C76.878 7.11753 75.2324 9.35714 73.5568 12.3543C72.0897 14.9614 70.8447 17.6781 69.7931 20.0182L66.1824 27.9791C65.0844 30.3942 63.9488 32.8918 62.6723 35.2304C62.0603 36.3555 61.4182 37.44 60.7402 38.5891L60.5737 38.8711C59.8356 40.1402 59.0961 41.2697 58.3161 42.3228C57.4505 43.4853 56.501 44.5774 55.4884 45.5704C53.2248 43.3983 51.4607 40.7192 50.3791 37.8151C49.0531 34.3274 48.4966 30.3327 48.7726 26.263C49.0186 22.5983 50.1077 18.8181 52.0112 15.0229C53.7348 11.5412 56.4095 8.5906 59.7456 6.489C62.8958 4.4864 66.628 3.15883 70.8387 2.5438C72.4888 2.30079 74.1748 2.17928 75.8609 2.17928C76.1759 2.17928 76.491 2.18379 76.8045 2.19129C78.4591 2.24829 80.2096 2.3698 81.8702 2.86032C80.7317 3.56835 79.6786 4.39189 78.7351 5.31144V5.30844ZM29.0361 25.9555C29.3286 24.9459 29.6001 24.0549 29.8671 23.2418C30.8992 20.1487 31.9942 17.7531 33.3143 15.701C34.1513 14.3824 34.9989 13.3413 35.9019 12.5238C36.988 11.5547 38.2105 10.9532 39.4376 10.7822C40.8222 10.5707 42.1842 10.9382 43.0798 11.7633C44.0023 12.6048 44.5499 13.8949 44.5829 15.3019C44.6264 16.5425 44.2304 17.8491 43.4353 19.0821C42.7543 20.1352 41.8078 21.1297 40.6227 22.0388C38.4581 23.6859 35.8839 24.8814 33.1793 25.4919C31.7812 25.7965 30.4072 25.954 29.0961 25.957C29.0766 25.957 29.0571 25.957 29.0361 25.957V25.9555ZM19.6696 44.9554C19.4641 45.3499 19.2841 45.6799 19.1101 45.9845C18.3481 47.288 17.5305 48.3126 16.6125 49.1181C15.5534 50.0467 14.3399 50.6722 13.0978 50.9272C11.7583 51.2302 10.3662 50.9917 9.37313 50.2882C8.38308 49.6041 7.80404 48.4776 7.86405 47.3435C7.87155 46.871 8.02005 46.3865 8.31407 45.8705C8.59158 45.4279 8.98612 45.0184 9.49014 44.6524C10.3632 43.9984 11.6082 43.5633 13.0918 43.3953C13.3483 43.3668 13.6093 43.3518 13.8779 43.3518C14.8484 43.3518 15.8985 43.5438 17.067 43.9324C17.9611 44.2279 18.8431 44.5954 19.6696 44.9554Z" fill="#555555"/>
<path d="M94.5743 63.5596C94.4273 63.4591 94.2323 63.4921 94.1168 63.6406C93.8798 63.9631 93.6518 64.1942 93.4403 64.3232C93.2138 64.4597 92.9317 64.5302 92.6047 64.5302H91.9927C91.8322 64.5302 91.7782 64.4942 91.7632 64.4822C91.7407 64.4627 91.7272 64.4132 91.7272 64.3427V62.8486H92.4607C92.6662 62.8486 92.7502 62.9131 92.7952 62.9641C92.8657 63.0391 92.9047 63.1726 92.9107 63.3451C92.9107 63.5431 93.0547 63.6871 93.2528 63.6871C93.4508 63.6871 93.5933 63.5431 93.5933 63.3451V61.653C93.5933 61.455 93.4493 61.3125 93.2528 61.3125C93.0562 61.3125 92.9107 61.455 92.9122 61.6455C92.9062 61.8345 92.8672 61.9695 92.7967 62.04C92.7382 62.103 92.6227 62.136 92.4622 62.136H91.7287V60.6495H92.6302C92.9467 60.6495 93.2108 60.7215 93.4103 60.8595C93.5318 60.9525 93.6863 61.119 93.8693 61.3575L94.0028 61.5285C94.1093 61.6695 94.2833 61.701 94.4378 61.602C94.5368 61.536 94.5938 61.434 94.5938 61.3245C94.5938 61.278 94.5833 61.2315 94.5653 61.194L94.1858 60.2669C94.1018 60.0719 93.9308 59.9609 93.7193 59.9609H90.5451C90.3471 59.9609 90.2046 60.1049 90.2046 60.3015C90.2046 60.498 90.3486 60.648 90.5316 60.648C90.6936 60.657 90.7461 60.6915 90.7506 60.6945C90.7731 60.711 90.7836 60.75 90.7836 60.81V64.3442C90.7836 64.4477 90.7551 64.4687 90.7371 64.4822C90.7251 64.4912 90.6771 64.5227 90.5466 64.5302C90.3486 64.5332 90.2046 64.6787 90.2046 64.8782C90.2046 65.0777 90.3501 65.2262 90.5526 65.2262H93.8798C93.9758 65.2262 94.0673 65.1992 94.1528 65.1467C94.2428 65.0912 94.3088 65.0072 94.3463 64.9082L94.7108 63.9556C94.7198 63.9301 94.7303 63.8896 94.7303 63.8416C94.7303 63.7276 94.6748 63.6256 94.5758 63.5596H94.5743Z" fill="#555555"/>
<path d="M84.2015 60.268V60.265C84.1145 60.07 83.945 59.959 83.7335 59.959H80.8563C80.6448 59.959 80.4738 60.0715 80.3868 60.271L80.0042 61.204C79.9457 61.3586 80.0013 61.5176 80.1543 61.6136C80.2968 61.6916 80.4618 61.6601 80.5683 61.5311L80.7033 61.3586C80.9373 61.06 81.0813 60.9235 81.1548 60.865C81.3348 60.7405 81.5583 60.6685 81.8224 60.652V64.3437C81.8224 64.4472 81.7938 64.4682 81.7758 64.4817C81.7638 64.4907 81.7158 64.5237 81.5898 64.5297C81.3888 64.5297 81.2418 64.6752 81.2418 64.8777C81.2418 65.0802 81.3873 65.2257 81.5898 65.2257H82.9999C83.2009 65.2257 83.3464 65.0802 83.3464 64.8777C83.3464 64.6752 83.2024 64.5312 83.0134 64.5312C82.8814 64.5237 82.8289 64.4952 82.8004 64.4712C82.7794 64.4562 82.7674 64.4097 82.7674 64.3437V60.652C83.0299 60.6685 83.2519 60.7375 83.4214 60.856C83.5414 60.9505 83.6974 61.1185 83.885 61.3571L84.014 61.5221C84.0665 61.5941 84.14 61.6421 84.224 61.6556C84.305 61.6691 84.386 61.6496 84.4445 61.6061C84.587 61.5176 84.6425 61.3601 84.5825 61.198L84.2015 60.268Z" fill="#555555"/>
<path d="M101.112 64.6446C101.002 64.6371 100.911 64.6206 100.842 64.5936C100.827 64.5876 100.785 64.5636 100.734 64.4706L99.7975 62.798C99.8575 62.783 99.916 62.7665 99.9745 62.747C100.162 62.6825 100.329 62.5895 100.468 62.4695C100.614 62.3465 100.728 62.192 100.812 62.0105C100.893 61.8305 100.935 61.6235 100.935 61.3925C100.935 61.1239 100.875 60.8929 100.756 60.7024C100.644 60.5209 100.492 60.3709 100.309 60.2584C100.136 60.1534 99.94 60.0769 99.7255 60.0304C99.5215 59.9854 99.3145 59.9629 99.112 59.9629H96.9818C96.7808 59.9629 96.6338 60.1084 96.6338 60.3109C96.6338 60.5134 96.7793 60.6589 96.9758 60.6589C97.1949 60.6634 97.2563 60.6964 97.2563 60.6964C97.2578 60.6994 97.2699 60.7219 97.2699 60.7879V64.3356C97.2699 64.4016 97.2593 64.4361 97.2533 64.4496C97.2413 64.4751 97.2308 64.4856 97.2233 64.4901C97.2068 64.5021 97.1798 64.5126 97.1498 64.5201C97.0943 64.5321 97.0329 64.5396 96.9804 64.5426C96.7793 64.5426 96.6323 64.6896 96.6323 64.8906C96.6323 65.0916 96.7778 65.2371 96.9804 65.2371H98.5644C98.7654 65.2371 98.9124 65.0916 98.9124 64.8906C98.9124 64.6896 98.7684 64.5426 98.5779 64.5426C98.4039 64.5351 98.3409 64.4976 98.3154 64.4766C98.3034 64.4676 98.2824 64.4286 98.2824 64.3356V62.8745H98.7324L99.727 64.6836C99.835 64.8786 99.991 65.0376 100.186 65.1562C100.385 65.2777 100.603 65.3391 100.833 65.3391H101.097C101.298 65.3391 101.445 65.1936 101.445 64.9911C101.445 64.7886 101.299 64.6446 101.113 64.6446H101.112ZM99.904 61.394C99.904 61.6415 99.847 61.8425 99.736 61.991C99.64 62.1185 99.475 62.18 99.235 62.18H98.2824V60.6604H99.088C99.343 60.6604 99.55 60.7219 99.7015 60.8434C99.838 60.9529 99.9055 61.1329 99.9055 61.394H99.904Z" fill="#555555"/>
<path d="M134.766 36.0772L134.726 36.1642C134.445 36.7762 134.039 37.5622 133.519 38.4998C132.999 39.4373 132.396 40.3704 131.724 41.2704C131.055 42.1675 130.338 42.9475 129.592 43.591C128.868 44.2181 128.143 44.5346 127.441 44.5346C126.91 44.5346 126.559 44.3306 126.367 43.9106C126.16 43.4605 126.075 42.8575 126.111 42.1165C126.148 41.3604 126.295 40.4979 126.549 39.5528C126.793 38.6348 127.102 37.6957 127.468 36.7582C128.442 36.7222 129.325 36.5317 130.098 36.1912C130.893 35.8387 131.572 35.3961 132.12 34.8741C132.667 34.3521 133.1 33.7761 133.401 33.1595C133.703 32.543 133.877 31.961 133.916 31.4329C133.956 30.8884 133.851 30.4279 133.6 30.0679C133.341 29.6929 132.937 29.5038 132.4 29.5038C131.167 29.5038 130.018 29.9029 128.985 30.6874C127.965 31.4614 127.072 32.432 126.336 33.5705C125.766 34.4511 125.289 35.4111 124.923 36.4132C124.656 36.9847 124.314 37.6882 123.906 38.5058C123.435 39.4478 122.888 40.3794 122.281 41.2764C121.675 42.172 121.01 42.9595 120.304 43.615C119.618 44.2526 118.903 44.5751 118.177 44.5751C117.824 44.5751 117.673 44.4251 117.673 44.0711C117.673 43.654 117.787 43.0945 118.012 42.4075C118.241 41.7084 118.556 40.9044 118.948 40.0194C119.347 39.1193 119.747 38.1863 120.14 37.2487C120.538 36.3022 120.887 35.3676 121.183 34.4691C121.48 33.563 121.657 32.7425 121.709 32.03C121.762 31.2934 121.624 30.6844 121.297 30.2224C120.961 29.7469 120.35 29.5053 119.483 29.5053C118.996 29.5053 118.498 29.6614 118.001 29.9704C117.517 30.2719 117.046 30.6889 116.602 31.2109C116.162 31.727 115.718 32.3345 115.283 33.0155C115.232 33.095 115.181 33.176 115.13 33.257L116.246 30.4654H113.538L113.501 30.5614C112.823 32.321 112.085 34.2111 111.311 36.1687C110.834 37.1227 110.306 38.1143 109.742 39.1148C109.181 40.1079 108.608 41.0154 108.039 41.812C107.471 42.6085 106.896 43.273 106.331 43.7875C105.785 44.2841 105.282 44.5361 104.837 44.5361C104.549 44.5361 104.219 44.4461 104.219 43.744C104.219 43.1365 104.378 42.3565 104.691 41.4279C105.009 40.4874 105.434 39.4313 105.954 38.2898C106.475 37.1482 107.004 36.0427 107.528 35.0076C108.051 33.9726 108.536 33.05 108.968 32.264C109.398 31.4794 109.683 30.9484 109.817 30.6829L109.926 30.4654H107.207L107.165 30.5479C107.015 30.8494 106.725 31.4014 106.283 32.237C105.849 33.0515 105.377 34.0041 104.876 35.0691C104.685 35.4756 104.487 35.9182 104.276 36.4117C103.988 36.9997 103.616 37.7153 103.169 38.5418C102.66 39.4823 102.075 40.4079 101.43 41.2929C100.786 42.1765 100.077 42.9505 99.3208 43.5925C98.5828 44.2196 97.8267 44.5376 97.0722 44.5376C96.7032 44.5376 96.2066 44.4206 96.1451 43.4095C96.0941 42.586 96.2607 41.4909 96.6402 40.1529C97.0212 38.8058 97.5762 37.2652 98.2873 35.5761C98.9923 33.9006 99.7738 32.177 100.609 30.4519C101.523 29.8909 102.511 29.1768 103.55 28.3293C104.598 27.4727 105.587 26.5502 106.487 25.5856C107.385 24.6226 108.143 23.6311 108.735 22.638C109.335 21.6345 109.652 20.6849 109.679 19.8119C109.679 19.3438 109.565 18.9628 109.338 18.6793C109.104 18.3868 108.741 18.2383 108.26 18.2383C107.561 18.2383 106.733 18.6313 105.8 19.4068C104.886 20.1659 103.916 21.1889 102.913 22.4475C101.913 23.7061 100.906 25.1461 99.9238 26.7287C98.9383 28.3158 98.0307 29.9629 97.2252 31.6249C96.4497 33.224 95.7896 34.8201 95.2601 36.3667C94.8251 37.2742 94.3421 38.1983 93.826 39.1133C93.2665 40.1064 92.6935 41.0139 92.1234 41.8105C91.5549 42.607 90.9804 43.2715 90.4149 43.786C89.8703 44.2826 89.3663 44.5346 88.9208 44.5346C88.6328 44.5346 88.3012 44.4446 88.3012 43.7425C88.3012 43.132 88.4603 42.3535 88.7738 41.4264C89.0918 40.4844 89.5163 39.4298 90.0368 38.2883C90.5514 37.1557 91.0809 36.0517 91.6104 35.0061C92.1339 33.9726 92.6185 33.05 93.0505 32.2625C93.481 31.4779 93.766 30.9454 93.8995 30.6814L94.009 30.4639H91.2924L90.5829 31.7735C90.5829 31.6654 90.5784 31.5559 90.5694 31.4479C90.5424 31.0984 90.4599 30.7759 90.3249 30.4909C90.1853 30.1999 89.9813 29.9599 89.7158 29.7784C89.4473 29.5953 89.1023 29.5023 88.6898 29.5023C87.6097 29.5023 86.5582 29.8939 85.5606 30.6679C84.5781 31.4299 83.681 32.399 82.895 33.5465C82.2199 34.5321 81.6394 35.6076 81.1744 36.7372C80.9659 37.1737 80.7079 37.6957 80.3869 38.3318C79.9188 39.2558 79.3773 40.1889 78.7803 41.1054C78.1848 42.0175 77.5547 42.832 76.9112 43.5265C76.2902 44.1956 75.6871 44.5361 75.1111 44.5361C74.5756 44.5586 74.295 44.3426 74.229 43.858C74.1555 43.3165 74.2381 42.6055 74.4751 41.746C74.7151 40.8744 75.0676 39.8979 75.5251 38.8448C75.9797 37.7948 76.4447 36.7687 76.9067 35.7922C77.3642 34.8276 77.7722 33.9411 78.1203 33.155C78.4758 32.351 78.6618 31.8005 78.6903 31.4719C78.7443 30.7894 78.5418 30.2194 78.0888 29.7754C77.5382 29.2398 76.3457 29.0868 75.1261 29.0028H74.6821L74.4841 29.4483C74.0506 30.6724 73.554 31.8845 73.0095 33.0485C72.465 34.2111 71.904 35.3871 71.3384 36.5452L71.2334 36.7612H71.9144L71.9549 36.6757C72.5175 35.4966 73.0755 34.3371 73.6275 33.197C74.1555 32.1035 74.6386 30.9499 75.0631 29.7664C75.5701 29.9434 76.1612 30.1849 76.1612 30.9604C76.1612 31.3744 75.9901 32.0165 75.6526 32.8655C75.3121 33.7236 74.9296 34.6596 74.4811 35.7262C74.0491 36.7552 73.6335 37.8382 73.248 38.9453C72.861 40.0554 72.6195 41.0679 72.5295 41.959C72.4365 42.871 72.5655 43.639 72.9135 44.2406C73.2735 44.8646 74.0026 45.1811 75.0811 45.1811C75.5731 45.1811 76.0681 45.0026 76.5527 44.6531C77.0207 44.3156 77.4887 43.8746 77.9432 43.3405C78.3963 42.8095 78.8403 42.202 79.2633 41.5359C79.5888 41.0229 79.8963 40.5054 80.1799 39.9954C80.1109 40.3524 80.0599 40.7019 80.0254 41.0379C79.9083 42.199 80.0224 43.1815 80.3644 43.9586C80.7229 44.7701 81.4024 45.1826 82.385 45.1826C82.8215 45.1826 83.2685 45.0461 83.7125 44.7761C84.1431 44.5151 84.5676 44.1641 84.9741 43.732C85.3746 43.306 85.7616 42.814 86.1246 42.271C86.3242 41.971 86.5192 41.6634 86.7112 41.3499C86.6587 41.6709 86.6212 41.98 86.6002 42.2725C86.5597 42.8425 86.6152 43.348 86.7622 43.7726C86.9122 44.2106 87.1627 44.5586 87.5077 44.8076C87.8527 45.0566 88.3283 45.1811 88.9223 45.1811C89.5463 45.1811 90.1943 44.8841 90.8484 44.2976C91.4814 43.729 92.1099 43.003 92.716 42.139C93.3145 41.2854 93.895 40.3374 94.441 39.3233C94.333 39.8604 94.2566 40.3704 94.2116 40.8474C94.0946 42.1135 94.249 43.1575 94.6706 43.9496C95.1071 44.7671 95.9141 45.1826 97.0707 45.1826C97.9752 45.1826 98.8483 44.8346 99.6658 44.1476C100.465 43.477 101.211 42.6655 101.881 41.7369C102.232 41.2494 102.573 40.7424 102.895 40.2189C102.765 40.7259 102.67 41.2104 102.609 41.6679C102.478 42.6655 102.559 43.501 102.852 44.1521C103.159 44.8361 103.826 45.1826 104.841 45.1826C105.464 45.1556 106.109 44.8526 106.76 44.2811C107.394 43.7245 108.029 43.0045 108.647 42.1405C108.93 41.7445 109.208 41.3289 109.479 40.8954C109.085 41.9545 108.704 43.0015 108.344 44.0216L108.273 44.2211H110.856L110.894 44.1251C111.098 43.588 111.375 42.8785 111.738 41.9545C112.094 41.0544 112.5 40.0659 112.947 39.0173C113.392 37.9763 113.882 36.9112 114.404 35.8537C114.923 34.8036 115.477 33.8391 116.048 32.987C116.615 32.1425 117.202 31.4464 117.791 30.9199C118.361 30.4099 118.93 30.1504 119.479 30.1504C119.599 30.1504 119.683 30.1789 119.738 30.2359C119.81 30.3124 119.84 30.4489 119.83 30.6439C119.806 31.0639 119.672 31.6264 119.434 32.315C119.192 33.0125 118.871 33.8166 118.477 34.7061C118.087 35.5881 117.691 36.5212 117.302 37.4782C116.917 38.4293 116.579 39.3653 116.299 40.2579C116.014 41.1639 115.856 41.986 115.831 42.7C115.804 43.438 115.963 44.0396 116.303 44.4881C116.651 44.9486 117.268 45.1826 118.133 45.1826C118.999 45.1826 119.861 44.8346 120.653 44.1461C121.427 43.474 122.141 42.6565 122.774 41.7129C123.272 40.9719 123.735 40.2009 124.156 39.4133C124.078 39.9789 124.045 40.5219 124.057 41.0364C124.084 42.1885 124.371 43.1725 124.909 43.9631C125.461 44.7716 126.312 45.1811 127.437 45.1811C128.263 45.1811 129.105 44.8331 129.934 44.1476C130.749 43.4755 131.514 42.658 132.208 41.719C132.898 40.7859 133.53 39.8034 134.084 38.7998C134.636 37.7993 135.071 36.9547 135.377 36.2917L135.474 36.0787H134.759L134.766 36.0772ZM130.042 32.0285C130.456 31.4644 130.875 31.0009 131.287 30.6514C131.68 30.3184 132.055 30.1489 132.402 30.1489C132.748 30.1489 132.958 30.2689 133.098 30.5149C133.248 30.7804 133.301 31.1314 133.253 31.5589C133.203 32 133.041 32.48 132.769 32.9855C132.496 33.4955 132.117 33.9876 131.644 34.4481C131.172 34.9071 130.579 35.2986 129.88 35.6106C129.246 35.8942 128.53 36.0607 127.747 36.1057C128.053 35.3751 128.401 34.6656 128.784 33.9951C129.202 33.26 129.625 32.5985 130.042 32.03V32.0285ZM101.161 29.2788C101.28 29.0508 101.427 28.7703 101.605 28.4343C101.947 27.7878 102.348 27.0527 102.796 26.2457C103.235 25.4551 103.727 24.6031 104.256 23.7121C104.775 22.8375 105.303 22.026 105.825 21.3014C106.344 20.5799 106.83 19.9784 107.273 19.5103C107.792 18.9613 108.117 18.8458 108.297 18.8458C108.573 18.8458 108.758 18.9343 108.858 19.1143C108.974 19.3213 109.031 19.5568 109.031 19.8104C109.031 20.5484 108.759 21.3689 108.225 22.251C107.681 23.151 106.994 24.0541 106.187 24.9376C105.375 25.8257 104.468 26.6882 103.491 27.4997C102.691 28.1658 101.91 28.7628 101.161 29.2788ZM89.9048 32.0195C89.8418 32.5955 89.6888 33.2435 89.4503 33.9486C89.2073 34.6626 88.9433 35.3586 88.6658 36.0142C88.3837 36.6787 88.1138 37.2772 87.8617 37.7948C87.6082 38.3138 87.4387 38.6993 87.3577 38.9363C87.0322 39.5888 86.6662 40.2549 86.2716 40.9164C85.8801 41.5734 85.4571 42.181 85.0161 42.7255C84.5766 43.2655 84.1265 43.7095 83.678 44.0456C83.2445 44.3696 82.8095 44.5346 82.3835 44.5346C82.3055 44.5346 82.247 44.5121 82.199 44.4611C82.112 44.3711 82.0144 44.1491 82.0339 43.594C82.0594 42.8785 82.2124 41.9785 82.49 40.9164C82.7675 39.8544 83.1605 38.6708 83.657 37.3957C84.1535 36.1237 84.6996 34.9401 85.2831 33.8766C85.8652 32.8145 86.4667 31.9115 87.0727 31.1899C87.6547 30.4984 88.1978 30.1474 88.6883 30.1474C89.2208 30.1474 89.5613 30.3094 89.7263 30.6409C89.9048 30.9964 89.9633 31.4599 89.9033 32.018L89.9048 32.0195Z" fill="#555555"/>
<path d="M87.854 60.7194C87.8585 60.7089 87.8645 60.7059 87.8645 60.7059C87.8825 60.6939 87.911 60.6864 87.9455 60.6804C88.0025 60.6714 88.0685 60.6639 88.1285 60.6609C88.3296 60.6609 88.4766 60.5154 88.4766 60.3129C88.4766 60.1103 88.3311 59.9648 88.1285 59.9648H86.5385C86.3374 59.9648 86.1904 60.1103 86.1904 60.3129C86.1904 60.5154 86.3345 60.6609 86.525 60.6609C86.597 60.6639 86.6645 60.6714 86.7245 60.6804C86.768 60.6864 86.789 60.6984 86.795 60.7014C86.804 60.7074 86.81 60.7179 86.8145 60.7254C86.8205 60.7359 86.8295 60.7719 86.8295 60.8334V64.3676C86.8295 64.4486 86.816 64.4801 86.8145 64.4831C86.81 64.4936 86.807 64.4951 86.8055 64.4966C86.786 64.5086 86.7575 64.5176 86.7275 64.5236C86.6675 64.5326 86.6015 64.5401 86.54 64.5431C86.3389 64.5431 86.1919 64.6901 86.1919 64.8911C86.1919 65.0921 86.3374 65.2376 86.54 65.2376H88.1301C88.3311 65.2376 88.478 65.0921 88.478 64.8911C88.478 64.6901 88.334 64.5431 88.1435 64.5431C88.0775 64.5401 88.01 64.5341 87.947 64.5236C87.9035 64.5161 87.8795 64.5056 87.866 64.4966C87.866 64.4966 87.8615 64.4936 87.857 64.4831C87.8555 64.4801 87.842 64.4486 87.842 64.3676V60.8334C87.842 60.7539 87.8555 60.7224 87.857 60.7179L87.854 60.7194Z" fill="#555555"/>
<path d="M80.2846 76.1007C80.0476 75.8802 79.7626 75.7077 79.4386 75.5847C79.1161 75.4632 78.753 75.4016 78.36 75.4016C78.0345 75.4016 77.73 75.4347 77.4585 75.5007C77.28 75.5442 77.1105 75.6102 76.953 75.6972L77.076 73.6121H79.9246L80.0866 73.7756C80.1511 73.8401 80.2516 73.8701 80.4106 73.8701H80.4796L80.5111 73.8671C80.6266 73.8431 80.8187 73.8026 80.8187 73.6406L80.5637 72.7285H76.2884L76.0454 76.7187L76.6784 76.9977L76.7489 76.8987C76.9484 76.6182 77.181 76.3917 77.4405 76.2252C77.6955 76.0617 77.9565 75.9822 78.2415 75.9822C78.4845 75.9822 78.6961 76.0332 78.8686 76.1352C79.0456 76.2387 79.1941 76.3782 79.3096 76.5492C79.4281 76.7247 79.5181 76.9317 79.5766 77.1612C79.6366 77.3952 79.6666 77.6443 79.6666 77.9023C79.6666 78.1393 79.6351 78.3808 79.5721 78.6223C79.5091 78.8608 79.4176 79.0768 79.2991 79.2628C79.1836 79.4444 79.0336 79.5944 78.855 79.7069C78.681 79.8164 78.4755 79.8719 78.2415 79.8719C78.072 79.8719 77.9175 79.8614 77.7855 79.8389C77.664 79.8194 77.5605 79.7819 77.4765 79.7279C77.3985 79.6769 77.34 79.6094 77.2995 79.5194C77.256 79.4249 77.2335 79.2928 77.2335 79.1308C77.2335 79.0948 77.2335 79.0573 77.238 79.0183C77.241 78.9778 77.2455 78.9373 77.253 78.8833L77.2725 78.6043C77.2725 78.5008 77.244 78.4063 77.1855 78.3238C77.133 78.2503 77.0685 78.1903 76.9935 78.1453C76.92 78.1003 76.8405 78.0673 76.7579 78.0478C76.5029 77.9863 76.2539 78.0223 76.0394 78.1483C75.8669 78.2473 75.7754 78.4123 75.7754 78.6253C75.7754 79.1068 76.0139 79.5419 76.4849 79.9199C76.9394 80.2904 77.571 80.4779 78.363 80.4779C78.744 80.4779 79.1026 80.4089 79.4266 80.2739C79.7491 80.1389 80.0326 79.9529 80.2711 79.7234C80.5081 79.4924 80.6986 79.2178 80.8336 78.9088C80.9701 78.5968 81.0392 78.2623 81.0392 77.9128C81.0392 77.5633 80.9732 77.2107 80.8441 76.9032C80.7136 76.5942 80.5261 76.3257 80.2876 76.1037L80.2846 76.1007Z" fill="#555555"/>
<path d="M35.3409 43.7756C35.4909 44.2136 35.7414 44.5602 36.0864 44.8092C36.4314 45.0582 36.907 45.1827 37.501 45.1827C38.125 45.1827 38.773 44.8857 39.4271 44.2991C40.0601 43.7306 40.6886 43.0046 41.2947 42.1405C41.8992 41.2795 42.4842 40.3239 43.0347 39.2994C43.5838 38.2778 44.0968 37.2668 44.5573 36.2932L44.6593 36.0787H43.9813L43.9408 36.1642C43.4863 37.1243 42.9702 38.1173 42.4077 39.1149C41.8482 40.1079 41.2751 41.0155 40.7051 41.812C40.1366 42.6086 39.5621 43.2731 38.9965 43.7876C38.452 44.2841 37.948 44.5362 37.5025 44.5362C37.2145 44.5362 36.8844 44.4462 36.8844 43.7441C36.8844 43.1336 37.0435 42.355 37.357 41.428C37.675 40.486 38.0995 39.4314 38.62 38.2898C39.1346 37.1573 39.6641 36.0532 40.1936 35.0077C40.7171 33.9741 41.2017 33.0516 41.6337 32.264C42.0642 31.4795 42.3492 30.947 42.4812 30.683L42.5907 30.4655H39.8741L39.1645 31.775C39.1645 31.667 39.1601 31.5575 39.1511 31.4495C39.1241 31.1 39.0415 30.7775 38.9065 30.4925C38.767 30.2014 38.563 29.9614 38.2975 29.7799C38.029 29.5969 37.684 29.5039 37.2715 29.5039C36.1914 29.5039 35.1398 29.8954 34.1423 30.6695C33.1597 31.4315 32.2627 32.4006 31.4767 33.5481C30.6921 34.6912 30.0396 35.9497 29.5371 37.2908C29.0345 38.6289 28.7225 39.8889 28.6055 41.038C28.4885 42.199 28.6025 43.1816 28.9445 43.9586C29.3031 44.7702 29.9826 45.1827 30.9651 45.1827C31.4017 45.1827 31.8487 45.0462 32.2927 44.7762C32.7232 44.5152 33.1478 44.1641 33.5543 43.7321C33.9548 43.3061 34.3418 42.8141 34.7048 42.271C34.9043 41.971 35.0994 41.6635 35.2914 41.35C35.2389 41.671 35.2014 41.98 35.1804 42.2725C35.1399 42.8426 35.1953 43.3481 35.3424 43.7741L35.3409 43.7756ZM38.4865 32.0225C38.4235 32.5986 38.2705 33.2466 38.032 33.9516C37.789 34.6657 37.525 35.3602 37.2475 36.0172C36.9655 36.6818 36.6954 37.2803 36.4434 37.7978C36.1899 38.3183 36.0204 38.7024 35.9394 38.9394C35.6139 39.5919 35.2478 40.2579 34.8533 40.9195C34.4618 41.5765 34.0388 42.184 33.5978 42.7286C33.1583 43.2686 32.7083 43.7126 32.2597 44.0486C31.8262 44.3726 31.3912 44.5377 30.9651 44.5377C30.8871 44.5377 30.8286 44.5152 30.7806 44.4641C30.6936 44.3741 30.5961 44.1521 30.6156 43.5971C30.6411 42.8816 30.7941 41.9815 31.0716 40.9195C31.3492 39.8574 31.7422 38.6739 32.2387 37.3988C32.7352 36.1267 33.2813 34.9432 33.8648 33.8796C34.4468 32.8176 35.0484 31.9145 35.6544 31.193C36.2364 30.5015 36.7794 30.1504 37.27 30.1504C37.8025 30.1504 38.143 30.3124 38.308 30.644C38.4865 30.9995 38.545 31.463 38.485 32.021L38.4865 32.0225Z" fill="#555555"/>
<path d="M72.4395 65.1447C72.528 65.0877 72.5955 65.0052 72.6315 64.9077L72.9975 63.9522C73.0095 63.9132 73.0155 63.8772 73.0155 63.8412C73.0155 63.7287 72.96 63.6267 72.864 63.5607C72.723 63.4617 72.5265 63.4857 72.4035 63.6402C72.1664 63.9627 71.9384 64.1937 71.7269 64.3227C71.5004 64.4592 71.2199 64.5297 70.8914 64.5297H70.3439C70.1833 64.5297 70.1293 64.4937 70.1143 64.4817C70.0918 64.4622 70.0798 64.4127 70.0798 64.3422V60.808C70.0798 60.766 70.0858 60.7135 70.1113 60.694C70.1173 60.6895 70.1684 60.655 70.3169 60.6475C70.5149 60.6475 70.6589 60.502 70.6589 60.2995C70.6589 60.097 70.5149 59.959 70.3169 59.959H68.8303C68.6323 59.959 68.4897 60.103 68.4897 60.2995C68.4897 60.496 68.6338 60.646 68.8168 60.646C68.9788 60.655 69.0313 60.6895 69.0358 60.6925C69.0583 60.709 69.0688 60.748 69.0688 60.808V64.3422C69.0688 64.4457 69.0403 64.4667 69.0223 64.4802C69.0103 64.4892 68.9623 64.5222 68.8363 64.5282C68.6353 64.5282 68.4883 64.6737 68.4883 64.8762C68.4883 65.0787 68.6338 65.2243 68.8363 65.2243H72.1649C72.2624 65.2243 72.3539 65.1973 72.438 65.1447H72.4395Z" fill="#555555"/>
<path d="M73.5763 76.9486C73.4082 76.7491 73.1967 76.5691 72.9462 76.413C72.7977 76.32 72.6312 76.2375 72.4527 76.164C72.5727 76.104 72.6837 76.0395 72.7842 75.969C72.9807 75.8325 73.1472 75.6795 73.2807 75.5145C73.4158 75.3465 73.5178 75.171 73.5823 74.9895C73.6468 74.8095 73.6798 74.625 73.6798 74.4435C73.6798 74.2049 73.6287 73.9694 73.5282 73.7429C73.4277 73.5164 73.2777 73.3139 73.0842 73.1414C72.8937 72.9719 72.6597 72.8324 72.3897 72.7274C72.1197 72.6224 71.8092 72.5684 71.4686 72.5684C71.0876 72.5684 70.7471 72.6284 70.4561 72.7484C70.1651 72.8684 69.9176 73.0274 69.7196 73.2209C69.5201 73.4159 69.3686 73.6439 69.2695 73.8974C69.1705 74.1479 69.1195 74.4075 69.1195 74.67C69.1195 74.871 69.1525 75.069 69.217 75.2625C69.2815 75.456 69.382 75.6405 69.514 75.8085C69.6446 75.975 69.8096 76.1265 70.0031 76.26C70.1036 76.329 70.2131 76.3921 70.3316 76.4491C70.1921 76.5256 70.0601 76.6051 69.9371 76.6846C69.7256 76.8226 69.5411 76.9801 69.3881 77.1511C69.2321 77.3251 69.109 77.5261 69.0235 77.7466C68.938 77.9671 68.8945 78.2221 68.8945 78.5042C68.8945 78.8477 68.971 79.1507 69.124 79.4072C69.2741 79.6592 69.4721 79.8707 69.7136 80.0342C69.9506 80.1947 70.2251 80.3162 70.5266 80.3972C70.8251 80.4768 71.1356 80.5158 71.4521 80.5158C71.8586 80.5158 72.2277 80.4528 72.5517 80.3268C72.8757 80.2022 73.1532 80.0312 73.3782 79.8212C73.6032 79.6112 73.7773 79.3682 73.8988 79.0997C74.0188 78.8297 74.0803 78.5492 74.0803 78.2656C74.0803 78.0376 74.0383 77.8081 73.9573 77.5846C73.8763 77.3611 73.7488 77.1466 73.5793 76.9456L73.5763 76.9486ZM72.0792 73.4909C72.1527 73.6154 72.2112 73.7609 72.2502 73.9244C72.2907 74.0909 72.3102 74.2664 72.3102 74.4435V74.484C72.3102 74.7915 72.2472 75.0855 72.1257 75.3585C72.0222 75.588 71.8692 75.759 71.6577 75.876C71.5076 75.822 71.3472 75.759 71.1836 75.6885C71.0036 75.6105 70.8371 75.5145 70.6886 75.4035C70.5446 75.2955 70.4246 75.165 70.3301 75.0135C70.2386 74.868 70.1951 74.7015 70.1951 74.5035C70.1951 74.0564 70.3091 73.7069 70.5356 73.4669C70.7621 73.2254 71.0651 73.1084 71.4611 73.1084C71.5976 73.1084 71.7132 73.1414 71.8137 73.2074C71.9202 73.2764 72.0087 73.3724 72.0792 73.4909ZM70.5776 79.5152C70.4711 79.3832 70.3901 79.2257 70.3361 79.0457C70.2821 78.8657 70.2551 78.6782 70.2536 78.4862L70.2611 78.4397V78.4142C70.2626 78.0706 70.3451 77.7361 70.5041 77.4226C70.6541 77.1286 70.8761 76.8991 71.1791 76.7251C71.3666 76.7851 71.5662 76.8601 71.7732 76.9486C71.9952 77.0416 72.2007 77.1616 72.3852 77.3011C72.5652 77.4391 72.7167 77.6026 72.8352 77.7871C72.9477 77.9626 73.0047 78.1741 73.0047 78.4142C73.0047 78.6542 72.9642 78.8747 72.8832 79.0637C72.8022 79.2527 72.6927 79.4132 72.5562 79.5437C72.4197 79.6742 72.2592 79.7747 72.0777 79.8437C71.8932 79.9127 71.6937 79.9487 71.4822 79.9487C71.2872 79.9487 71.1176 79.9112 70.9676 79.8317C70.8146 79.7522 70.6841 79.6457 70.5791 79.5137L70.5776 79.5152Z" fill="#555555"/>
<path d="M76.0017 64.8907C76.0017 64.6897 75.8577 64.5427 75.6642 64.5427C75.5082 64.5367 75.4242 64.5202 75.3837 64.5082C75.3837 64.4767 75.3897 64.4092 75.4227 64.3057L75.7362 63.5076H77.3113L77.7013 64.4647C77.7103 64.4857 77.7163 64.5037 77.7193 64.5157C77.6788 64.5262 77.5948 64.5412 77.4358 64.5427C77.2348 64.5427 77.0877 64.6897 77.0877 64.8907C77.0877 65.0917 77.2333 65.2372 77.4358 65.2372H79.0514C79.2524 65.2372 79.3994 65.0917 79.3994 64.8907C79.3994 64.6897 79.2539 64.5442 79.0678 64.5442C78.9748 64.5382 78.9103 64.5202 78.8593 64.4827C78.8068 64.4497 78.7588 64.3687 78.7168 64.2382L76.9422 59.9359C76.8567 59.7499 76.7337 59.7109 76.6437 59.7109C76.5042 59.7109 76.3887 59.8054 76.3407 59.9555L74.7507 64.0371C74.6126 64.3927 74.5376 64.4887 74.5196 64.5067C74.5166 64.5097 74.4851 64.5382 74.3786 64.5442C74.1806 64.5472 74.0366 64.6927 74.0366 64.8922C74.0366 65.0917 74.1821 65.2387 74.3846 65.2387H75.6522C75.8532 65.2387 76.0002 65.0932 76.0002 64.8922L76.0017 64.8907ZM76.0212 62.7861L76.5087 61.5395L77.0188 62.7861H76.0212Z" fill="#555555"/>
</svg>
