<svg width="182" height="16" viewBox="0 0 182 16" fill="none" xmlns="http://www.w3.org/2000/svg">
<path d="M21.9873 0.211326V15.4555H19.4559V3.80864L12.3279 15.4111H10.0185L2.89046 3.80864V15.4555H0.370117V0.211326H3.30127L11.1843 13.0351L19.0562 0.211326H21.9873Z" fill="#555555"/>
<path d="M42.661 15.4536H40.074L32.6796 2.10797L25.274 15.4536H22.687L31.103 0.242694H34.2451L42.661 15.4536Z" fill="#555555"/>
<path d="M58.2158 0.18892L49.6888 8.77141V15.4553H47.1574V8.78252L38.6193 0.18892H41.6615L48.4231 6.99496L55.1736 0.18892H58.2158Z" fill="#555555"/>
<path d="M61.4027 2.55462V6.74039H75.1591V9.00537H61.4027V13.2022H75.1591V15.4561H58.9712V0.278544H75.1591V2.55462H61.4027Z" fill="#555555"/>
<path d="M113.319 15.4536H110.732L103.338 2.10797L95.9321 15.4536H93.3341L93.4895 15.1982L93.7671 14.6875L94.0225 14.2323L101.761 0.242694H104.903L113.319 15.4536Z" fill="#555555"/>
<path d="M93.3342 13.2022V15.4561H77.5127V0.278544H79.9442V13.2022H93.3342Z" fill="#555555"/>
<path d="M161.183 0.268871H158.763V15.4353H161.183V0.268871Z" fill="#555555"/>
<path d="M181.335 0.215097V15.4593H178.804L178.138 15.4704L165.691 2.52449V15.4593H163.16V0.215097H166.435L178.804 13.0944V0.215097H181.335Z" fill="#555555"/>
<path d="M180.491 15.2021H179.059V15.1688L180.491 15.2021Z" fill="#555555"/>
<path d="M158.008 15.4529H155.398L148.004 2.10726L140.609 15.4529H138.011L146.438 0.241984H149.569L158.008 15.4529Z" fill="#555555"/>
<path d="M135.925 4.74091V2.40932H122.102V6.58398H134.104C135.081 6.6728 135.969 7.00589 136.702 7.58324C137.079 7.88301 137.401 8.2272 137.668 8.6158C138.179 9.33748 138.456 10.2035 138.456 11.0806C138.456 11.9578 138.167 12.8793 137.623 13.6232C137.279 14.1006 136.835 14.5114 136.313 14.8445C135.536 15.3219 134.626 15.5884 133.693 15.5884H124.344C123.39 15.5884 122.49 15.3219 121.713 14.8445C121.202 14.5225 120.758 14.1117 120.403 13.6232C119.87 12.8904 119.592 12.0244 119.581 11.1361V10.8808H122.102V13.2235H135.925V9.0044H124.344C123.245 9.0044 122.235 8.67132 121.369 8.02735C120.958 7.70537 120.636 7.37228 120.358 6.98368C119.837 6.2509 119.57 5.38488 119.57 4.49665C119.57 3.60842 119.837 2.7424 120.347 2.02072C120.703 1.50999 121.169 1.05477 121.702 0.732787C122.346 0.321982 123.112 0.0777198 123.889 0H134.093C134.892 0.0777198 135.658 0.321982 136.302 0.732787C136.846 1.06587 137.301 1.49888 137.657 2.02072C138.167 2.7424 138.445 3.60842 138.445 4.49665V4.74091H135.914H135.925Z" fill="#555555"/>
</svg>
