<svg width="93" height="59" viewBox="0 0 93 59" fill="none" xmlns="http://www.w3.org/2000/svg">
<path d="M71.4267 37.834C72.1154 37.6645 72.7352 37.3641 73.235 36.8399C73.5794 36.4039 73.8615 36.675 73.4683 37.0839C70.7713 40.0119 67.4946 41.6656 63.5069 41.6792C58.5351 41.695 55.1851 38.3084 55.1584 33.2297C55.1295 27.6787 55.1451 22.1278 55.1451 16.5745C55.1451 14.2724 53.7166 13.2828 52.7703 12.9485C51.8794 12.6344 51.5573 12.7994 51.5573 12.5938C51.5573 12.3724 52.1482 12.4469 52.4282 12.4582C55.2117 12.5712 57.9931 12.7519 60.7767 12.4288C63.0204 12.1668 65.1598 11.6607 66.897 10.0634C66.897 10.0634 67.4901 9.4331 67.4901 10.3074C67.4901 12.9327 67.5013 27.3398 67.4768 31.917C67.4724 32.6942 67.6234 34.4045 67.6701 34.6372C67.8634 35.6041 68.6787 38.0012 71.4267 37.834Z" fill="#555555"/>
<path d="M90.7674 37.834C91.456 37.6645 92.0758 37.3641 92.5757 36.8399C92.92 36.4039 93.2022 36.675 92.8089 37.0839C90.112 40.0119 86.8352 41.6656 82.8476 41.6792C77.8758 41.695 74.5257 38.3084 74.4991 33.2297C74.4702 27.6787 74.4858 22.1278 74.4858 16.5745C74.4858 14.2724 73.0573 13.2828 72.1109 12.9485C71.2201 12.6344 70.898 12.7994 70.898 12.5938C70.898 12.3724 71.4889 12.4469 71.7688 12.4582C74.5524 12.5712 77.3338 12.7519 80.1173 12.4288C82.3611 12.1668 84.5004 11.6607 86.2377 10.0634C86.2377 10.0634 86.8308 9.4331 86.8308 10.3074C86.8308 12.9327 86.8419 27.3398 86.8175 31.917C86.813 32.6942 86.9641 34.4045 87.0107 34.6372C87.204 35.6041 88.0193 38.0012 90.7674 37.834Z" fill="#555555"/>
<path d="M52.0838 37.834C52.7725 37.6645 53.3923 37.3641 53.8921 36.8399C54.2365 36.4039 54.5186 36.675 54.1254 37.0839C51.4285 40.0119 48.1517 41.6656 44.1641 41.6792C39.1923 41.695 35.8422 38.3084 35.8155 33.2297C35.7867 27.6787 35.8022 22.1278 35.8022 16.5745C35.8022 14.2724 34.3738 13.2828 33.4274 12.9485C32.5366 12.6344 32.2144 12.7994 32.2144 12.5938C32.2144 12.3724 32.8054 12.4469 33.0853 12.4582C35.8689 12.5712 38.6502 12.7519 41.4338 12.4288C43.6775 12.1668 45.8169 11.6607 47.5541 10.0634C47.5541 10.0634 48.1473 9.4331 48.1473 10.3074C48.1473 12.9327 48.1584 27.3398 48.1339 31.917C48.1295 32.6942 48.2806 34.4045 48.3272 34.6372C48.5205 35.6041 49.3358 38.0012 52.0838 37.834Z" fill="#555555"/>
<path d="M16.8703 9.37887C14.1134 9.31787 0 9.77424 0 25.5437C0 41.1144 14.1134 41.7312 16.8703 41.7041C19.6272 41.7312 33.7406 41.1144 33.7406 25.5437C33.7406 9.77424 19.625 9.31787 16.8703 9.37887ZM16.8703 41.0647C16.0972 41.0782 15.3352 40.6806 14.7221 39.865C13.498 38.2429 13.0671 36.2954 12.7738 34.3435C11.8919 28.4401 11.9207 22.5186 12.7916 16.6175C13.0759 14.6994 13.5114 12.7768 14.7399 11.1863C15.3552 10.391 16.1061 9.99791 16.8681 10.0115C17.6301 9.99791 18.381 10.391 18.9963 11.1863C20.2248 12.7768 20.6625 14.6994 20.9446 16.6175C21.8177 22.5186 21.8443 28.4401 20.9624 34.3435C20.6714 36.2954 20.2382 38.2429 19.0141 39.865C18.4054 40.6806 17.6434 41.0782 16.8703 41.0647Z" fill="#555555"/>
<path d="M86.7619 6.82061C86.7042 6.76413 86.5953 6.76639 86.4887 6.79124C86.3643 6.82061 85.4001 7.10754 85.4001 7.10754C83.6118 7.56616 82.1345 7.15046 80.9682 5.86496C80.395 5.23689 79.8374 4.29479 79.2909 3.03639L79.0821 2.48965C78.1268 0.203305 76.2252 -0.244024 74.5657 0.106158C74.5657 0.106158 70.7114 1.17252 71.5378 5.16911C71.6755 5.83784 72.0199 6.49754 72.5619 7.14368C73.6194 8.44275 74.9634 9.26737 76.594 9.62433C76.6229 9.6311 76.6517 9.64014 76.6806 9.64692C78.2246 9.9361 79.7708 9.90899 81.317 9.56333C82.7232 9.24026 84.2516 8.59863 85.9022 7.63846C85.9977 7.57746 86.1466 7.48483 86.3487 7.36509C86.5131 7.26794 86.7442 7.11431 86.773 7.08946C86.7753 7.0872 86.7775 7.08268 86.7819 7.07817C86.833 7.02169 86.8597 6.91776 86.7619 6.82061Z" fill="#555555"/>
<path d="M0.904157 50.6876C0.904157 50.5791 0.906379 50.4707 0.9086 50.36C0.910822 50.2493 0.919708 50.1318 0.930815 50.003C0.819739 50.0098 0.704219 50.0143 0.590921 50.0166C0.475401 50.0188 0.368768 50.0256 0.268799 50.0301V49.5263C0.548712 49.5263 0.773087 49.5128 0.939702 49.4834C1.10854 49.454 1.23739 49.4224 1.32625 49.384C1.41733 49.3456 1.48398 49.3049 1.52619 49.2597H1.87052V52.068C2.05713 51.8918 2.26596 51.7562 2.49922 51.6636C2.73248 51.5709 2.97685 51.5258 3.23232 51.5258C3.61887 51.5258 3.96543 51.6229 4.272 51.8195C4.58079 52.016 4.82294 52.2939 5.00066 52.6554C5.17838 53.0169 5.26725 53.4438 5.26725 53.9364C5.26725 54.4605 5.16061 54.9236 4.94512 55.3213C4.72964 55.7189 4.44528 56.0284 4.09206 56.2453C3.73661 56.4645 3.33896 56.5729 2.89687 56.5729C2.69693 56.5729 2.47256 56.5345 2.2193 56.4599C1.96827 56.3831 1.73945 56.2295 1.53285 55.9945L1.2907 56.4215H0.884163L0.904157 50.6876ZM1.87275 54.9575C1.87275 55.2558 1.9194 55.4839 2.0127 55.6443C2.10601 55.8048 2.22597 55.92 2.37259 55.9855C2.51921 56.051 2.6725 56.0849 2.83467 56.0849C3.12791 56.0917 3.37228 56.0081 3.57222 55.8386C3.77216 55.6669 3.921 55.4342 4.02541 55.1405C4.1276 54.8468 4.1787 54.5125 4.1787 54.1397C4.1787 53.7601 4.13204 53.419 4.03874 53.114C3.94543 52.8113 3.80326 52.5673 3.60998 52.3888C3.41671 52.208 3.17456 52.1222 2.88132 52.1267C2.68805 52.1267 2.50366 52.1719 2.32594 52.26C2.14822 52.3481 1.99715 52.4679 1.87275 52.6215V54.9575Z" fill="#555555"/>
<path d="M7.90198 56.031C8.08859 56.031 8.21966 55.9858 8.29297 55.8977C8.3685 55.8096 8.41293 55.6853 8.42848 55.5272C8.44403 55.369 8.4507 55.186 8.4507 54.9759V53.0126C8.4507 52.9042 8.45292 52.7957 8.45958 52.685C8.46625 52.5743 8.47513 52.4569 8.48846 52.3303C8.38183 52.3371 8.27075 52.3416 8.15301 52.3439C8.03527 52.3461 7.92642 52.3529 7.82645 52.3574V51.8536C8.10636 51.8536 8.32851 51.8401 8.49291 51.8107C8.6573 51.7813 8.78615 51.7497 8.87501 51.7113C8.96609 51.6729 9.03274 51.6322 9.07495 51.587H9.43039V55.2493C9.43039 55.3622 9.42817 55.4797 9.42151 55.5949C9.41484 55.7124 9.40596 55.8299 9.39263 55.9519C9.4926 55.9451 9.59256 55.9406 9.69698 55.9383C9.79917 55.9361 9.89469 55.9293 9.98133 55.9248V56.4286H7.89976V56.031H7.90198ZM8.89945 50.7172C8.73727 50.7172 8.60176 50.6562 8.48846 50.532C8.37516 50.4077 8.31963 50.2586 8.31963 50.0801C8.31963 49.9039 8.37961 49.7525 8.49735 49.6305C8.61509 49.5063 8.74838 49.4453 8.89945 49.4453C9.06162 49.4453 9.19713 49.5063 9.30599 49.6305C9.41484 49.7548 9.46816 49.9039 9.46816 50.0801C9.46816 50.2564 9.41262 50.4077 9.30599 50.532C9.19713 50.6562 9.06162 50.7172 8.89945 50.7172Z" fill="#555555"/>
<path d="M14.5155 56.5826C14.2222 56.5826 13.9534 56.5442 13.7046 56.4651C13.4558 56.386 13.2559 56.2934 13.107 56.1849L13.1359 56.499H12.6405L12.5939 54.8678H12.9848C12.9982 55.1028 13.0693 55.3129 13.2003 55.5027C13.3314 55.6924 13.5002 55.8415 13.7091 55.9477C13.9179 56.0562 14.1423 56.1081 14.3844 56.1081C14.5266 56.1081 14.6665 56.0833 14.8043 56.0358C14.942 55.9884 15.0553 55.9161 15.1486 55.8167C15.2419 55.7195 15.2886 55.5975 15.2886 55.4507C15.2886 55.2925 15.2397 55.1615 15.1442 55.0576C15.0486 54.9537 14.9176 54.861 14.7532 54.7774C14.5888 54.6961 14.4 54.6125 14.1889 54.5312C14.0023 54.4544 13.8135 54.3753 13.6246 54.294C13.4358 54.2126 13.2581 54.1132 13.0981 54.0003C12.936 53.8873 12.8093 53.745 12.716 53.5778C12.6227 53.4106 12.5761 53.2028 12.5761 52.9565C12.5761 52.8119 12.605 52.6538 12.6605 52.4866C12.716 52.3194 12.8071 52.1635 12.9315 52.0212C13.0559 51.8788 13.2248 51.7614 13.4358 51.671C13.6469 51.5784 13.909 51.5332 14.22 51.5332C14.3889 51.5332 14.5755 51.5625 14.7843 51.619C14.9931 51.6755 15.1864 51.7749 15.3663 51.9127L15.3574 51.5806H15.8528V53.2502H15.4507C15.433 53.0288 15.3752 52.8232 15.2775 52.6334C15.1797 52.4436 15.0464 52.2878 14.8709 52.168C14.6976 52.0483 14.4844 51.9873 14.2356 51.9873C13.9934 51.9873 13.7957 52.0483 13.6424 52.1725C13.4891 52.2968 13.4136 52.4504 13.4136 52.6334C13.4136 52.8164 13.4714 52.9655 13.5869 53.0785C13.7024 53.1915 13.8535 53.2909 14.0401 53.3722C14.2267 53.4535 14.4288 53.5371 14.6465 53.6185C14.9087 53.7269 15.1531 53.8421 15.3841 53.9686C15.6151 54.0952 15.8017 54.2533 15.9439 54.4431C16.0861 54.6329 16.1594 54.8723 16.1594 55.1638C16.1594 55.4801 16.0794 55.7444 15.9217 55.9568C15.764 56.1691 15.5596 56.325 15.3108 56.4267C15.0598 56.5306 14.7954 56.5826 14.5155 56.5826Z" fill="#555555"/>
<path d="M20.5625 56.5816C20.407 56.5816 20.2515 56.5613 20.096 56.5206C19.9405 56.48 19.7961 56.3964 19.6628 56.2744C19.5295 56.1501 19.4251 55.9716 19.3495 55.7389C19.274 55.504 19.2385 55.1945 19.2385 54.8081L19.2562 52.2168H18.5653V51.6859C18.7342 51.6791 18.9052 51.6158 19.0785 51.4961C19.2518 51.3764 19.4051 51.2137 19.5361 51.0126C19.6672 50.8093 19.7561 50.5924 19.8072 50.3574H20.2448V51.6859H21.6821V52.1784L20.2448 52.1965L20.227 54.7291C20.227 54.9685 20.247 55.1786 20.287 55.3594C20.327 55.5401 20.3959 55.6779 20.4914 55.7773C20.5869 55.8745 20.7202 55.9242 20.8868 55.9242C21.029 55.9242 21.1779 55.879 21.3311 55.7909C21.4844 55.7028 21.6288 55.5559 21.7643 55.3549L22.082 55.6395C21.9332 55.8609 21.7843 56.0349 21.6333 56.1614C21.4844 56.2879 21.34 56.3806 21.2045 56.4416C21.0668 56.5026 20.9424 56.5387 20.8313 56.5545C20.7202 56.5726 20.6314 56.5816 20.5625 56.5816Z" fill="#555555"/>
<path d="M24.3413 56.03C24.5279 56.03 24.659 55.9848 24.7323 55.8967C24.8078 55.8086 24.8523 55.6843 24.8678 55.5262C24.8834 55.368 24.89 55.185 24.89 54.9749V53.0003C24.89 52.8987 24.8922 52.7902 24.8945 52.6727C24.8967 52.5553 24.9078 52.44 24.9278 52.3271C24.8212 52.3339 24.7101 52.3384 24.5923 52.3406C24.4746 52.3429 24.3657 52.3497 24.2658 52.3542V51.8504H24.5835C24.8456 51.8504 25.0433 51.821 25.181 51.7645C25.3188 51.7081 25.4165 51.6471 25.4787 51.5838H25.8142C25.8275 51.6719 25.8364 51.7962 25.8431 51.9543C25.8497 52.1125 25.8564 52.2887 25.8608 52.4852C25.9786 52.309 26.1163 52.1486 26.2718 52.0063C26.4273 51.8639 26.5962 51.7487 26.7806 51.6606C26.9649 51.5725 27.156 51.5273 27.3537 51.5273C27.547 51.5273 27.7136 51.5793 27.8535 51.6832C27.9935 51.7871 28.0624 51.9566 28.0624 52.1915C28.0624 52.2548 28.0446 52.3271 28.0113 52.4107C27.978 52.492 27.9202 52.5643 27.8424 52.623C27.7647 52.684 27.6603 52.7134 27.5292 52.7134C27.3981 52.7066 27.2848 52.6569 27.1893 52.562C27.0938 52.4672 27.0471 52.3384 27.0538 52.1735C26.905 52.1735 26.7561 52.2186 26.6051 52.3113C26.4562 52.4039 26.3162 52.5259 26.1896 52.6773C26.063 52.8286 25.9541 52.9936 25.8675 53.1698V55.2483C25.8675 55.3612 25.8653 55.4787 25.8631 55.5939C25.8608 55.7114 25.8497 55.8289 25.8297 55.9509C25.9297 55.9441 26.0319 55.9396 26.1385 55.9374C26.2452 55.9351 26.3407 55.9283 26.4273 55.9238V56.4276H24.3369V56.03H24.3413Z" fill="#555555"/>
<path d="M32.6365 56.5816C32.1944 56.5816 31.7968 56.48 31.4413 56.2789C31.0859 56.0756 30.806 55.7932 30.5972 55.4294C30.3883 55.0657 30.2839 54.6455 30.2839 54.171C30.2839 53.6582 30.3883 53.2041 30.5972 52.8087C30.806 52.4133 31.0881 52.1016 31.4413 51.8734C31.7968 51.6452 32.19 51.5322 32.6254 51.5322C33.0675 51.5322 33.4652 51.6362 33.8206 51.8418C34.176 52.0473 34.456 52.332 34.6648 52.6957C34.8736 53.0595 34.978 53.4797 34.978 53.9541C34.978 54.4534 34.8758 54.903 34.6692 55.3006C34.4626 55.6983 34.1849 56.0123 33.8339 56.2405C33.4829 56.4664 33.0831 56.5816 32.6365 56.5816ZM32.7009 56.1072C32.9986 56.1004 33.2341 56.0055 33.4052 55.8225C33.5762 55.6395 33.6984 55.4046 33.7739 55.1154C33.8495 54.8285 33.885 54.528 33.885 54.2185C33.885 53.9474 33.8628 53.6785 33.8162 53.4164C33.7695 53.1544 33.6962 52.9149 33.5962 52.7003C33.4963 52.4856 33.3652 52.3139 33.2052 52.1829C33.0431 52.0541 32.8476 51.9909 32.6165 51.9976C32.3233 51.9976 32.0856 52.0903 31.9034 52.2733C31.719 52.4563 31.5857 52.6935 31.5013 52.9804C31.4169 53.2673 31.3747 53.5723 31.3747 53.8954C31.3747 54.2682 31.4213 54.6229 31.5147 54.9572C31.608 55.2916 31.7524 55.5672 31.9478 55.7819C32.1456 55.9988 32.3966 56.1072 32.7009 56.1072ZM32.1411 50.9719L31.8234 50.6963L32.5988 49.3973C32.6854 49.2707 32.7743 49.1894 32.8653 49.1555C32.9564 49.1216 33.0386 49.1103 33.1164 49.1261C33.1941 49.142 33.2541 49.1691 33.2985 49.2075C33.3474 49.2459 33.3852 49.3046 33.4096 49.3882C33.4341 49.4696 33.4318 49.5599 33.4052 49.6593C33.3785 49.7587 33.3141 49.8604 33.2141 49.9666L32.1411 50.9719Z" fill="#555555"/>
<path d="M44.0174 56.5819C43.7442 56.5819 43.4754 56.548 43.2155 56.4825C42.9533 56.417 42.7178 56.3085 42.5068 56.1594C42.2957 56.0103 42.1269 55.8205 42.0025 55.5901C41.8781 55.3596 41.8159 55.0795 41.8159 54.7497C41.8159 54.3385 41.9492 53.9725 42.218 53.6539C42.4846 53.3354 42.8378 53.0823 43.2732 52.8993C43.0933 52.6712 42.9489 52.461 42.8445 52.269C42.7378 52.077 42.6623 51.8872 42.6156 51.7042C42.569 51.5212 42.5468 51.3382 42.5468 51.1529C42.5534 50.6853 42.7178 50.3148 43.0422 50.0437C43.3665 49.7726 43.7819 49.6347 44.2929 49.6347C44.6172 49.6347 44.8972 49.6957 45.1326 49.82C45.3681 49.9443 45.5525 50.1092 45.6836 50.3193C45.8146 50.5271 45.8791 50.7621 45.8791 51.0219C45.8791 51.2614 45.8235 51.4941 45.7169 51.7155C45.608 51.9369 45.4436 52.1448 45.2259 52.3368C45.0082 52.5288 44.735 52.7141 44.404 52.8926C44.5284 53.0191 44.6817 53.1795 44.8661 53.376C45.0504 53.5726 45.2459 53.7759 45.4592 53.9883C45.6702 54.2007 45.8724 54.3972 46.0657 54.5802C46.0901 54.4785 46.1101 54.3814 46.1212 54.2865C46.1345 54.1916 46.139 54.1035 46.139 54.0199C46.139 53.8618 46.119 53.7172 46.079 53.5884C46.039 53.4596 45.9724 53.3534 45.8835 53.2744C45.7924 53.1953 45.668 53.1524 45.5059 53.1456V52.7276H47.1098V53.2314L46.4278 53.193C46.5033 53.2744 46.5566 53.376 46.5922 53.4958C46.6255 53.6155 46.6455 53.7556 46.6522 53.9137C46.6588 54.0538 46.6455 54.212 46.6144 54.3927C46.5833 54.5734 46.5344 54.7587 46.4656 54.9485C46.5211 54.9982 46.5789 55.0524 46.6388 55.1044C46.6988 55.1586 46.761 55.2128 46.8299 55.2715C47.0965 55.511 47.3297 55.6963 47.5297 55.8228C47.7296 55.9493 47.8851 56.0126 47.9962 56.0126V56.4305H47.0809C47.0254 56.4305 46.9032 56.374 46.7166 56.2633C46.53 56.1526 46.2945 55.9742 46.0079 55.7279C45.7902 55.9674 45.517 56.1707 45.1904 56.3356C44.8638 56.4983 44.4728 56.5819 44.0174 56.5819ZM44.1863 56.0397C44.5284 56.0465 44.8172 55.99 45.0549 55.868C45.2904 55.7482 45.4881 55.5924 45.6436 55.4026C45.5881 55.3529 45.5325 55.2986 45.4814 55.2467C45.4281 55.1925 45.3703 55.1405 45.3081 55.0908C44.9105 54.6977 44.5684 54.3565 44.2818 54.0651C43.9952 53.7737 43.7442 53.5048 43.5265 53.2586C43.3576 53.3715 43.2266 53.5093 43.131 53.672C43.0355 53.8324 42.9666 53.9951 42.9267 54.1555C42.8867 54.3159 42.8667 54.4582 42.8667 54.578C42.8667 54.9078 42.9267 55.1767 43.0488 55.389C43.171 55.6014 43.331 55.7595 43.5331 55.868C43.7309 55.9764 43.9508 56.0329 44.1863 56.0397ZM44.1307 52.5763C44.4417 52.3549 44.6728 52.1041 44.8216 51.8217C44.9705 51.5393 45.046 51.2727 45.046 51.0197C45.046 50.7418 44.9771 50.5113 44.8372 50.3328C44.6972 50.1521 44.4995 50.0617 44.244 50.0617C44.0196 50.0617 43.8308 50.1498 43.6753 50.3283C43.5198 50.5045 43.4421 50.7576 43.4421 51.0874C43.4421 51.3269 43.5065 51.5799 43.6375 51.842C43.7664 52.1041 43.9308 52.3481 44.1307 52.5763Z" fill="#555555"/>
<path d="M54.4031 56.0307C54.5897 56.0307 54.7208 55.9855 54.7941 55.8974C54.8696 55.8093 54.914 55.685 54.9296 55.5269C54.9451 55.3687 54.954 55.1857 54.954 54.9756V50.6876C54.954 50.5791 54.9562 50.4707 54.9585 50.36C54.9607 50.2493 54.9696 50.1318 54.9829 50.003C54.8763 50.0098 54.7652 50.0143 54.6475 50.0166C54.5297 50.0188 54.4231 50.0256 54.3298 50.0301V49.5263C54.6097 49.5263 54.8318 49.5128 54.9962 49.4834C55.1606 49.454 55.2895 49.4224 55.3783 49.384C55.4694 49.3456 55.5361 49.3049 55.5783 49.2597H55.9337V55.2467C55.9337 55.3597 55.9315 55.4772 55.9248 55.5924C55.9182 55.7099 55.9093 55.8273 55.896 55.9493C55.9959 55.9426 56.0959 55.938 56.2003 55.9358C56.3025 55.9335 56.398 55.9268 56.4847 55.9222V56.426H54.4031V56.0307Z" fill="#555555"/>
<path d="M61.3454 56.5826C60.9033 56.5826 60.5056 56.4809 60.1502 56.2798C59.7947 56.0788 59.5148 55.7941 59.306 55.4304C59.0972 55.0666 58.9928 54.6464 58.9928 54.172C58.9928 53.6591 59.0972 53.205 59.306 52.8096C59.5148 52.4143 59.797 52.1025 60.1502 51.8743C60.5034 51.6461 60.8988 51.5332 61.3343 51.5332C61.7763 51.5332 62.174 51.6371 62.5294 51.8427C62.8849 52.0483 63.1648 52.3329 63.3736 52.6967C63.5825 53.0604 63.6869 53.4806 63.6869 53.9551C63.6869 54.4544 63.5847 54.904 63.3781 55.3016C63.1715 55.6992 62.8938 56.0132 62.5428 56.2414C62.1918 56.4674 61.7919 56.5826 61.3454 56.5826ZM61.4098 56.1081C61.7075 56.1014 61.943 56.0065 62.114 55.8235C62.2851 55.6405 62.4073 55.4055 62.4828 55.1163C62.5583 54.8294 62.5939 54.5289 62.5939 54.2194C62.5939 53.9483 62.5717 53.6795 62.525 53.4174C62.4784 53.1553 62.405 52.9158 62.3051 52.7012C62.2051 52.4866 62.074 52.3149 61.9141 52.1838C61.7519 52.0551 61.5564 51.9918 61.3254 51.9986C61.0321 51.9986 60.7944 52.0912 60.6123 52.2742C60.4279 52.4572 60.2946 52.6944 60.2102 52.9813C60.1258 53.2683 60.0835 53.5733 60.0835 53.8963C60.0835 54.2691 60.1302 54.6238 60.2235 54.9582C60.3168 55.2925 60.4612 55.5682 60.6567 55.7828C60.8544 55.9997 61.1054 56.1081 61.4098 56.1081Z" fill="#555555"/>
<path d="M68.2677 56.5808C67.9189 56.5808 67.6323 56.5153 67.4057 56.382C67.1791 56.2487 67.0081 56.0295 66.897 55.7223C66.7859 55.415 66.7282 55.0084 66.7282 54.5023V53.0134C66.7282 52.905 66.7304 52.7943 66.7326 52.6768C66.7348 52.5593 66.7459 52.4441 66.7659 52.3312C66.6593 52.3379 66.5482 52.3424 66.4305 52.3447C66.3127 52.347 66.2061 52.3537 66.1128 52.3583V51.8545H66.3372C66.6482 51.8545 66.8814 51.8251 67.0369 51.7686C67.1925 51.7121 67.3013 51.6511 67.3635 51.5879H67.719V54.4819C67.719 54.9812 67.7878 55.354 67.9233 55.6025C68.0611 55.8488 68.2899 55.9685 68.6142 55.964C68.8253 55.964 69.0297 55.9007 69.2252 55.7742C69.4207 55.6477 69.5806 55.4986 69.705 55.3292V53.0812C69.705 52.9412 69.7072 52.8101 69.7139 52.6881C69.7206 52.5639 69.7317 52.4464 69.7517 52.3334C69.6406 52.3402 69.5251 52.3447 69.4073 52.347C69.2896 52.3492 69.1807 52.356 69.0808 52.3605V51.8567H69.3518C69.625 51.8567 69.8405 51.8273 69.996 51.7709C70.1515 51.7144 70.2626 51.6534 70.3315 51.5901H70.6869L70.678 55.0829C70.678 55.1846 70.6758 55.3224 70.6692 55.4963C70.6625 55.6703 70.6536 55.8239 70.6403 55.9572C70.7469 55.9505 70.8558 55.9437 70.9713 55.9392C71.0868 55.9324 71.1934 55.9301 71.2934 55.9301V56.4339H69.8094C69.7961 56.3323 69.7872 56.2374 69.7761 56.1493C69.7672 56.0612 69.7561 55.9753 69.7428 55.894C69.5495 56.077 69.3251 56.2396 69.0719 56.3774C68.8186 56.5153 68.5476 56.5808 68.2677 56.5808Z" fill="#555555"/>
<path d="M73.8104 56.428V56.0304C73.997 56.0304 74.1281 55.9852 74.2014 55.8971C74.2769 55.809 74.3214 55.6847 74.3369 55.5266C74.3525 55.3684 74.3614 55.1854 74.3614 54.9753L74.3702 53.0007C74.3702 52.8991 74.3725 52.7906 74.3747 52.6732C74.3769 52.5557 74.388 52.4405 74.408 52.3275C74.2969 52.3343 74.1814 52.3388 74.0681 52.341C73.9526 52.3433 73.8459 52.3501 73.746 52.3546V51.8508C74.0259 51.8508 74.2458 51.8372 74.4036 51.8079C74.5613 51.7785 74.6835 51.7469 74.7679 51.7085C74.8523 51.6701 74.9167 51.6294 74.9589 51.5842H75.2944C75.3011 51.6407 75.3055 51.6949 75.3077 51.7446C75.3099 51.7943 75.3144 51.8485 75.3166 51.905C75.3188 51.9615 75.3255 52.0338 75.3299 52.1242C75.4677 52.0112 75.6165 51.9095 75.7787 51.8214C75.9408 51.7333 76.1097 51.661 76.2874 51.6068C76.4651 51.5526 76.634 51.5255 76.7961 51.5255C77.3493 51.5255 77.7492 51.6972 77.9958 52.0383C78.2424 52.3795 78.3645 52.9149 78.3645 53.6424V55.2464C78.3645 55.3594 78.3623 55.4769 78.3557 55.5921C78.349 55.7096 78.3401 55.827 78.3268 55.949C78.4267 55.9423 78.5267 55.9378 78.6311 55.9355C78.7333 55.9332 78.8288 55.9265 78.9155 55.9219V56.4257H76.8339V56.0281C77.0205 56.0281 77.1516 55.9829 77.2249 55.8948C77.3004 55.8067 77.3449 55.6825 77.3604 55.5243C77.376 55.3662 77.3826 55.1832 77.3826 54.9731V53.6446C77.376 53.1453 77.2982 52.768 77.1449 52.515C76.9916 52.262 76.7495 52.1377 76.4118 52.1445C76.2119 52.1445 76.0164 52.1942 75.8231 52.2959C75.6298 52.3975 75.4677 52.5195 75.3388 52.6664C75.3388 52.7296 75.3388 52.7974 75.3388 52.8697C75.3388 52.942 75.3388 53.0166 75.3388 53.0934V55.2464C75.3388 55.3594 75.3366 55.4769 75.3299 55.5921C75.3233 55.7096 75.3144 55.827 75.301 55.949C75.401 55.9423 75.501 55.9378 75.6054 55.9355C75.7076 55.9332 75.8031 55.9265 75.8898 55.9219V56.4257H73.8104V56.428Z" fill="#555555"/>
<path d="M83.5985 58.9988C83.052 58.9988 82.6099 58.9378 82.2789 58.8135C81.9457 58.6893 81.7057 58.5311 81.5613 58.3391C81.4147 58.147 81.3414 57.9414 81.3414 57.7268C81.3414 57.5551 81.3792 57.397 81.4569 57.2524C81.5347 57.1078 81.6391 56.979 81.7702 56.8683C81.9012 56.7576 82.0478 56.6695 82.2078 56.6062C81.9901 56.5362 81.8257 56.4368 81.7124 56.308C81.6013 56.1792 81.5436 56.0188 81.5436 55.8291C81.5436 55.6257 81.6235 55.4269 81.7813 55.2304C81.939 55.0338 82.1678 54.9005 82.4677 54.8327C82.1878 54.7062 81.9634 54.5232 81.7968 54.2815C81.628 54.042 81.5413 53.7573 81.5347 53.4275C81.528 53.0479 81.6235 52.7158 81.819 52.4312C82.0145 52.1465 82.2678 51.9251 82.5744 51.7669C82.8831 51.6088 83.203 51.5297 83.5407 51.5297C83.734 51.5297 83.9317 51.5568 84.1383 51.6111C84.3427 51.6653 84.5293 51.7489 84.6981 51.8618C84.767 51.6788 84.8559 51.5117 84.9692 51.358C85.0825 51.2044 85.2135 51.0869 85.3646 50.9965C85.5179 50.9084 85.6778 50.8633 85.8445 50.8633C86.0244 50.8633 86.1621 50.9107 86.2554 51.0056C86.3487 51.1005 86.3954 51.227 86.3954 51.3851C86.3954 51.4348 86.3821 51.4981 86.3532 51.5704C86.3243 51.6427 86.2776 51.706 86.2088 51.7557C86.1399 51.8054 86.0466 51.8325 85.9289 51.8325C85.8289 51.8325 85.74 51.7986 85.6623 51.7331C85.5845 51.6675 85.5357 51.5862 85.5179 51.4913C85.3868 51.5162 85.2802 51.5952 85.1958 51.724C85.1113 51.8528 85.058 51.9838 85.0336 52.1171C85.1958 52.2617 85.3202 52.4357 85.4112 52.6345C85.5023 52.8333 85.5468 53.0479 85.5468 53.2739C85.5468 53.6353 85.4512 53.9539 85.2624 54.2318C85.0736 54.5097 84.8248 54.7288 84.5204 54.887C84.2161 55.0451 83.8851 55.1242 83.5318 55.1242C83.4252 55.1242 83.3275 55.1151 83.2341 55.0993C83.1408 55.0835 83.0387 55.0767 82.9254 55.0767C82.7254 55.0767 82.5632 55.1242 82.4344 55.2191C82.3078 55.314 82.2589 55.4269 82.29 55.5602C82.3211 55.7003 82.4522 55.7907 82.681 55.8358C82.912 55.881 83.243 55.9127 83.6785 55.9307C84.1583 55.9488 84.5693 56.0075 84.9136 56.1069C85.258 56.2041 85.5268 56.3555 85.7156 56.5588C85.9044 56.7621 86 57.0355 86 57.3834C86 57.6432 85.9289 57.8737 85.7889 58.077C85.649 58.2803 85.4623 58.4475 85.2291 58.5853C84.9958 58.7209 84.7359 58.8248 84.4493 58.8948C84.1694 58.9649 83.8851 58.9988 83.5985 58.9988ZM83.6829 58.5356C84.1872 58.5356 84.576 58.4407 84.8536 58.251C85.1313 58.0612 85.2691 57.8466 85.2691 57.6048C85.2691 57.4015 85.2002 57.2456 85.0647 57.1349C84.927 57.0242 84.7359 56.9451 84.4915 56.8977C84.2449 56.8502 83.9584 56.8231 83.6274 56.8163C83.4652 56.8028 83.3008 56.7938 83.132 56.787C82.9631 56.7802 82.8076 56.7644 82.6654 56.7395C82.5232 56.8412 82.4122 56.9632 82.3344 57.11C82.2567 57.2546 82.2145 57.4083 82.2078 57.5664C82.2078 57.8579 82.3411 58.0906 82.6099 58.269C82.8765 58.4453 83.2342 58.5356 83.6829 58.5356ZM83.5607 54.6836C83.7718 54.6836 83.9473 54.6271 84.0872 54.5164C84.2272 54.4057 84.3338 54.2566 84.4049 54.0714C84.476 53.8839 84.5115 53.6805 84.5115 53.4591C84.5115 53.1993 84.4738 52.9553 84.4005 52.7294C84.3271 52.5035 84.2161 52.3182 84.0739 52.1781C83.9317 52.0381 83.7473 51.9703 83.5229 51.9703C83.2186 51.9703 82.9809 52.0945 82.8143 52.3408C82.6454 52.5871 82.5632 52.8853 82.5632 53.2332C82.5632 53.5111 82.601 53.7596 82.6788 53.9787C82.7565 54.1979 82.8698 54.3696 83.0187 54.4961C83.1697 54.6204 83.3497 54.6836 83.5607 54.6836Z" fill="#555555"/>
<path d="M90.6518 56.5826C90.2164 56.5826 89.8254 56.4786 89.4811 56.2731C89.1367 56.0675 88.8635 55.776 88.6636 55.401C88.4636 55.026 88.3659 54.5809 88.3659 54.068C88.3659 53.6252 88.4636 53.2118 88.6591 52.8255C88.8546 52.4391 89.1301 52.1274 89.4855 51.8901C89.841 51.6529 90.2497 51.5332 90.7163 51.5332C90.9784 51.5332 91.225 51.5738 91.4583 51.6574C91.6915 51.7388 91.9003 51.8675 92.0825 52.0415C92.2669 52.2155 92.4113 52.4391 92.5157 52.7148C92.6223 52.9904 92.6734 53.3248 92.6734 53.7156L89.4633 53.7721C89.4633 54.2013 89.5122 54.5854 89.6077 54.9198C89.7032 55.2541 89.861 55.514 90.0787 55.6969C90.2964 55.8799 90.5785 55.9726 90.9273 55.9726C91.0961 55.9726 91.2739 55.9432 91.4649 55.8822C91.6537 55.8212 91.8359 55.7354 92.007 55.6201C92.178 55.5072 92.3224 55.3694 92.4402 55.2112L92.729 55.4665C92.5424 55.7512 92.3269 55.9748 92.0847 56.1352C91.8426 56.2956 91.5938 56.4109 91.3427 56.4764C91.0939 56.5487 90.8629 56.5826 90.6518 56.5826ZM89.5033 53.2796H91.6582C91.6582 53.0401 91.6249 52.8232 91.5604 52.6289C91.496 52.4369 91.3938 52.2832 91.2583 52.168C91.1206 52.0551 90.9473 51.9963 90.7363 51.9963C90.4075 51.9963 90.1364 52.1025 89.9254 52.3149C89.7121 52.5272 89.5722 52.8503 89.5033 53.2796Z" fill="#555555"/>
</svg>
