<svg width="82" height="47" viewBox="0 0 82 47" fill="none" xmlns="http://www.w3.org/2000/svg">
<path d="M81 29.2246H1.00665V29.849H81V29.2246Z" fill="#555555"/>
<path d="M7.37602 2.67522C7.00083 2.1256 6.61232 1.7057 6.22381 1.4309C5.81754 1.1407 5.49341 1 5.23366 1H1V24.6553H2.98252V14.5732H5.19814C5.59109 14.5732 6.00846 14.4303 6.44138 14.1467C6.86985 13.8675 7.25392 13.4344 7.58693 12.8584C7.91328 12.2934 8.18857 11.5767 8.41057 10.7259C8.63036 9.87733 8.74136 8.85725 8.74136 7.69207C8.74136 6.56427 8.60594 5.57277 8.33953 4.74395C8.07534 3.92174 7.75121 3.22483 7.37602 2.67522ZM2.98252 2.96761H4.5077C4.91175 2.96761 5.23588 3.10171 5.50007 3.37872C5.77314 3.66672 6.0018 4.04485 6.17941 4.50432C6.35923 4.97039 6.49688 5.49582 6.58568 6.06522C6.67448 6.63242 6.74331 7.19962 6.78993 7.74923C6.76773 7.87674 6.75663 7.99985 6.75663 8.12956C6.75663 8.2219 6.74553 8.32742 6.72332 8.45933C6.6767 8.94299 6.61898 9.43764 6.55016 9.93229C6.48356 10.4269 6.37477 10.8842 6.22825 11.2909C6.08617 11.6866 5.89302 12.012 5.65325 12.256C5.42237 12.4913 5.12488 12.6056 4.74525 12.6056H2.98252V2.96761Z" fill="#555555"/>
<path d="M24.4306 16.9651C24.3151 16.5584 24.2041 16.1869 24.0953 15.8527C23.9177 15.3075 23.6558 14.7315 23.3161 14.1401C23.8911 13.7202 24.4017 12.9991 24.8346 11.99C25.2875 10.9304 25.5184 9.4838 25.5184 7.69207C25.5184 6.71156 25.4118 5.80141 25.2031 4.98359C24.9944 4.17016 24.7169 3.46226 24.3795 2.88187C24.0398 2.30148 23.658 1.83981 23.245 1.50784C22.8188 1.17148 22.3925 1 21.9729 1H17.7038V24.6553H19.7218V14.5732H20.894C21.0383 14.6897 21.1915 14.8326 21.3447 14.9975C21.5067 15.1734 21.6732 15.446 21.8397 15.8043C22.0085 16.1715 22.1927 16.6617 22.3859 17.2685C22.579 17.8775 22.781 18.6755 22.9875 19.6384L24.1131 24.6553H26.3465L24.4306 16.8288V16.9651ZM19.7218 2.96761H21.1804C21.6488 2.96761 22.0307 3.10611 22.3148 3.38092C22.6101 3.66672 22.8432 4.04265 23.0075 4.49993C23.1762 4.966 23.3005 5.49143 23.3805 6.06082C23.4582 6.62582 23.5225 7.19302 23.5692 7.74703C23.547 7.87015 23.5359 7.98886 23.5359 8.09658C23.5359 8.19332 23.5248 8.31203 23.5026 8.45713C23.4559 8.93639 23.3982 9.43324 23.3316 9.93009C23.265 10.4247 23.1562 10.882 23.0097 11.2887C22.8676 11.6844 22.6678 12.0076 22.4192 12.2516C22.1772 12.4891 21.8753 12.6034 21.4934 12.6034H19.7262V2.96761H19.7218Z" fill="#555555"/>
<path d="M39.0164 1L35.1801 24.6553H37.3402L40.1286 6.73795L43.0524 24.6553H45.2126L41.2364 1H39.0164Z" fill="#555555"/>
<path d="M60.047 16.4705L56.2307 1.09673L56.2085 1H54.1838V24.6553H56.1664V9.26396L60.0426 24.6553H62.0296V1H60.047V16.4705Z" fill="#555555"/>
<path d="M77.0261 1H74.8038L70.9698 24.6553H73.1277L75.9183 6.73795L78.8399 24.6553H81L77.0261 1Z" fill="#555555"/>
<path d="M11.0724 34.2205H11.6163V44.6983C11.6163 44.9995 11.5386 45.2787 11.3855 45.5337C11.2323 45.7887 10.9614 45.9272 10.5774 45.947H9.00777C8.67698 45.9272 8.43055 45.7997 8.26405 45.5645C8.09976 45.3314 8.0154 45.0742 8.0154 44.7928V42.236H8.56154V44.3729C8.56154 44.7159 8.60816 44.9731 8.7014 45.1446C8.79464 45.316 8.99667 45.4018 9.30526 45.4018H10.0978C10.4841 45.4018 10.7416 45.3138 10.8748 45.138C11.008 44.9621 11.0724 44.7071 11.0724 44.3729V34.2205Z" fill="#555555"/>
<path d="M17.8481 45.136C17.9813 45.3119 18.2388 45.3998 18.6251 45.3998H19.451C19.7595 45.3998 19.9593 45.3141 20.0526 45.1426C20.1458 44.9711 20.1925 44.7139 20.1925 44.3709V34.2207H20.7364V44.7909C20.7364 45.0723 20.6542 45.3295 20.4877 45.5625C20.3234 45.7977 20.0748 45.9253 19.744 45.945H18.1433C17.757 45.9253 17.4884 45.7868 17.333 45.5317C17.1776 45.2767 17.1021 44.9997 17.1021 44.6963V34.2185H17.6505V44.3688C17.6505 44.7029 17.7149 44.9579 17.8481 45.136Z" fill="#555555"/>
<path d="M26.2244 34.2205H26.8194V45.9448H26.2244V34.2205Z" fill="#555555"/>
<path d="M33.0333 45.136C33.1532 45.3119 33.4063 45.3998 33.7926 45.3998H34.6517C34.9603 45.3998 35.1601 45.3141 35.2534 45.1426C35.3466 44.9711 35.3932 44.7139 35.3932 44.3709V42.2341H35.9371V44.7909C35.9371 45.0723 35.855 45.3295 35.6885 45.5625C35.5242 45.7977 35.2756 45.9253 34.9448 45.945H33.3441C32.9578 45.9253 32.6892 45.7868 32.5338 45.5317C32.3806 45.2767 32.3029 44.9997 32.3029 44.6963V35.4672C32.3029 35.1441 32.3961 34.8561 32.5849 34.6011C32.7713 34.346 33.0355 34.2185 33.3774 34.2185H34.8471C35.1668 34.2405 35.4265 34.3636 35.6308 34.5923C35.835 34.8209 35.9371 35.0693 35.9371 35.3397V37.9273H35.3932V35.775C35.3932 35.4321 35.3466 35.177 35.2534 35.0122C35.1601 34.8473 34.9581 34.7615 34.6517 34.7615H33.5284C33.3419 34.7615 33.182 34.8539 33.0488 35.0341C32.9156 35.2166 32.8513 35.4628 32.8513 35.775V44.3666C32.8513 44.7029 32.9112 44.9579 33.0333 45.136Z" fill="#555555"/>
<path d="M41.4274 34.2205H45.0772V34.7657H41.9735V39.6309H44.7308V40.1761H41.9735V45.3996H45.0772V45.9448H41.4274V34.2205Z" fill="#555555"/>
<path d="M52.4944 34.2205C52.8251 34.2205 53.1004 34.293 53.3202 34.4381C53.54 34.5832 53.7176 34.7833 53.8486 35.0383C53.9818 35.2933 54.0728 35.6033 54.1306 35.966C54.1861 36.3288 54.2127 36.7289 54.2127 37.1664C54.2127 37.6544 54.155 38.1381 54.0395 38.6152C53.9241 39.0922 53.7443 39.4682 53.5023 39.7386C53.822 39.9474 54.0639 40.297 54.2282 40.7916C54.3925 41.2863 54.4769 41.8755 54.4769 42.5614C54.4769 42.9351 54.4436 43.3242 54.377 43.7222C54.3104 44.1223 54.2038 44.4872 54.0551 44.8148C53.9063 45.1424 53.7087 45.4128 53.4601 45.626C53.2114 45.8393 52.9073 45.9448 52.5432 45.9448H50.5607V34.2205H52.4944ZM52.3145 39.6309C52.6342 39.6309 52.8696 39.5693 53.025 39.444C53.2114 39.2769 53.358 38.9977 53.4623 38.602C53.5667 38.2063 53.6199 37.7292 53.6199 37.1664C53.6199 36.7927 53.6066 36.4607 53.5778 36.1749C53.5489 35.8891 53.489 35.6473 53.3957 35.4494C53.3025 35.2515 53.1648 35.0977 52.9828 34.9811C52.8007 34.8668 52.561 34.7943 52.2635 34.7635H51.1068V39.6287H52.3145V39.6309ZM52.4944 45.3996C52.9339 45.2545 53.2758 44.9621 53.5178 44.5268C53.7598 44.0893 53.8819 43.4913 53.8819 42.7329C53.8819 42.1613 53.8264 41.6644 53.7176 41.2445C53.6066 40.8224 53.4423 40.5344 53.2225 40.3783C53.1226 40.3058 53.005 40.264 52.8673 40.253C52.7297 40.242 52.5787 40.2376 52.4122 40.2376H51.1068V45.3974H52.4944V45.3996Z" fill="#555555"/>
<path d="M60.5576 45.9448H59.9627L61.8608 34.2205H62.5712L64.5515 45.9448H63.9566L62.2227 35.3593L60.5576 45.9448Z" fill="#555555"/>
<path d="M72.0243 34.2205C72.1997 34.2205 72.3839 34.2974 72.5771 34.4557C72.7702 34.6118 72.9434 34.8294 73.0966 35.1109C73.2497 35.3923 73.3785 35.7286 73.4762 36.1243C73.5761 36.5201 73.6249 36.9553 73.6249 37.4346C73.6249 38.3799 73.4984 39.1208 73.2453 39.6572C72.9922 40.1937 72.7058 40.5322 72.3861 40.6773C72.6059 41.0093 72.768 41.3303 72.8723 41.6358C72.9767 41.9414 73.0832 42.313 73.1942 42.7505L73.9868 45.947H73.343L72.7969 43.5463C72.677 43.0077 72.5593 42.5702 72.4505 42.236C72.3395 41.904 72.233 41.638 72.1286 41.4402C72.0243 41.2423 71.9221 41.095 71.8223 40.9961C71.7224 40.8972 71.6247 40.8158 71.5248 40.7543H70.5835V45.947H70.0373V34.2205H72.0243ZM71.7756 40.2068C72.0731 40.2068 72.3018 40.1189 72.4616 39.943C72.6215 39.7672 72.7413 39.5407 72.8257 39.2637C72.9079 38.9889 72.9656 38.6899 72.9989 38.3667C73.0322 38.0436 73.0655 37.7424 73.0988 37.4632C73.0766 37.151 73.0433 36.8366 72.9989 36.5201C72.9545 36.2035 72.8812 35.9155 72.7769 35.6539C72.6725 35.3944 72.5282 35.1812 72.3484 35.0141C72.1664 34.8492 71.9221 34.7635 71.6136 34.7635H70.5901V40.2047H71.7756V40.2068Z" fill="#555555"/>
<path d="M81 29.2246H1.00665V29.849H81V29.2246Z" stroke="#555555" stroke-width="0.5" stroke-miterlimit="10"/>
<path d="M7.37602 2.67522C7.00083 2.1256 6.61232 1.7057 6.22381 1.4309C5.81754 1.1407 5.49341 1 5.23366 1H1V24.6553H2.98252V14.5732H5.19814C5.59109 14.5732 6.00846 14.4303 6.44138 14.1467C6.86985 13.8675 7.25392 13.4344 7.58693 12.8584C7.91328 12.2934 8.18857 11.5767 8.41057 10.7259C8.63036 9.87733 8.74136 8.85725 8.74136 7.69207C8.74136 6.56427 8.60594 5.57277 8.33953 4.74395C8.07534 3.92174 7.75121 3.22483 7.37602 2.67522ZM2.98252 2.96761H4.5077C4.91175 2.96761 5.23588 3.10171 5.50007 3.37872C5.77314 3.66672 6.0018 4.04485 6.17941 4.50432C6.35923 4.97039 6.49688 5.49582 6.58568 6.06522C6.67448 6.63242 6.74331 7.19962 6.78993 7.74923C6.76773 7.87674 6.75663 7.99985 6.75663 8.12956C6.75663 8.2219 6.74553 8.32742 6.72332 8.45933C6.6767 8.94299 6.61898 9.43764 6.55016 9.93229C6.48356 10.4269 6.37477 10.8842 6.22825 11.2909C6.08617 11.6866 5.89302 12.012 5.65325 12.256C5.42237 12.4913 5.12488 12.6056 4.74525 12.6056H2.98252V2.96761Z" stroke="#555555" stroke-width="0.5" stroke-miterlimit="10"/>
<path d="M24.4306 16.9651C24.3151 16.5584 24.2041 16.1869 24.0953 15.8527C23.9177 15.3075 23.6558 14.7315 23.3161 14.1401C23.8911 13.7202 24.4017 12.9991 24.8346 11.99C25.2875 10.9304 25.5184 9.4838 25.5184 7.69207C25.5184 6.71156 25.4118 5.80141 25.2031 4.98359C24.9944 4.17016 24.7169 3.46226 24.3795 2.88187C24.0398 2.30148 23.658 1.83981 23.245 1.50784C22.8188 1.17148 22.3925 1 21.9729 1H17.7038V24.6553H19.7218V14.5732H20.894C21.0383 14.6897 21.1915 14.8326 21.3447 14.9975C21.5067 15.1734 21.6732 15.446 21.8397 15.8043C22.0085 16.1715 22.1927 16.6617 22.3859 17.2685C22.579 17.8775 22.781 18.6755 22.9875 19.6384L24.1131 24.6553H26.3465L24.4306 16.8288V16.9651ZM19.7218 2.96761H21.1804C21.6488 2.96761 22.0307 3.10611 22.3148 3.38092C22.6101 3.66672 22.8432 4.04265 23.0075 4.49993C23.1762 4.966 23.3005 5.49143 23.3805 6.06082C23.4582 6.62582 23.5225 7.19302 23.5692 7.74703C23.547 7.87015 23.5359 7.98886 23.5359 8.09658C23.5359 8.19332 23.5248 8.31203 23.5026 8.45713C23.4559 8.93639 23.3982 9.43324 23.3316 9.93009C23.265 10.4247 23.1562 10.882 23.0097 11.2887C22.8676 11.6844 22.6678 12.0076 22.4192 12.2516C22.1772 12.4891 21.8753 12.6034 21.4934 12.6034H19.7262V2.96761H19.7218Z" stroke="#555555" stroke-width="0.5" stroke-miterlimit="10"/>
<path d="M39.0164 1L35.1801 24.6553H37.3402L40.1286 6.73795L43.0524 24.6553H45.2126L41.2364 1H39.0164Z" stroke="#555555" stroke-width="0.5" stroke-miterlimit="10"/>
<path d="M60.047 16.4705L56.2307 1.09673L56.2085 1H54.1838V24.6553H56.1664V9.26396L60.0426 24.6553H62.0296V1H60.047V16.4705Z" stroke="#555555" stroke-width="0.5" stroke-miterlimit="10"/>
<path d="M77.0261 1H74.8038L70.9698 24.6553H73.1277L75.9183 6.73795L78.8399 24.6553H81L77.0261 1Z" stroke="#555555" stroke-width="0.5" stroke-miterlimit="10"/>
<path d="M11.0724 34.2205H11.6163V44.6983C11.6163 44.9995 11.5386 45.2787 11.3855 45.5337C11.2323 45.7887 10.9614 45.9272 10.5774 45.947H9.00777C8.67698 45.9272 8.43055 45.7997 8.26405 45.5645C8.09976 45.3314 8.0154 45.0742 8.0154 44.7928V42.236H8.56154V44.3729C8.56154 44.7159 8.60816 44.9731 8.7014 45.1446C8.79464 45.316 8.99667 45.4018 9.30526 45.4018H10.0978C10.4841 45.4018 10.7416 45.3138 10.8748 45.138C11.008 44.9621 11.0724 44.7071 11.0724 44.3729V34.2205Z" stroke="#555555" stroke-width="0.5" stroke-miterlimit="10"/>
<path d="M17.8481 45.136C17.9813 45.3119 18.2388 45.3998 18.6251 45.3998H19.451C19.7595 45.3998 19.9593 45.3141 20.0526 45.1426C20.1458 44.9711 20.1925 44.7139 20.1925 44.3709V34.2207H20.7364V44.7909C20.7364 45.0723 20.6542 45.3295 20.4877 45.5625C20.3234 45.7977 20.0748 45.9253 19.744 45.945H18.1433C17.757 45.9253 17.4884 45.7868 17.333 45.5317C17.1776 45.2767 17.1021 44.9997 17.1021 44.6963V34.2185H17.6505V44.3688C17.6505 44.7029 17.7149 44.9579 17.8481 45.136Z" stroke="#555555" stroke-width="0.5" stroke-miterlimit="10"/>
<path d="M26.2244 34.2205H26.8194V45.9448H26.2244V34.2205Z" stroke="#555555" stroke-width="0.5" stroke-miterlimit="10"/>
<path d="M33.0333 45.136C33.1532 45.3119 33.4063 45.3998 33.7926 45.3998H34.6517C34.9603 45.3998 35.1601 45.3141 35.2534 45.1426C35.3466 44.9711 35.3932 44.7139 35.3932 44.3709V42.2341H35.9371V44.7909C35.9371 45.0723 35.855 45.3295 35.6885 45.5625C35.5242 45.7977 35.2756 45.9253 34.9448 45.945H33.3441C32.9578 45.9253 32.6892 45.7868 32.5338 45.5317C32.3806 45.2767 32.3029 44.9997 32.3029 44.6963V35.4672C32.3029 35.1441 32.3961 34.8561 32.5849 34.6011C32.7713 34.346 33.0355 34.2185 33.3774 34.2185H34.8471C35.1668 34.2405 35.4265 34.3636 35.6308 34.5923C35.835 34.8209 35.9371 35.0693 35.9371 35.3397V37.9273H35.3932V35.775C35.3932 35.4321 35.3466 35.177 35.2534 35.0122C35.1601 34.8473 34.9581 34.7615 34.6517 34.7615H33.5284C33.3419 34.7615 33.182 34.8539 33.0488 35.0341C32.9156 35.2166 32.8513 35.4628 32.8513 35.775V44.3666C32.8513 44.7029 32.9112 44.9579 33.0333 45.136Z" stroke="#555555" stroke-width="0.5" stroke-miterlimit="10"/>
<path d="M41.4274 34.2205H45.0772V34.7657H41.9735V39.6309H44.7308V40.1761H41.9735V45.3996H45.0772V45.9448H41.4274V34.2205Z" stroke="#555555" stroke-width="0.5" stroke-miterlimit="10"/>
<path d="M52.4944 34.2205C52.8251 34.2205 53.1004 34.293 53.3202 34.4381C53.54 34.5832 53.7176 34.7833 53.8486 35.0383C53.9818 35.2933 54.0728 35.6033 54.1306 35.966C54.1861 36.3288 54.2127 36.7289 54.2127 37.1664C54.2127 37.6544 54.155 38.1381 54.0395 38.6152C53.9241 39.0922 53.7443 39.4682 53.5023 39.7386C53.822 39.9474 54.0639 40.297 54.2282 40.7916C54.3925 41.2863 54.4769 41.8755 54.4769 42.5614C54.4769 42.9351 54.4436 43.3242 54.377 43.7222C54.3104 44.1223 54.2038 44.4872 54.0551 44.8148C53.9063 45.1424 53.7087 45.4128 53.4601 45.626C53.2114 45.8393 52.9073 45.9448 52.5432 45.9448H50.5607V34.2205H52.4944ZM52.3145 39.6309C52.6342 39.6309 52.8696 39.5693 53.025 39.444C53.2114 39.2769 53.358 38.9977 53.4623 38.602C53.5667 38.2063 53.6199 37.7292 53.6199 37.1664C53.6199 36.7927 53.6066 36.4607 53.5778 36.1749C53.5489 35.8891 53.489 35.6473 53.3957 35.4494C53.3025 35.2515 53.1648 35.0977 52.9828 34.9811C52.8007 34.8668 52.561 34.7943 52.2635 34.7635H51.1068V39.6287H52.3145V39.6309ZM52.4944 45.3996C52.9339 45.2545 53.2758 44.9621 53.5178 44.5268C53.7598 44.0893 53.8819 43.4913 53.8819 42.7329C53.8819 42.1613 53.8264 41.6644 53.7176 41.2445C53.6066 40.8224 53.4423 40.5344 53.2225 40.3783C53.1226 40.3058 53.005 40.264 52.8673 40.253C52.7297 40.242 52.5787 40.2376 52.4122 40.2376H51.1068V45.3974H52.4944V45.3996Z" stroke="#555555" stroke-width="0.5" stroke-miterlimit="10"/>
<path d="M60.5576 45.9448H59.9627L61.8608 34.2205H62.5712L64.5515 45.9448H63.9566L62.2227 35.3593L60.5576 45.9448Z" stroke="#555555" stroke-width="0.5" stroke-miterlimit="10"/>
<path d="M72.0243 34.2205C72.1997 34.2205 72.3839 34.2974 72.5771 34.4557C72.7702 34.6118 72.9434 34.8294 73.0966 35.1109C73.2497 35.3923 73.3785 35.7286 73.4762 36.1243C73.5761 36.5201 73.6249 36.9553 73.6249 37.4346C73.6249 38.3799 73.4984 39.1208 73.2453 39.6572C72.9922 40.1937 72.7058 40.5322 72.3861 40.6773C72.6059 41.0093 72.768 41.3303 72.8723 41.6358C72.9767 41.9414 73.0832 42.313 73.1942 42.7505L73.9868 45.947H73.343L72.7969 43.5463C72.677 43.0077 72.5593 42.5702 72.4505 42.236C72.3395 41.904 72.233 41.638 72.1286 41.4402C72.0243 41.2423 71.9221 41.095 71.8223 40.9961C71.7224 40.8972 71.6247 40.8158 71.5248 40.7543H70.5835V45.947H70.0373V34.2205H72.0243ZM71.7756 40.2068C72.0731 40.2068 72.3018 40.1189 72.4616 39.943C72.6215 39.7672 72.7413 39.5407 72.8257 39.2637C72.9079 38.9889 72.9656 38.6899 72.9989 38.3667C73.0322 38.0436 73.0655 37.7424 73.0988 37.4632C73.0766 37.151 73.0433 36.8366 72.9989 36.5201C72.9545 36.2035 72.8812 35.9155 72.7769 35.6539C72.6725 35.3944 72.5282 35.1812 72.3484 35.0141C72.1664 34.8492 71.9221 34.7635 71.6136 34.7635H70.5901V40.2047H71.7756V40.2068Z" stroke="#555555" stroke-width="0.5" stroke-miterlimit="10"/>
</svg>
