<svg width="200" height="41" viewBox="0 0 200 41" fill="none" xmlns="http://www.w3.org/2000/svg">
<path d="M0.00333305 0C6.93608 0.00266644 13.8688 -2.53701e-09 20.8016 0.00266644C24.3613 0.0319973 27.953 1.30922 30.5581 3.76768C32.7206 5.77284 34.0964 8.6766 34.0031 11.6523C34.0884 14.3508 33.2405 17.1079 31.4967 19.1904C30.1074 20.8996 28.1609 22.0701 26.1025 22.7954C28.2543 23.4087 30.3261 24.5979 31.598 26.4858C32.6006 27.9043 32.9792 29.6615 32.9952 31.376C32.9979 34.5384 33.0005 37.7008 32.9925 40.8632C30.0621 40.8579 27.1317 40.8632 24.2013 40.8605C24.196 38.3221 24.2066 35.7836 24.1986 33.2452C24.1373 31.432 23.724 29.4988 22.4121 28.1656C21.0229 26.7764 18.9777 26.3578 17.0846 26.2724C15.1007 26.2484 13.1196 26.2698 11.1357 26.2644C11.1437 23.9046 11.1144 21.5475 11.1517 19.1877C14.0101 19.2144 16.8686 19.1904 19.727 19.201C21.7242 19.1984 23.652 17.9638 24.4999 16.1533C25.6598 13.7695 25.3105 10.4978 23.2067 8.73793C22.0148 7.76201 20.4389 7.38871 18.9244 7.39671C15.3914 7.40471 11.861 7.39404 8.33063 7.40204C8.33329 16.1106 8.33063 24.8192 8.33063 33.5305C5.55486 33.5305 2.77643 33.5305 0.000666611 33.5305C0.000666611 22.3528 -0.00199983 11.1777 0.00333305 0Z" fill="#555555"/>
<path d="M105.328 0C108.192 0.00266644 111.055 0.00266644 113.922 0C113.922 8.79925 113.924 17.5985 113.922 26.3978C116.122 26.4004 118.321 26.3978 120.524 26.4004C123.337 26.4404 125.87 24.0353 126.139 21.2649C126.603 18.3451 124.596 15.1587 121.62 14.6361C120.044 14.4121 118.444 14.5828 116.86 14.5321C116.858 12.1536 116.86 9.77784 116.858 7.40204C118.703 7.39404 120.548 7.40471 122.393 7.39671C126.262 7.31671 130.043 9.34054 132.31 12.4469C134.587 15.5294 135.347 19.6063 134.603 23.3394C133.552 28.003 129.555 31.5493 125.084 32.9039C122.836 33.6371 120.444 33.6078 118.108 33.5945C113.847 33.5945 109.586 33.5945 105.325 33.5945C105.325 22.3954 105.323 11.1991 105.328 0Z" fill="#555555"/>
<path d="M172.853 0.00266489C175.74 -1.54842e-06 178.628 -1.54842e-06 181.519 0.00266489C181.519 5.33288 181.516 10.6658 181.519 15.9986C183.326 15.9346 185.161 16.1586 186.953 15.828C188.633 15.4814 189.993 14.1881 190.574 12.5963C191.267 10.9297 191.216 9.08989 191.275 7.32204C194.112 7.35138 196.949 7.32471 199.789 7.33538C199.717 10.0978 199.741 13.0469 198.299 15.508C197.064 17.6572 194.734 18.8464 192.456 19.5797C195.152 20.3369 197.776 21.9635 198.981 24.5846C200.384 27.363 199.901 30.5387 199.984 33.5305C197.117 33.5305 194.251 33.5305 191.387 33.5305C191.222 31.0534 191.896 28.3443 190.563 26.0885C189.534 24.2246 187.382 23.286 185.332 23.1527C184.062 23.0994 182.788 23.1474 181.519 23.1314C181.516 26.5977 181.516 30.0641 181.519 33.5278C178.628 33.5305 175.74 33.5305 172.853 33.5278C172.855 22.3528 172.853 11.1777 172.853 0.00266489Z" fill="#555555"/>
<path d="M149.74 7.31142C153.988 6.56481 158.566 6.93812 162.416 8.98861C165.355 10.5511 167.653 13.2816 168.597 16.4813C169.76 20.4356 169.288 24.9713 166.883 28.3816C164.856 31.3121 161.587 33.2106 158.15 33.9812C154.142 34.8691 149.812 34.5891 146.071 32.8319C142.482 31.1654 139.554 27.955 138.576 24.0807C137.57 20.089 138.325 15.5827 140.914 12.3297C143.082 9.60722 146.351 7.92737 149.74 7.31142ZM151.857 13.9589C148.764 14.7321 146.466 17.8439 146.687 21.0329C146.812 23.3047 148.119 25.4859 150.087 26.6378C152.038 27.8563 154.596 27.9683 156.659 26.9551C159.835 25.4885 161.496 21.4596 160.163 18.2012C158.995 14.9454 155.182 12.9803 151.857 13.9589Z" fill="#555555"/>
<path d="M38.9148 13.4895C41.1706 9.85784 45.2955 7.47671 49.5779 7.40738C55.14 7.38872 60.6996 7.40472 66.2591 7.39938C66.2191 9.95117 66.3418 12.5216 66.2004 15.0574C64.3899 17.9372 62.5368 20.7929 60.7129 23.6647C57.9505 23.6567 55.1907 23.678 52.4309 23.654C54.2575 20.6169 56.092 17.5825 57.8945 14.5321C55.6653 14.5268 53.4362 14.5374 51.2044 14.5268C49.1886 14.4601 47.2341 15.628 46.1941 17.3319C44.9462 19.3104 45.0209 22.0381 46.4075 23.9313C47.5247 25.5578 49.4899 26.5018 51.4497 26.4671C56.3853 26.4671 61.3235 26.4644 66.2591 26.4671C66.2591 28.8429 66.2618 31.2187 66.2591 33.5945C61.5048 33.5972 56.7506 33.5945 51.9963 33.5972C50.0445 33.5998 48.0473 33.6185 46.1648 33.0265C42.4398 31.9386 39.3094 29.0535 37.8748 25.4539C36.2963 21.6035 36.6749 17.0066 38.9148 13.4895Z" fill="#555555"/>
<path d="M75.5941 9.92979C77.7699 8.29259 80.479 7.42866 83.1934 7.39933C88.6596 7.39667 94.1258 7.39933 99.5894 7.39933C99.5947 9.94845 99.5814 12.4976 99.5974 15.0467C97.7602 17.9184 95.9284 20.7955 94.0858 23.6646C91.3287 23.662 88.5743 23.6646 85.8172 23.6646C87.6171 20.6089 89.4649 17.5825 91.2781 14.5321C88.8436 14.5374 86.4091 14.5134 83.9747 14.5401C80.7403 14.8014 78.1939 18.1104 78.7325 21.3048C79.0871 24.0699 81.5776 26.3764 84.3773 26.4511C89.4702 26.4857 94.5631 26.4591 99.6534 26.4644C99.6614 28.8402 99.6534 31.216 99.6587 33.5944C94.1818 33.5811 88.705 33.6264 83.2281 33.5731C79.8577 33.5704 76.498 32.2026 74.1409 29.7841C71.3358 27.0617 69.9305 23.0087 70.3572 19.1343C70.7011 15.5106 72.653 12.0736 75.5941 9.92979Z" fill="#555555"/>
</svg>
