<svg width="145" height="50" viewBox="0 0 145 50" fill="none" xmlns="http://www.w3.org/2000/svg">
<path d="M28.8721 41.1001C28.4611 38.7591 27.1052 37.4434 25.0523 36.9921V36.9095C27.5988 36.2528 29.8974 33.9117 29.8974 30.2148C29.8974 24.2997 25.8721 21.7956 19.8364 21.7956H7.39193V49.2311H16.4678V40.6891H18.275C19.3025 40.6891 19.8364 41.3056 19.9995 42.4962L20.3278 45.9876C20.5333 47.4664 20.8193 48.3688 21.4358 49.2333H31.1282C30.3062 48.2482 29.9376 47.2631 29.6495 45.9072L28.8699 41.1023L28.8721 41.1001ZM18.6458 33.7889H16.4678V29.1068H18.6458C19.9593 29.1068 20.4931 29.8462 20.4931 31.4479C20.4931 33.1321 19.8788 33.7889 18.6458 33.7889ZM61.3984 30.7911C60.7416 28.8209 58.8943 27.7934 56.5108 27.7934C53.0417 27.7934 50.4237 30.121 49.3917 34.5082C48.0559 30.1545 44.5131 27.7934 39.6256 27.7934C33.3419 27.7934 29.2764 31.6958 29.2764 38.7189C29.2764 45.7419 33.3419 49.6443 39.6256 49.6443C44.4595 49.6443 47.9777 47.3346 49.347 43.0725C50.3366 47.2788 52.939 49.6443 56.2651 49.6443C59.14 49.6443 60.9471 48.1254 61.6039 45.7843L62.5086 49.2333H70.3939V19.8679H61.3984V30.7911ZM39.6256 43.2356C38.435 43.2356 38.1468 41.8372 38.1468 38.7166C38.1468 35.596 38.435 34.1977 39.6256 34.1977C40.8162 34.1977 41.1043 35.596 41.1043 38.7166C41.1043 41.8372 40.8162 43.2356 39.6256 43.2356ZM61.3984 40.3607C61.3984 41.7166 60.8243 42.6615 59.7967 42.6615C58.7692 42.6615 58.1125 41.4709 58.1125 38.7189C58.1125 35.7613 58.6061 34.325 59.962 34.325C60.9069 34.325 61.3984 35.1872 61.3984 36.5029V40.3629V40.3607ZM80.5666 23.1113C80.5666 25.9862 78.1853 27.5052 75.679 27.5052C73.1727 27.5052 70.7915 25.9862 70.7915 23.1113C70.7915 20.2364 73.1727 18.7175 75.679 18.7175C78.1831 18.7175 80.5666 20.2364 80.5666 23.1113ZM71.16 28.2044H80.1957V49.2333H71.16V28.2044ZM91.291 42.6213H98.2738V49.2333H80.9418V43.3182L87.431 34.7762H81.0245V28.2044H97.9879V34.1597L91.2932 42.6213H91.291ZM136.95 42.8268C136.662 43.0323 136.499 43.115 136.128 43.115C135.554 43.115 135.223 42.7039 135.223 42.0874V35.3123C135.223 30.6705 132.719 27.7956 126.31 27.7956C120.395 27.7956 117.192 30.876 116.946 35.1068L124.954 36.2974C124.914 34.8611 125.283 34.1619 125.859 34.1619C126.353 34.1619 126.558 34.5305 126.558 35.1068V37.1597C125.984 37.0368 124.874 36.9139 123.929 36.9139C119.767 36.9139 116.419 38.8305 116.075 42.6235H109.347L116.041 34.1619V28.2066H99.078V34.7784H105.485L98.9954 43.3205V49.2356H116.327V45.4962C117.053 48.0829 119.133 49.5639 122.202 49.5639C124.666 49.5639 126.679 48.4962 127.458 46.7695C127.664 47.2229 127.95 47.5915 128.321 47.9601C129.388 49.0278 131.032 49.6041 132.88 49.6041C134.604 49.6041 136.043 49.1507 137.191 48.4135L136.945 42.8268H136.95ZM126.558 42.7442C126.558 43.6488 126.067 43.9348 125.531 43.9348C124.874 43.9348 124.505 43.4009 124.505 42.5386C124.505 41.6764 124.957 41.0599 125.819 41.0599C126.107 41.0599 126.393 41.1001 126.558 41.1425V42.7442ZM0.576624 9.23278C0.366647 9.25959 0.208048 9.20597 0.0985918 9.07195C-0.0108641 8.93792 -0.0287345 8.76368 0.0427469 8.547L1.76947 2.97369C1.82531 2.79052 1.90573 2.65202 2.00625 2.56491C2.10901 2.47555 2.23186 2.42194 2.37483 2.40407C2.51332 2.3862 2.64288 2.40854 2.76351 2.47109C2.88413 2.5314 2.99359 2.64532 3.09411 2.81062L6.14101 7.79198C6.26386 7.99079 6.29067 8.16503 6.22366 8.31692C6.15664 8.46882 6.02038 8.55817 5.8171 8.58275C5.64957 8.60285 5.51331 8.57828 5.40832 8.50903C5.30557 8.43978 5.20728 8.32586 5.11346 8.16503L4.53267 7.17322L1.42993 7.55743L1.1172 8.65869C1.06136 8.84187 0.994343 8.97813 0.920628 9.06748C0.844679 9.15683 0.730755 9.21044 0.57439 9.23055L0.576624 9.23278ZM2.52449 3.73318L1.71362 6.5902L4.02337 6.30428L2.54013 3.73095H2.52226L2.52449 3.73318ZM8.45075 8.18736C8.0576 8.23651 7.83869 8.06227 7.78954 7.66466L7.14398 2.45768C7.09483 2.06677 7.2646 1.84786 7.64882 1.79871C8.03526 1.7518 8.25194 1.92157 8.29885 2.31249L8.89527 7.13078C9.77092 6.93867 10.6443 6.82698 11.511 6.80688C11.8483 6.76444 12.036 6.9074 12.0762 7.2313C12.1164 7.5619 11.969 7.74731 11.6317 7.78975C10.5751 7.84113 9.51403 7.97515 8.44628 8.18513L8.45075 8.18736ZM14.2206 7.47255C13.8275 7.52169 13.6086 7.34746 13.5594 6.94984L12.9139 1.74287C12.8647 1.35196 13.0345 1.13304 13.4187 1.0839C13.8029 1.03476 14.0218 1.20676 14.0687 1.59767L14.6652 6.41597C15.5386 6.22386 16.4098 6.11217 17.2809 6.09207C17.6182 6.04962 17.8059 6.19259 17.8461 6.51649C17.8863 6.84709 17.7389 7.03249 17.4016 7.07493C16.4276 7.11291 15.3509 7.25811 14.2162 7.47032L14.2206 7.47255ZM38.3992 11.9982C38.0128 11.9647 37.8363 11.7436 37.872 11.3392L38.0843 8.94015L36.3888 6.04069C36.3196 5.92453 36.295 5.80614 36.3151 5.68328C36.3352 5.56042 36.3933 5.4599 36.4916 5.37949C36.5898 5.3013 36.7216 5.2678 36.8825 5.2812C37.117 5.3013 37.3136 5.44427 37.4655 5.70785L38.7723 7.95952L40.4632 5.97367C40.5727 5.84858 40.6732 5.76146 40.7693 5.71232C40.8653 5.66318 40.9793 5.64307 41.1133 5.65648C41.3478 5.67658 41.4953 5.7771 41.5578 5.9558C41.6181 6.13451 41.569 6.31544 41.4126 6.49415L39.2414 9.04961L39.0292 11.4398C38.9934 11.8441 38.7812 12.0295 38.397 11.996L38.3992 11.9982ZM45.1341 12.6147C44.5176 12.5611 43.9904 12.3757 43.5548 12.063C43.117 11.7503 42.7931 11.337 42.5831 10.821C42.3731 10.3072 42.2972 9.71751 42.3553 9.05184C42.4156 8.3817 42.5943 7.81432 42.8914 7.34746C43.1885 6.8806 43.5772 6.53436 44.0597 6.30428C44.5444 6.07643 45.0939 5.98931 45.7171 6.04516C46.3404 6.101 46.8675 6.28194 47.3031 6.59243C47.7387 6.90293 48.0604 7.31172 48.2704 7.82326C48.4803 8.33479 48.5563 8.92228 48.4982 9.58795C48.4379 10.2581 48.2592 10.8277 47.9643 11.2968C47.6672 11.7659 47.2763 12.1166 46.7938 12.3489C46.3113 12.5812 45.7573 12.6684 45.1363 12.6125L45.1341 12.6147ZM45.2235 11.6185C45.8087 11.6698 46.2823 11.509 46.6442 11.1337C47.006 10.7585 47.2205 10.2112 47.283 9.4919C47.3478 8.76815 47.2361 8.19183 46.948 7.76518C46.6598 7.33852 46.2197 7.09951 45.63 7.0459C45.0448 6.99452 44.5712 7.15312 44.2093 7.52169C43.8474 7.89027 43.6352 8.43755 43.5705 9.16353C43.5057 9.88281 43.6196 10.4591 43.91 10.8925C44.2004 11.3258 44.6382 11.5693 45.2235 11.6207V11.6185ZM52.6888 13.2849C51.8132 13.2067 51.1654 12.9208 50.7432 12.4226C50.321 11.9267 50.1512 11.2298 50.2294 10.3363L50.5176 7.08387C50.5533 6.69072 50.7633 6.51202 51.1497 6.54553C51.5362 6.57903 51.7126 6.79348 51.6769 7.18662L51.3887 10.4301C51.3374 11.0042 51.4312 11.4465 51.668 11.7547C51.9047 12.0652 52.2733 12.2417 52.7759 12.2864C53.7968 12.3757 54.3574 11.8486 54.458 10.7004L54.7461 7.45691C54.7819 7.06377 54.9918 6.88506 55.3783 6.9208C55.758 6.95431 55.9323 7.16652 55.8965 7.55967L55.6084 10.8121C55.5302 11.7056 55.242 12.3601 54.7484 12.7756C54.2569 13.1911 53.5689 13.3608 52.6866 13.2826L52.6888 13.2849ZM81.9336 8.52913C81.2724 8.61178 80.6894 8.547 80.1823 8.33926C79.6775 8.12929 79.2665 7.79645 78.9538 7.33629C78.6388 6.87836 78.4422 6.31321 78.3573 5.64531C78.2747 4.9774 78.3305 4.38545 78.5226 3.86497C78.7147 3.34673 79.0297 2.92455 79.4698 2.59841C79.9098 2.27228 80.4593 2.069 81.1205 1.98635C81.4511 1.94614 81.7817 1.94838 82.1101 1.99082C82.4407 2.0355 82.7356 2.12038 82.9947 2.24771C83.1645 2.33036 83.2717 2.43981 83.3208 2.57831C83.37 2.71457 83.3655 2.84636 83.3141 2.97369C83.2627 3.09878 83.1734 3.19037 83.0461 3.24621C82.9187 3.30206 82.7668 3.28642 82.5904 3.19707C82.3893 3.10102 82.1771 3.03847 81.9537 3.00943C81.7304 2.98262 81.507 2.98262 81.2858 3.00943C80.6425 3.08985 80.1756 3.3445 79.8875 3.77339C79.5993 4.20228 79.4988 4.77636 79.5882 5.49118C79.6775 6.20822 79.9143 6.73987 80.2985 7.08834C80.6827 7.43681 81.1987 7.57307 81.8421 7.49265C82.0721 7.46362 82.2933 7.40777 82.5077 7.32289C82.7222 7.238 82.9232 7.12408 83.1064 6.97888C83.2561 6.85602 83.3968 6.80465 83.5286 6.82475C83.6581 6.84485 83.7631 6.9074 83.8391 7.01015C83.915 7.11291 83.9508 7.23353 83.9418 7.36756C83.9329 7.50382 83.8681 7.63115 83.743 7.74954C83.5241 7.95505 83.2516 8.12258 82.9299 8.25885C82.6082 8.39287 82.2754 8.48223 81.9314 8.52467L81.9336 8.52913ZM85.9411 8.01313C85.7311 8.03993 85.5725 7.98632 85.463 7.85229C85.3536 7.71827 85.3357 7.54403 85.4072 7.32735L87.1339 1.75404C87.1898 1.57087 87.2702 1.43237 87.3707 1.34525C87.4734 1.2559 87.5963 1.20229 87.7393 1.18442C87.8822 1.16655 88.0073 1.18889 88.1279 1.25143C88.2486 1.31175 88.358 1.42567 88.4585 1.59097L91.5054 6.57233C91.6283 6.77114 91.6551 6.94537 91.5881 7.09727C91.5211 7.24917 91.3848 7.33852 91.1815 7.36309C91.014 7.3832 90.8777 7.35863 90.7728 7.28938C90.67 7.22013 90.5717 7.10621 90.4779 6.94537L89.8971 5.95357L86.7944 6.33778L86.4816 7.43904C86.4258 7.62221 86.3588 7.75848 86.2851 7.84783C86.2091 7.93718 86.0952 7.99079 85.9388 8.01089L85.9411 8.01313ZM87.8889 2.51129L87.0781 5.36832L89.3878 5.08239L87.9046 2.50906H87.8867L87.8889 2.51129ZM93.7772 7.04366C93.4153 7.08834 93.2121 6.92527 93.1652 6.55223L92.4995 1.18219C92.4771 0.994548 92.504 0.847118 92.5866 0.735428C92.6693 0.623738 92.7832 0.561192 92.9328 0.541088C93.0713 0.523218 93.1786 0.53662 93.2523 0.579063C93.3282 0.621505 93.422 0.697454 93.5337 0.804676L97.2731 4.58425L96.7817 0.623738C96.737 0.257396 96.8934 0.0518872 97.2552 0.00721135C97.6171 -0.0374645 97.8092 0.125602 97.8561 0.491945L98.5285 5.90666C98.5486 6.07419 98.524 6.21269 98.4503 6.31991C98.3788 6.42713 98.2694 6.48968 98.1264 6.50755C97.9835 6.52542 97.8762 6.51202 97.7869 6.46734C97.6975 6.42267 97.5992 6.34672 97.4875 6.23726L93.7482 2.45098L94.2396 6.42043C94.2865 6.79348 94.1324 7.00122 93.7772 7.0459V7.04366ZM119.75 12.3199C119.343 12.2998 118.952 12.235 118.572 12.1255C118.193 12.0161 117.864 11.8642 117.587 11.6676C117.453 11.5693 117.373 11.4532 117.35 11.3191C117.326 11.1851 117.344 11.06 117.402 10.9439C117.458 10.8277 117.545 10.7518 117.659 10.7116C117.773 10.6713 117.9 10.7004 118.041 10.7987C118.3 10.9684 118.575 11.098 118.869 11.1851C119.162 11.2722 119.473 11.3236 119.799 11.3392C120.277 11.3616 120.63 11.299 120.855 11.1494C121.081 10.9997 121.199 10.7964 121.213 10.5418C121.224 10.3296 121.155 10.1598 121.005 10.0302C120.857 9.90292 120.596 9.78899 120.225 9.69071L119.236 9.43382C118.11 9.13673 117.569 8.52467 117.614 7.59764C117.634 7.19779 117.755 6.85602 117.983 6.56786C118.21 6.28194 118.514 6.06526 118.898 5.92006C119.283 5.77487 119.718 5.71455 120.21 5.73689C120.574 5.75476 120.916 5.81731 121.239 5.92453C121.561 6.03175 121.849 6.17918 122.102 6.36682C122.218 6.45841 122.285 6.56563 122.303 6.69072C122.321 6.81581 122.303 6.92974 122.24 7.03473C122.18 7.13748 122.091 7.20673 121.972 7.24024C121.852 7.27374 121.715 7.24024 121.563 7.14418C121.347 7.00569 121.123 6.90517 120.895 6.83815C120.668 6.77337 120.42 6.73316 120.154 6.71976C119.736 6.69966 119.406 6.77114 119.16 6.93421C118.914 7.09951 118.785 7.32289 118.771 7.60658C118.76 7.82549 118.825 8.00196 118.963 8.13822C119.102 8.27448 119.345 8.38841 119.694 8.47776L120.674 8.73464C121.269 8.89101 121.704 9.11215 121.983 9.39808C122.265 9.68401 122.394 10.0548 122.372 10.5105C122.354 10.8925 122.233 11.2231 122.015 11.5045C121.793 11.786 121.492 11.996 121.105 12.1389C120.719 12.2797 120.268 12.34 119.754 12.3132L119.75 12.3199ZM124.604 12.4651C124.208 12.445 124.023 12.2372 124.043 11.8374L124.298 6.5969C124.318 6.20376 124.521 6.01612 124.907 6.03399C125.294 6.05186 125.479 6.2596 125.461 6.65275L125.225 11.5023C126.064 11.4755 126.947 11.5247 127.858 11.6296C128.198 11.6453 128.359 11.8173 128.343 12.1456C128.327 12.4785 128.149 12.6371 127.809 12.6192C126.837 12.4919 125.754 12.4517 124.604 12.4628V12.4651ZM130.398 12.8203C130.012 12.8024 129.826 12.5924 129.846 12.1926L130.108 6.84262C130.128 6.44277 130.331 6.2529 130.717 6.27077C131.106 6.28864 131.289 6.49862 131.269 6.89846L131.008 12.2484C130.988 12.6482 130.784 12.8381 130.396 12.8203H130.398ZM136.036 13.1129C135.37 13.0794 134.808 12.9185 134.345 12.6259C133.883 12.3333 133.537 11.9334 133.306 11.4286C133.076 10.9238 132.976 10.334 133.009 9.66167C133.043 8.9893 133.197 8.41521 133.476 7.93718C133.753 7.45915 134.137 7.09727 134.627 6.84932C135.116 6.6036 135.692 6.49638 136.358 6.52766C136.691 6.54329 137.017 6.60137 137.332 6.70189C137.649 6.80241 137.924 6.93644 138.158 7.10621C138.31 7.2179 138.399 7.34299 138.422 7.48819C138.446 7.63115 138.422 7.76071 138.348 7.87463C138.277 7.98856 138.172 8.06227 138.038 8.09578C137.904 8.12929 137.756 8.08684 137.598 7.97069C137.417 7.84113 137.218 7.74284 137.001 7.67806C136.787 7.61328 136.566 7.5753 136.342 7.56414C135.694 7.53286 135.192 7.70486 134.834 8.07791C134.477 8.45319 134.28 8.99823 134.245 9.71975C134.209 10.4413 134.352 11.0064 134.671 11.4152C134.991 11.8262 135.475 12.0451 136.123 12.0764C136.353 12.0876 136.583 12.0697 136.809 12.0228C137.035 11.9759 137.251 11.8977 137.457 11.786C137.627 11.69 137.772 11.6654 137.899 11.7078C138.024 11.7503 138.116 11.8284 138.174 11.9446C138.232 12.0585 138.245 12.1836 138.214 12.3154C138.183 12.4472 138.096 12.5611 137.953 12.6572C137.7 12.8203 137.405 12.9409 137.066 13.0191C136.726 13.0972 136.382 13.1263 136.036 13.1106V13.1129ZM140.513 13.2402C140.102 13.2201 139.905 13.0034 139.925 12.5924L140.178 7.42341C140.198 7.01239 140.414 6.81581 140.825 6.83592L144.136 6.93197C144.451 6.94761 144.6 7.10621 144.585 7.40777C144.569 7.70933 144.404 7.8724 144.089 7.85676L141.279 7.78528L141.194 9.54774H143.743C144.058 9.55891 144.207 9.72198 144.192 10.0302C144.176 10.3385 144.011 10.4859 143.698 10.4703H141.149L141.058 12.3355L143.801 12.4695C144.116 12.4852 144.265 12.6483 144.25 12.9565C144.234 13.2648 144.069 13.4122 143.756 13.3966L140.515 13.238L140.513 13.2402Z" fill="#555555"/>
</svg>
