<svg width="140" height="30" viewBox="0 0 140 30" fill="none" xmlns="http://www.w3.org/2000/svg">
<path d="M4.37986 11.8952C4.37986 11.9738 4.39949 12.0915 4.43874 12.2289C4.478 12.3663 4.63504 12.6019 4.90985 12.9356C5.18466 13.2693 5.53798 13.5637 5.98946 13.8385C6.44093 14.0937 7.14758 14.3489 8.10942 14.5452C9.07125 14.7611 10.1901 14.8592 11.4857 14.8592C13.2719 14.8592 14.7834 14.6237 16.0396 14.1526C17.2959 13.6815 17.924 12.9945 17.924 12.0915C17.924 11.5027 17.61 11.0512 17.0015 10.6978C16.393 10.3445 15.5882 10.109 14.6067 9.95193C13.6252 9.81453 12.5456 9.69676 11.3482 9.61824C10.1509 9.53972 8.9731 9.40231 7.77572 9.26491C6.57833 9.10787 5.49872 8.91159 4.51726 8.63678C3.5358 8.3816 2.731 7.94975 2.10286 7.36087C1.49435 6.772 1.18029 6.02609 1.18029 5.12314C1.18029 3.49391 2.04397 2.23764 3.79098 1.35432C5.53798 0.471002 7.93275 0.0195312 11.0145 0.0195312C12.8793 0.0195312 14.5086 0.19619 15.8826 0.529887C17.2567 0.863585 18.2774 1.25617 18.9251 1.72727C19.5729 2.19838 20.0833 2.66948 20.4759 3.14058C20.8488 3.61169 21.0844 4.0239 21.1432 4.35759L21.2218 4.86796H17.3548C17.3352 4.80907 17.2959 4.73055 17.2567 4.63241C17.1978 4.53426 17.0407 4.3576 16.7659 4.10242C16.4911 3.84724 16.1574 3.63131 15.7256 3.43502C15.3134 3.23873 14.6852 3.06206 13.8608 2.90503C13.0364 2.748 12.0942 2.66948 11.0342 2.66948C9.1694 2.66948 7.6972 2.90503 6.61759 3.39576C5.53798 3.88649 4.98836 4.39685 4.98836 4.9661V4.98573C4.98836 5.43721 5.30243 5.81016 5.91094 6.06534C6.51945 6.32052 7.32425 6.51681 8.30571 6.61496C9.28717 6.71311 10.3668 6.79163 11.5642 6.87014C12.7616 6.94866 13.9589 7.08606 15.1367 7.26273C16.3341 7.43939 17.4137 7.69457 18.3952 8.02827C19.3766 8.36197 20.1618 8.8527 20.7899 9.53972C21.3984 10.2267 21.7125 11.0512 21.7125 12.0719C21.7125 13.1122 21.3984 13.9956 20.7703 14.7611C20.1422 15.507 19.2981 16.0763 18.2577 16.4689C17.2174 16.8614 16.1182 17.1362 14.9993 17.2933C13.8804 17.4699 12.683 17.5485 11.4268 17.5485C10.0331 17.5485 8.75718 17.4503 7.59906 17.2344C6.44093 17.0185 5.49872 16.7633 4.75281 16.4492C4.0069 16.1352 3.35913 15.7622 2.80951 15.35C2.2599 14.9378 1.82805 14.5452 1.53361 14.1526C1.23917 13.7796 1.02325 13.4067 0.846588 13.0337C0.669925 12.6804 0.571779 12.4056 0.53252 12.2486C0.493262 12.0719 0.473633 11.9737 0.473633 11.9149H4.37986V11.8952Z" fill="#555555"/>
<path d="M22.5369 8.77428C22.5369 6.22247 23.6557 4.12215 25.9131 2.47329C28.1508 0.82443 31.0363 0 34.55 0C38.0636 0 40.9295 0.82443 43.1672 2.47329C45.405 4.12215 46.5238 6.22247 46.5238 8.77428C46.5238 11.3065 45.405 13.4068 43.1672 15.0556C40.9295 16.7045 38.0636 17.5289 34.55 17.5289C31.0363 17.5289 28.1705 16.7045 25.9131 15.0556C23.6557 13.4068 22.5369 11.3065 22.5369 8.77428ZM26.3646 8.77428C26.3646 10.482 27.1301 11.8757 28.6416 12.9749C30.153 14.0742 32.1159 14.6042 34.5303 14.6042C36.984 14.6042 38.9469 14.0546 40.4584 12.9749C41.9306 11.8757 42.6765 10.482 42.6765 8.77428C42.6765 7.06653 41.9306 5.65322 40.4388 4.55399C38.9469 3.45475 36.984 2.90513 34.55 2.90513C32.1356 2.90513 30.1726 3.45475 28.6612 4.57362C27.1301 5.69248 26.3646 7.08616 26.3646 8.77428Z" fill="#555555"/>
<path d="M90.1011 0.273438V17.2528H85.7434L70.884 3.63004V17.2528H66.5067L51.6473 3.63004V17.2528H47.957V0.273438H52.3147L67.1934 14.0532V0.273438H71.5514L86.4304 14.0532V0.273438H90.1011Z" fill="#555555"/>
<path d="M91.5731 8.77428C91.5731 6.22247 92.6919 4.12215 94.9493 2.47329C97.187 0.82443 100.073 0 103.586 0C107.1 0 109.966 0.82443 112.203 2.47329C114.441 4.12215 115.56 6.22247 115.56 8.77428C115.56 11.3065 114.441 13.4068 112.203 15.0556C109.966 16.7045 107.1 17.5289 103.586 17.5289C100.073 17.5289 97.2067 16.7045 94.9493 15.0556C92.6919 13.4068 91.5731 11.3065 91.5731 8.77428ZM95.4008 8.77428C95.4008 10.482 96.1663 11.8757 97.6778 12.9749C99.1892 14.0742 101.152 14.6042 103.567 14.6042C106.02 14.6042 107.983 14.0546 109.495 12.9749C110.967 11.8757 111.713 10.482 111.713 8.77428C111.713 7.06653 110.967 5.65322 109.475 4.55399C107.983 3.45475 106.02 2.90513 103.586 2.90513C101.172 2.90513 99.2088 3.45475 97.6974 4.57362C96.1663 5.69248 95.4008 7.08616 95.4008 8.77428Z" fill="#555555"/>
<path d="M116.993 0.273438H121.35L136.229 14.0728V0.273438H139.9V17.2724H135.542L120.683 3.63004V17.2724H116.993V0.273438Z" fill="#555555"/>
<path d="M33.4509 25.3609V27.1668H37.5338V25.3609H38.2208V29.5223H37.5338V27.7164H33.4509V29.5223H32.7639V25.3609H33.4509Z" fill="#555555"/>
<path d="M42.127 25.9108C42.6766 25.4986 43.3833 25.3023 44.2666 25.3023C45.1499 25.3023 45.8566 25.4986 46.4062 25.9108C46.9362 26.323 47.211 26.8334 47.211 27.4419C47.211 28.0504 46.9362 28.5607 46.4062 28.9729C45.8762 29.3852 45.1499 29.5814 44.2666 29.5814C43.3833 29.5814 42.6766 29.3852 42.127 28.9729C41.5774 28.5607 41.3026 28.0504 41.3026 27.4419C41.3026 26.8137 41.5774 26.3034 42.127 25.9108ZM42.6178 28.5804C43.03 28.8944 43.56 29.0515 44.2666 29.0515C44.9536 29.0515 45.5033 28.8944 45.9155 28.5804C46.3081 28.2663 46.524 27.8933 46.524 27.4419C46.524 26.9904 46.3277 26.6174 45.9155 26.3034C45.5229 25.9893 44.9733 25.8323 44.2666 25.8323C43.5796 25.8323 43.03 25.9893 42.6374 26.3034C42.2252 26.6174 42.0289 26.9904 42.0289 27.4419C42.0289 27.8933 42.2055 28.2663 42.6178 28.5804Z" fill="#555555"/>
<path d="M50.2731 25.3609H51.0779L53.5119 29.0316L55.946 25.3609H56.7508V29.5223H56.0637V26.2246L53.8456 29.5223H53.1782L50.9601 26.2246V29.5223H50.2731V25.3609Z" fill="#555555"/>
<path d="M60.0485 25.3609H64.7596V25.8909H60.7356V27.1668H64.4847V27.6968H60.7356V28.9923H64.8184V29.5223H60.0485V25.3609Z" fill="#555555"/>
<path d="M75.7321 25.3612C76.4781 25.3612 77.0669 25.5379 77.538 25.9108C78.0091 26.2838 78.2447 26.7941 78.2447 27.4419C78.2447 28.07 78.0091 28.5804 77.538 28.9533C77.0669 29.3263 76.4781 29.503 75.7321 29.503H72.6896V25.3416H75.7321V25.3612ZM75.7321 28.9926C76.321 28.9926 76.7921 28.8356 77.0866 28.5411C77.4006 28.2467 77.538 27.8737 77.538 27.4419C77.538 26.9512 77.381 26.5782 77.0866 26.3034C76.7921 26.0286 76.3407 25.8912 75.7125 25.8912H73.357V28.9926H75.7321Z" fill="#555555"/>
<path d="M81.3266 25.3609H86.0376V25.8909H82.0136V27.1668H85.7628V27.6968H82.0136V28.9923H86.0965V29.5223H81.3266V25.3609Z" fill="#555555"/>
<path d="M88.8642 27.4419C88.8642 26.8137 89.139 26.2837 89.7083 25.8911C90.2579 25.4986 90.9842 25.3023 91.8478 25.3023C92.2797 25.3023 92.6723 25.3415 93.0256 25.4397C93.3789 25.5378 93.6341 25.636 93.8304 25.7537C94.0071 25.8715 94.1641 26.0089 94.3015 26.166C94.4389 26.323 94.5174 26.4408 94.5371 26.4997C94.5763 26.5782 94.5959 26.6371 94.5959 26.6763H93.8697C93.8697 26.6567 93.85 26.6174 93.8304 26.5782C93.8108 26.5389 93.7519 26.48 93.6341 26.3622C93.5163 26.2445 93.4182 26.1856 93.2808 26.1071C93.1434 26.0286 92.9471 25.9697 92.6919 25.8911C92.4367 25.8323 92.1423 25.793 91.8282 25.793C91.1608 25.793 90.6112 25.95 90.199 26.2445C89.7868 26.5389 89.5708 26.9315 89.5708 27.4026C89.5708 27.8541 89.7868 28.2467 90.199 28.5411C90.6112 28.8355 91.1608 28.9926 91.8282 28.9926C92.1423 28.9926 92.4367 28.9729 92.6919 28.9141C92.9471 28.8552 93.1434 28.7766 93.2808 28.6981C93.4182 28.6196 93.536 28.5215 93.6341 28.443C93.7322 28.3644 93.7911 28.2859 93.8304 28.227L93.8697 28.1289H94.5763C94.5763 28.1681 94.5567 28.2074 94.5174 28.3055C94.4782 28.3841 94.3996 28.5018 94.2819 28.6589C94.1641 28.8159 94.0071 28.9533 93.8108 29.0711C93.6341 29.1889 93.3593 29.3066 93.006 29.4048C92.6526 29.5029 92.2601 29.5422 91.8282 29.5422C90.9449 29.5422 90.2382 29.3459 89.6886 28.9533C89.139 28.6 88.8642 28.0896 88.8642 27.4419Z" fill="#555555"/>
<path d="M98.2274 25.9108C98.777 25.4986 99.4836 25.3023 100.367 25.3023C101.25 25.3023 101.957 25.4986 102.507 25.9108C103.037 26.323 103.311 26.8334 103.311 27.4419C103.311 28.0504 103.037 28.5607 102.507 28.9729C101.977 29.3852 101.25 29.5814 100.367 29.5814C99.4836 29.5814 98.777 29.3852 98.2274 28.9729C97.6777 28.5607 97.4029 28.0504 97.4029 27.4419C97.4029 26.8137 97.6777 26.3034 98.2274 25.9108ZM98.7181 28.5804C99.1303 28.8944 99.6603 29.0515 100.367 29.0515C101.054 29.0515 101.604 28.8944 102.016 28.5804C102.408 28.2663 102.624 27.8933 102.624 27.4419C102.624 26.9904 102.428 26.6174 102.016 26.3034C101.623 25.9893 101.074 25.8323 100.367 25.8323C99.6799 25.8323 99.1303 25.9893 98.7377 26.3034C98.3255 26.6174 98.1292 26.9904 98.1292 27.4419C98.1292 27.8933 98.3059 28.2663 98.7181 28.5804Z" fill="#555555"/>
<path d="M106.393 25.3609H109.377C110.005 25.3609 110.496 25.4787 110.829 25.7143C111.163 25.9498 111.32 26.2639 111.32 26.6761C111.32 26.9313 111.261 27.1472 111.124 27.3435C110.986 27.5398 110.79 27.6968 110.515 27.8146C110.731 27.8342 110.888 27.8735 110.986 27.9716C111.085 28.0698 111.143 28.2072 111.143 28.4427V29.5223H110.476V28.4427C110.476 28.3053 110.437 28.1875 110.358 28.1286C110.28 28.0501 110.142 28.0305 109.946 28.0305H107.1V29.5223H106.413V25.3609H106.393ZM107.061 27.5005H109.377C109.809 27.5005 110.123 27.422 110.339 27.265C110.555 27.1079 110.653 26.9116 110.653 26.6761C110.653 26.4209 110.555 26.2442 110.339 26.1068C110.142 25.9694 109.809 25.8909 109.377 25.8909H107.08V27.5005H107.061Z" fill="#555555"/>
</svg>
