<svg width="101" height="69" viewBox="0 0 101 69" fill="none" xmlns="http://www.w3.org/2000/svg">
<path d="M32.29 8.56951C31.9361 8.35124 31.5268 8.23979 31.1111 8.24852C30.2607 8.25874 29.4469 8.59582 28.8384 9.18987C28.4687 9.55685 28.2115 10.0218 28.0971 10.5299C28.015 10.9243 28.0453 11.4914 28.395 11.7937C28.5735 11.9506 28.8398 12.0254 29.2068 12.0254H29.2299C29.8995 11.9979 30.5516 11.8034 31.127 11.4598C31.589 11.2007 32.2137 10.766 32.5663 10.1643C32.5966 10.114 32.6239 10.0621 32.6498 10.0103C32.7695 9.76631 32.799 9.48783 32.7332 9.22415C32.6673 8.96047 32.5103 8.72858 32.29 8.56951Z" fill="#555555"/>
<path d="M40.6469 21.7729C40.7201 21.7733 40.7918 21.7519 40.8528 21.7114C40.9138 21.6709 40.9614 21.6131 40.9894 21.5454C41.4601 20.4515 42.364 19.2669 43.0391 18.4652C43.186 18.2927 43.2852 18.0847 43.3266 17.8619C43.368 17.6392 43.3503 17.4094 43.2752 17.1957C43.2056 16.9874 43.0825 16.8011 42.9184 16.6554C42.7542 16.5096 42.5546 16.4095 42.3396 16.3651L42.3021 16.3579C42.2198 16.3406 42.1358 16.3319 42.0517 16.332C41.813 16.3328 41.5792 16.3994 41.376 16.5246C41.1728 16.6498 41.0081 16.8288 40.9002 17.0416C40.0279 18.8034 40.1344 20.5652 40.2741 21.4576C40.287 21.5466 40.3321 21.6278 40.4008 21.6858C40.4694 21.7439 40.557 21.7748 40.6469 21.7729Z" fill="#555555"/>
<path d="M83.1415 68.0525C79.8655 68.0528 76.663 67.0815 73.9391 65.2615C71.2153 63.4415 69.0923 60.8545 67.8389 57.8279C66.5854 54.8012 66.2577 51.4708 66.8973 48.2578C67.5369 45.0449 69.1149 42.0938 71.4319 39.7779C73.7489 37.4619 76.7006 35.8851 79.9138 35.247C83.127 34.6088 86.4573 34.9379 89.4835 36.1927C92.5096 37.4475 95.0956 39.5715 96.9144 42.2962C98.7332 45.0209 99.7031 48.2238 99.7014 51.4997C99.6942 55.8888 97.9469 60.096 94.8427 63.1989C91.7385 66.3017 87.5306 68.0472 83.1415 68.0525ZM83.1415 35.219C79.9228 35.2187 76.7763 36.1729 74.1 37.9609C71.4236 39.7489 69.3376 42.2904 68.1057 45.2639C66.8737 48.2375 66.5513 51.5096 67.179 54.6665C67.8068 57.8233 69.3566 60.7231 71.6324 62.9992C73.9082 65.2752 76.8079 66.8252 79.9647 67.4533C83.1215 68.0813 86.3936 67.7591 89.3673 66.5275C92.341 65.2958 94.8827 63.21 96.6709 60.5338C98.4591 57.8576 99.4136 54.7112 99.4136 51.4925C99.4086 47.1783 97.6927 43.0422 94.6422 39.9914C91.5917 36.9406 87.4557 35.2243 83.1415 35.219Z" fill="#555555"/>
<path d="M83.2392 62.7439C80.6781 62.7438 78.1961 61.8557 76.2164 60.2308C74.2366 58.6059 72.8816 56.3448 72.382 53.8328C71.8825 51.3208 72.2695 48.7133 73.477 46.4546C74.6844 44.1959 76.6378 42.4258 79.0041 41.4459C81.3704 40.4659 84.0033 40.3368 86.4541 41.0805C88.9049 41.8242 91.0221 43.3947 92.4448 45.5243C93.8675 47.654 94.5077 50.2112 94.2564 52.76C94.0051 55.3088 92.8778 57.6916 91.0665 59.5025C90.0408 60.5332 88.8209 61.3504 87.4774 61.9068C86.1339 62.4632 84.6934 62.7477 83.2392 62.7439ZM83.2392 40.7849C81.0856 40.7846 78.9802 41.423 77.1893 42.6193C75.3985 43.8156 74.0026 45.5161 73.1782 47.5057C72.3539 49.4954 72.138 51.6848 72.558 53.7971C72.978 55.9095 74.0149 57.8498 75.5377 59.3728C77.0605 60.8958 79.0007 61.933 81.113 62.3532C83.2252 62.7735 85.4147 62.5579 87.4045 61.7338C89.3942 60.9097 91.0949 59.5141 92.2915 57.7234C93.488 55.9327 94.1266 53.8274 94.1266 51.6737C94.1221 48.788 92.9734 46.0218 90.9325 43.9817C88.8916 41.9416 86.125 40.7941 83.2392 40.7906V40.7849Z" fill="#555555"/>
<path d="M72.1892 44.4302C72.7851 44.744 72.7261 45.219 72.3576 45.9214C71.7358 47.1045 71.0809 46.7591 70.8477 46.6411C70.9053 46.5331 70.9743 46.4021 71.1356 46.1056C71.4983 46.2971 71.7214 46.0077 71.8855 45.6954C72.0927 45.301 72.0884 45.0894 71.9027 44.9915C71.7387 44.9052 71.6249 45.0549 71.3083 45.4896C70.8247 46.1502 70.5066 46.3949 70.0676 46.1646C69.7293 45.9861 69.4702 45.5299 69.8819 44.7468C70.3713 43.8141 70.9902 43.9034 71.3558 44.0948L71.0679 44.6418C70.9009 44.5554 70.6159 44.4978 70.3482 44.9944C70.1366 45.3989 70.2345 45.5702 70.3482 45.6292C70.4619 45.6882 70.5972 45.5788 70.8736 45.2118C71.2449 44.7152 71.6451 44.1452 72.1892 44.4302Z" fill="#555555"/>
<path d="M71.4094 42.084L71.0337 41.9789L71.4223 40.9238L71.8714 41.0678L71.4094 42.084ZM73.8016 41.704C74.4652 42.2797 74.4378 43.0397 73.9311 43.627C73.4245 44.2142 72.6847 44.3596 72.0096 43.7709C71.3345 43.1822 71.3719 42.4352 71.8815 41.8479C72.391 41.2606 73.1395 41.1297 73.8016 41.704ZM73.4302 42.1358C73.0359 41.7932 72.63 41.8911 72.3277 42.2409C72.0254 42.5906 71.9808 42.9994 72.3809 43.3463C72.7811 43.6932 73.1812 43.591 73.4835 43.2412C73.7858 42.8914 73.8174 42.4697 73.4374 42.1343L73.4302 42.1358Z" fill="#555555"/>
<path d="M72.9912 40.6192L75.0754 38.9941L75.405 39.426L74.5961 40.0535L75.929 41.7707L75.4641 42.132L74.1312 40.4162L73.3208 41.0438L72.9912 40.6192Z" fill="#555555"/>
<path d="M78.9571 40.0437L78.4131 40.3215L78.0676 39.9962L76.8341 40.6252L76.8945 41.0959L76.3504 41.3722L75.9834 38.5194L76.8629 38.0703L78.9571 40.0437ZM77.6516 39.6032L76.7319 38.7396L76.6009 38.8058L76.7607 40.0595L77.6516 39.6032Z" fill="#555555"/>
<path d="M80.5648 36.878L81.1405 36.7441L81.7537 39.3854L80.9217 39.5768L79.324 37.9518L79.2578 37.9662L79.7011 39.8575L79.1254 39.9914L78.5122 37.3501L79.288 37.1688L79.3398 37.1572L80.9361 38.7808L81.0038 38.765L80.5648 36.878Z" fill="#555555"/>
<path d="M84.8343 38.018C84.8199 38.9089 84.2096 39.3854 83.4208 39.3738C82.632 39.3623 82.0361 38.8801 82.0505 37.9733C82.0649 37.0665 82.6767 36.6045 83.4654 36.6175C84.2542 36.6304 84.8487 37.1241 84.8343 38.018ZM84.2585 38.0093C84.2672 37.4796 83.926 37.2263 83.4568 37.2191C82.9876 37.2119 82.6378 37.4436 82.6292 37.982C82.6205 38.5203 82.9617 38.765 83.4309 38.7722C83.9001 38.7794 84.2485 38.5304 84.2571 38.0093H84.2585Z" fill="#555555"/>
<path d="M89.2068 39.8875C88.9621 40.5151 88.4871 40.5107 87.7444 40.2229C86.4994 39.7378 86.7685 39.0484 86.8635 38.8037L87.4263 39.0239C87.2824 39.4053 87.5904 39.5996 87.9186 39.7234C88.3345 39.8846 88.5447 39.8558 88.621 39.6601C88.6872 39.4888 88.526 39.3909 88.0596 39.1261C87.3486 38.7202 87.0693 38.4309 87.2493 37.9746C87.3932 37.6191 87.8135 37.3096 88.6368 37.6306C89.6185 38.012 89.5998 38.6381 89.4501 39.0224L88.8743 38.7979C88.942 38.6223 88.9664 38.3315 88.4425 38.1286C88.0107 37.9631 87.8668 38.0782 87.8121 38.2006C87.7574 38.3229 87.8898 38.4424 88.2856 38.6756C88.8167 38.9821 89.4285 39.3161 89.2068 39.8875Z" fill="#555555"/>
<path d="M89.1611 40.8818L90.5242 38.5371L91.0338 38.8336L89.6707 41.1784L89.1611 40.8818Z" fill="#555555"/>
<path d="M93.4646 40.6214L93.1336 41.0388L91.8511 40.0169L91.5042 40.4487L92.7867 41.4706L92.4542 41.8866L91.1717 40.8647L90.8292 41.2965L92.1116 42.3184L91.7748 42.7359L90.4938 41.7139L90.0317 41.3469L91.7172 39.2324L93.4646 40.6214Z" fill="#555555"/>
<path d="M93.8764 40.9902L95.5777 43.0054L95.1661 43.3537L94.5054 42.5692L92.8444 43.9712L92.4644 43.5207L94.1254 42.1187L93.4647 41.3357L93.8764 40.9902Z" fill="#555555"/>
<path d="M97.0818 45.7386L96.6082 45.9833L95.8525 44.531L95.3588 44.7872L96.1145 46.2409L95.6424 46.4871L94.8839 45.0405L94.3973 45.2938L95.153 46.7476L94.6751 46.9966L93.646 45.0218L96.0512 43.7695L97.0818 45.7386Z" fill="#555555"/>
<path d="M69.0427 53.3087C68.9407 53.3192 68.8375 53.3078 68.7402 53.2751C68.6429 53.2425 68.5537 53.1894 68.4786 53.1195C68.4035 53.0496 68.3442 52.9644 68.3047 52.8697C68.2652 52.7749 68.2464 52.6729 68.2496 52.5703C68.241 52.2752 68.2021 50.9092 68.2021 50.9092L70.9125 50.8301L70.9427 51.8765C70.9427 51.9528 70.9427 52.0622 70.9528 52.209C70.9686 52.7732 70.7527 53.1446 70.2086 53.1604C69.9121 53.1691 69.7466 53.0798 69.6516 52.9128C69.5724 53.1561 69.4069 53.2986 69.0427 53.3087ZM69.0902 52.7329C69.345 52.7243 69.3781 52.5616 69.3781 52.2896C69.3781 52.1068 69.3594 51.6275 69.3551 51.4692L68.7606 51.4864L68.775 51.9787C68.775 52.2119 68.775 52.0334 68.775 52.232C68.7865 52.5242 68.811 52.7372 69.0902 52.73V52.7329ZM70.3857 51.4375L69.8099 51.4533C69.8171 51.6707 69.8243 51.9499 69.8286 52.0996C69.8373 52.3716 69.8531 52.5933 70.128 52.5861C70.4029 52.5789 70.4058 52.3457 70.3972 52.0579C70.4058 51.9038 70.3943 51.5167 70.3914 51.4361L70.3857 51.4375Z" fill="#555555"/>
<path d="M71.5993 55.9203L69.5841 55.2308L68.7076 55.4381L68.5723 54.8623L69.4359 54.6565L70.9429 53.125L71.0969 53.7727L70.0635 54.7731L70.0793 54.8364L71.451 55.2682L71.5993 55.9203Z" fill="#555555"/>
<path d="M73.4831 59.2047L73.8659 59.7719L71.0721 60.4829L70.5396 59.697L72.2351 57.3652L72.618 57.9309L71.2362 59.7632L71.2693 59.8107L73.4831 59.2047Z" fill="#555555"/>
<path d="M72.0771 61.7177L74.0577 59.8652L74.4607 60.297L72.4802 62.1495L72.0771 61.7177Z" fill="#555555"/>
<path d="M75.2193 63.151L75.7015 63.5281C75.2869 63.9728 74.609 63.9843 74.0131 63.518C73.4172 63.0516 73.2214 62.3017 73.7813 61.5864C74.3412 60.871 75.0984 60.8667 75.7115 61.3474C76.3247 61.8282 76.4542 62.4989 76.1275 62.984L75.6468 62.6069C75.7605 62.319 75.6856 62.0901 75.3402 61.821C74.9947 61.5518 74.5759 61.5245 74.2448 61.9491C73.9137 62.3737 74.0188 62.758 74.3887 63.0444C74.7587 63.3309 75.0019 63.315 75.225 63.151H75.2193Z" fill="#555555"/>
<path d="M76.7809 62.2305L79.1645 63.3618L78.9328 63.8483L78.0087 63.4079L77.076 65.3712L76.5435 65.1178L77.4747 63.156L76.5492 62.7155L76.7809 62.2305Z" fill="#555555"/>
<path d="M81.5738 65.2821C81.3766 66.1458 80.6814 66.4926 79.9114 66.3185C79.1413 66.1443 78.6577 65.5527 78.8577 64.6675C79.0578 63.7823 79.7502 63.457 80.5202 63.6312C81.2903 63.8053 81.771 64.4128 81.5738 65.2821ZM81.0096 65.154C81.1276 64.6373 80.8455 64.3206 80.3878 64.217C79.9301 64.1134 79.54 64.2703 79.422 64.7927C79.304 65.3152 79.5861 65.6247 80.0452 65.7283C80.5044 65.832 80.8959 65.6621 81.0096 65.154Z" fill="#555555"/>
<path d="M83.9675 65.6365L84.5015 66.6685L83.8624 66.6786L83.409 65.7804C83.35 65.7804 83.2997 65.7804 83.2651 65.7804L82.6404 65.7905L82.6548 66.693L82.0647 66.7031L82.0215 63.9913L82.6116 63.9812L83.3443 63.9668C83.6696 63.9668 84.3936 63.9495 84.408 64.8549C84.4137 65.3357 84.2093 65.5055 83.9675 65.6365ZM83.8596 64.8722C83.8596 64.4951 83.4983 64.5008 83.3155 64.5037L82.6188 64.5152L82.6303 65.2694L83.3184 65.2579C83.4868 65.2551 83.8668 65.2507 83.8596 64.8722Z" fill="#555555"/>
<path d="M88.6584 63.8587C88.9851 64.8144 88.1215 65.0721 87.8783 65.1541L87.2867 65.3557L87.5328 66.0753L86.9743 66.2668L86.1035 63.7004L86.6606 63.5104L87.2521 63.306C87.5558 63.2023 88.3432 62.9361 88.6584 63.8587ZM88.1359 64.0386C87.992 63.5953 87.6264 63.7191 87.4407 63.7838L86.8232 63.9926L87.1255 64.8763L87.7372 64.6676C87.8826 64.6144 88.2942 64.4992 88.1359 64.0386Z" fill="#555555"/>
<path d="M91.5487 62.5724C92.015 63.3324 91.7559 64.0621 91.0837 64.4753C90.4115 64.8884 89.6444 64.8049 89.1766 64.0305C88.7088 63.2561 88.9693 62.5407 89.6415 62.1276C90.3137 61.7145 91.0823 61.8138 91.5487 62.5724ZM91.0564 62.8761C90.7786 62.4241 90.3554 62.3939 89.9553 62.64C89.5551 62.8862 89.3795 63.2691 89.6674 63.7282C89.9553 64.1874 90.3669 64.209 90.7671 63.9643C91.1672 63.7196 91.3299 63.3194 91.0564 62.8761Z" fill="#555555"/>
<path d="M93.5308 61.144L94.6305 61.5225L94.1757 61.9716L93.2271 61.6348C93.1868 61.678 93.1523 61.7125 93.125 61.7384L92.6802 62.1774L93.3149 62.8194L92.8946 63.2339L90.9976 61.3037L91.4179 60.8892C91.5201 60.7884 91.8238 60.4862 91.9389 60.3739C92.1706 60.145 92.6845 59.6369 93.3207 60.2818C93.646 60.6157 93.6172 60.882 93.5308 61.144ZM92.9263 60.6646C92.6629 60.3969 92.4096 60.6459 92.2786 60.7755L91.782 61.2649L92.3103 61.8018L92.8011 61.3181C92.9206 61.2001 93.1926 60.9353 92.9263 60.6646Z" fill="#555555"/>
<path d="M94.1111 57.5449L94.5544 57.8328L93.5987 59.2621L94.0622 59.5716L94.9718 58.2085L95.4152 58.505L94.504 59.8681L95.4108 60.4726L95.0827 60.9634L92.8286 59.4564L94.1111 57.5449Z" fill="#555555"/>
<path d="M96.6544 58.4254L94.2075 57.2538L94.4623 56.7227L96.9092 57.8929L96.6544 58.4254Z" fill="#555555"/>
<path d="M96.6728 54.4365C97.1722 54.5804 97.9107 55.0238 97.5825 56.1076C97.5422 56.2429 97.2831 57.0993 97.2457 57.2246L94.6548 56.4415L94.9916 55.3231C95.3155 54.2235 96.1791 54.2854 96.6728 54.4365ZM96.4972 55.0209C96.2093 54.9316 95.6782 54.8956 95.5026 55.4786L95.3356 56.0313L96.8988 56.5049C96.929 56.4027 96.988 56.217 97.0657 55.9521C97.2428 55.3735 96.775 55.1044 96.4972 55.0209Z" fill="#555555"/>
<path d="M98.0507 54.1567L95.3677 53.7652L95.4526 53.1895L98.1356 53.5795L98.0507 54.1567Z" fill="#555555"/>
<path d="M96.8459 50.1565C97.7368 50.1421 98.2334 50.7323 98.2464 51.5254C98.2593 52.3184 97.7987 52.9259 96.8905 52.9403C95.9822 52.9546 95.5029 52.3645 95.4914 51.57C95.4799 50.7754 95.9549 50.1709 96.8459 50.1565ZM96.8559 50.7323C96.3263 50.7409 96.0844 51.0892 96.0916 51.5585C96.0988 52.0277 96.3435 52.3703 96.8819 52.3602C97.4202 52.3501 97.6519 52.0032 97.6447 51.534C97.6375 51.0648 97.377 50.7251 96.8559 50.7337V50.7323Z" fill="#555555"/>
<path d="M69.6126 49.0133C69.8622 49.0133 70.0646 48.811 70.0646 48.5613C70.0646 48.3117 69.8622 48.1094 69.6126 48.1094C69.363 48.1094 69.1606 48.3117 69.1606 48.5613C69.1606 48.811 69.363 49.0133 69.6126 49.0133Z" fill="#555555"/>
<path d="M96.5247 48.8766C96.7743 48.8766 96.9767 48.6742 96.9767 48.4246C96.9767 48.175 96.7743 47.9727 96.5247 47.9727C96.2751 47.9727 96.0728 48.175 96.0728 48.4246C96.0728 48.6742 96.2751 48.8766 96.5247 48.8766Z" fill="#555555"/>
<path d="M88.6227 43.9236C88.4788 44.2618 88.3608 44.5425 88.237 44.8189C87.9045 45.5573 87.5461 46.2827 87.0222 46.9088C86.4691 47.601 85.7537 48.1459 84.9394 48.495C84.2718 48.7658 83.5501 48.8762 82.8321 48.8174C82.1369 48.7714 81.4647 48.5972 80.7825 48.4864C80.2949 48.4052 79.8034 48.349 79.31 48.318C79.071 48.3097 78.8327 48.3468 78.6076 48.4274C78.3751 48.4961 78.1706 48.6374 78.024 48.8305C77.8774 49.0237 77.7965 49.2587 77.7929 49.5011C77.7699 49.8452 77.7929 50.1935 77.7929 50.5389C77.7965 50.6379 77.7937 50.7369 77.7843 50.8354C77.774 50.9084 77.7511 50.979 77.7166 51.0442C77.7008 51.0729 77.6389 51.1089 77.6187 51.0989C77.5983 51.0887 77.5803 51.0741 77.5662 51.0562C77.552 51.0383 77.5419 51.0175 77.5367 50.9952C77.5317 50.8967 77.536 50.7979 77.5497 50.7001C77.6811 49.7021 77.7623 48.6981 77.7929 47.6919C77.8217 46.8757 77.839 46.0596 77.8562 45.2449C77.8678 44.6433 77.8692 44.0402 77.8793 43.4385C77.8793 43.3709 77.826 43.2528 77.9656 43.2514C78.0837 43.2514 78.0491 43.3594 78.0534 43.4212C78.0678 43.6429 78.0678 43.866 78.0779 44.0891C78.0855 44.1337 78.0971 44.1775 78.1124 44.2201C78.1455 44.1985 78.1801 44.1784 78.2118 44.1539C78.48 43.9232 78.7638 43.7111 79.061 43.5191C80.1938 42.8844 81.3381 42.8628 82.468 43.5364C82.9119 43.8085 83.3246 44.1285 83.6986 44.4907C84.1726 44.9601 84.6887 45.385 85.2402 45.7602C85.4764 45.9115 85.7425 46.0097 86.0203 46.0481C86.2617 46.0871 86.5088 46.0698 86.7422 45.9973C86.9757 45.9249 87.1893 45.7994 87.3662 45.6307C87.7437 45.269 88.023 44.8173 88.178 44.318C88.2427 44.1323 88.2874 43.9394 88.3449 43.7494C88.3637 43.6693 88.3902 43.5912 88.4241 43.5162C88.4846 43.3982 88.5752 43.391 88.6544 43.499C88.7881 43.6988 88.8652 43.9311 88.8775 44.1712C89.0303 45.5568 88.7124 46.9536 87.975 48.1366C87.5674 48.7671 87.1213 49.3718 86.6393 49.9474C86.0492 50.6697 85.5036 51.4272 85.0056 52.2158C84.6273 52.8315 84.4418 53.5463 84.473 54.2683C84.4828 54.725 84.6226 55.1694 84.876 55.5494C85.0427 55.8174 85.2894 56.0264 85.5813 56.1467C85.8731 56.2671 86.1953 56.2928 86.5025 56.2201C86.7184 56.1755 86.8005 56.2201 86.8163 56.4432C86.8348 56.6729 86.8252 56.9039 86.7875 57.1313C86.5198 58.6325 85.2229 59.9179 83.7159 60.1971C82.911 60.3692 82.0729 60.295 81.3107 59.9841C80.7781 59.7698 80.3064 59.4276 79.9374 58.9878C79.5684 58.548 79.3134 58.0241 79.1949 57.4623C78.7947 55.7538 79.1848 54.2237 80.4255 52.9484C81.1553 52.1971 82.0088 51.6069 82.8868 51.0442C83.5518 50.6123 84.2456 50.2309 84.9178 49.8149C85.9014 49.2218 86.8038 48.5033 87.6022 47.6775C88.4774 46.7534 88.7868 45.6465 88.7235 44.4072C88.7014 44.2438 88.6678 44.0822 88.6227 43.9236Z" fill="#555555"/>
<path d="M100.099 11.2213C99.82 10.6905 99.3995 10.2476 98.8838 9.94174C98.4485 9.68099 97.9519 9.53996 97.4445 9.53296C95.0724 9.53296 93.8907 12.0202 92.9968 13.8208C92.5534 14.6889 91.9615 15.4727 91.248 16.1368C91.1717 16.2131 91.0306 16.2217 91.0378 16.0317C91.0148 14.0166 90.8003 11.7136 89.3869 9.85682C88.5304 8.72835 86.9687 8.21017 85.8791 8.20586C84.2613 8.20586 82.9586 9.4725 82.3282 10.221C81.4396 11.3176 80.8297 12.6129 80.5506 13.9964C80.2425 15.4214 80.2512 16.8047 80.2958 18.4585C80.3404 20.1123 80.8298 21.5776 81.3537 22.8903C81.4194 23.031 81.4575 23.1829 81.466 23.338C81.4574 23.9223 80.7218 24.3455 80.2008 24.3959C79.9181 24.4196 79.6342 24.3678 79.3781 24.2459C79.1219 24.1241 78.9027 23.9364 78.7427 23.7021C78.4203 23.2257 78.4088 22.6427 78.3973 22.0224C78.3973 21.8957 78.3973 21.769 78.3886 21.6438C78.3742 21.2912 78.3786 20.9241 78.3886 20.5686V20.3239C78.3886 20.1944 78.3886 20.0663 78.3886 19.9382V17.6265L78.4289 14.6686C78.439 13.8352 78.3584 11.8302 77.3868 11.2501C77.1949 11.1371 76.9808 11.0669 76.7593 11.0443H76.6456C76.2267 11.0443 75.8136 11.2314 75.3818 11.62C74.5513 12.3556 74.0389 13.3574 73.6459 14.2411C72.6945 16.3642 71.969 18.8658 71.4293 21.89C71.4005 22.0555 71.3688 22.2397 71.3386 22.4369V19.2027C71.3386 18.6514 71.3386 18.1476 71.3213 17.6611V17.4538C71.3112 16.9644 71.3026 16.4592 71.3026 15.9036V15.0904C71.3099 14.9401 71.2718 14.7911 71.1932 14.6627C71.1147 14.5344 70.9993 14.4326 70.8622 14.3707L70.5397 14.2267C70.3138 14.1245 70.1525 14.0396 70.0086 13.9633C69.7723 13.8264 69.5179 13.7232 69.2529 13.6568C69.1865 13.6405 69.1184 13.6323 69.05 13.6323C68.8365 13.6327 68.6312 13.7148 68.4762 13.8617C68.3212 14.0086 68.2284 14.2093 68.2166 14.4225V14.5103C68.2094 14.7435 68.2036 14.9752 68.1993 15.207C68.1821 15.7942 68.1677 16.3815 68.1518 16.9687V17.225C68.1389 17.687 68.1389 18.0886 68.1389 18.4786C68.1389 18.8687 68.1389 19.2674 68.1274 19.7223L68.0482 22.7162C68.041 23.0141 68.041 23.3149 68.0396 23.6345C68.0396 25.2178 68.028 26.8472 67.2493 28.1354C67.16 28.2954 67.0279 28.4275 66.8679 28.5168C66.2922 28.8205 65.8603 28.239 65.7164 27.9756C64.9967 26.745 65.073 25.2638 65.1522 23.8317C65.1694 23.5093 65.1867 23.2055 65.1939 22.9033C65.2616 20.3052 65.3379 17.7331 65.4026 15.2588C65.4046 15.1954 65.3912 15.1324 65.3636 15.0753C65.3361 15.0182 65.2951 14.9685 65.2443 14.9306C65.1935 14.8926 65.1341 14.8676 65.0714 14.8578C65.0086 14.848 64.9445 14.8537 64.8845 14.8745L63.9028 15.1998C63.363 15.3797 63.032 16.5153 62.8492 17.4365C62.8453 17.4575 62.8348 17.4766 62.8193 17.4911C62.8037 17.5056 62.784 17.5147 62.7628 17.5171C62.7424 17.5198 62.7217 17.5159 62.7036 17.5061C62.6855 17.4963 62.671 17.481 62.6621 17.4625C62.4332 16.9875 61.905 16.1944 60.942 16.2246C58.6477 16.298 56.7981 18.1951 55.9848 20.0404C55.2493 21.7057 55.0291 23.5265 54.8995 25.2451C54.8477 25.9332 54.8405 26.6312 54.8348 27.3077V27.3236C54.8348 28.1253 54.8233 28.9544 54.7398 29.7604C54.6289 30.7925 54.4145 31.6215 53.7236 32.3124C53.6756 32.3619 53.6214 32.405 53.5624 32.4405C53.4738 32.4961 53.3718 32.5264 53.2673 32.5283C52.9161 32.5283 52.6081 32.1368 52.4368 31.7684C51.5861 29.9533 51.7488 27.9339 51.9042 25.9778L52.3216 20.7183C52.6368 16.7586 52.7894 15.8244 52.8384 15.6114C58.3281 14.9047 63.4005 11.7395 66.7571 6.92338C67.4099 5.99848 67.785 4.90633 67.838 3.77547C67.8807 3.02137 67.7518 2.26741 67.4609 1.57035C67.3858 1.38099 67.2567 1.21792 67.0895 1.10146C66.9224 0.984999 66.7247 0.920305 66.521 0.91544H66.5138C66.3325 0.915108 66.1547 0.96513 66.0002 1.05993C65.8457 1.15472 65.7205 1.29057 65.6387 1.45232C62.8737 6.70315 58.3454 10.3505 53.2097 11.4703L53.6991 5.29113V5.23211L53.4328 5.29689C51.8927 5.66824 50.6664 7.87048 49.7883 11.8417H49.7797C46.0848 11.8417 40.8873 11.1335 37.1046 7.75965L37.0729 7.73086L37.0614 7.50344C36.9103 4.6247 35.1413 2.13747 32.3288 0.84923C31.7615 0.589332 31.1692 0.387743 30.5612 0.247572C30.0472 0.129835 29.5244 0.054733 28.9981 0.0230305C28.7289 0.00863675 28.4568 0 28.1891 0C24.8138 0 21.758 1.17884 19.586 3.31919C17.0541 5.8093 15.7889 9.62651 16.1128 13.7935C16.2697 15.846 17.0282 17.9087 18.305 19.7568C19.1686 21.0105 20.2452 22.1246 21.283 23.2027C21.6601 23.5927 22.0488 23.9972 22.4216 24.4002C23.6148 25.6957 25.0642 27.4488 25.6702 29.5201C26.1826 31.279 26.0891 33.2898 25.4068 35.184C23.8811 39.41 19.7328 42.2484 15.0851 42.2484C14.2811 42.248 13.4797 42.1577 12.6957 41.9793C9.78964 41.3157 7.21317 39.4143 5.80258 36.8925C4.36321 34.3189 3.8983 30.2714 5.80258 27.4963C6.18889 26.9293 6.69123 26.4508 7.27633 26.0925C7.86144 25.7342 8.51598 25.5042 9.19662 25.4179C9.36116 25.3949 9.52708 25.3834 9.6932 25.3833C10.2561 25.3788 10.8106 25.5195 11.3033 25.7918C11.7959 26.0641 12.2101 26.4588 12.5057 26.9378C12.7496 27.3 12.8867 27.7235 12.9016 28.1599C12.9016 28.5917 12.6382 29.0235 12.3632 29.4798C11.858 30.3117 11.288 31.2545 11.9041 32.6262C12.3359 33.582 13.3017 34.1304 14.5583 34.1304C15.1664 34.129 15.768 34.0051 16.3273 33.7662C17.0753 33.4364 17.7325 32.9308 18.2431 32.2923C18.839 31.5539 19.2276 30.5334 19.3672 29.3416C19.4939 28.252 19.2794 27.1509 18.6893 25.8741C18.6461 25.7806 18.6029 25.6913 18.5569 25.5992C18.0207 24.4925 17.2258 23.5312 16.2395 22.7968C14.8447 21.7777 13.0988 21.2394 11.1916 21.2394C8.13437 21.2394 5.04403 22.6068 3.13111 24.8061C1.51614 26.6586 0.548878 29.0954 0.331533 31.859C0.129915 34.4358 0.602143 37.0206 1.70181 39.3596C3.62769 43.3985 7.48089 46.3607 11.9861 47.2819C13.4819 47.5891 15.0047 47.7448 16.5317 47.7468C19.7832 47.7468 22.8778 47.0142 25.4802 45.6281C29.9049 43.2704 32.7865 38.4658 32.9995 33.0911C33.1434 29.402 31.9488 25.7504 29.7105 23.0587C28.8469 22.0166 27.8134 21.1156 26.8203 20.2448C25.922 19.4884 25.0703 18.6785 24.2697 17.8194C23.0405 16.4434 21.5349 14.2311 21.3377 11.5035C21.2687 10.4395 21.4187 9.37268 21.7784 8.369C22.1381 7.36532 22.6999 6.44611 23.4291 5.66824C24.1256 4.90353 24.974 4.29249 25.92 3.87414C26.866 3.45579 27.8888 3.23933 28.9232 3.23858C29.6429 3.23858 30.6361 3.37533 31.3154 4.02016C31.6117 4.30038 31.8295 4.65318 31.9473 5.04356C32.0913 5.53007 32.0366 5.66105 32.038 5.66681H32.0121C31.9391 5.64939 31.865 5.63641 31.7904 5.62794C31.5893 5.59899 31.3863 5.58456 31.183 5.58476C29.4198 5.58476 27.4982 6.67005 26.2892 8.35123C25.9062 8.88075 25.6455 9.4886 25.5258 10.131C25.4061 10.7734 25.4304 11.4343 25.5968 12.0662C25.7369 12.5739 25.9927 13.0422 26.344 13.4346C26.6954 13.8269 27.1328 14.1325 27.622 14.3275C28.1394 14.5325 28.692 14.6338 29.2485 14.6255C29.6351 14.6237 30.0207 14.5851 30.4 14.5103C31.5821 14.2833 32.7134 13.8444 33.7393 13.2149C34.7138 12.5945 35.4508 11.7539 36.0697 11.0083L36.4554 10.5045C39.6451 13.5272 44.1446 15.3725 49.1219 15.705C48.5965 19.6071 48.4296 23.5078 48.3576 25.1789C48.349 25.3876 48.3418 25.5589 48.3346 25.6942C48.3186 26.0606 48.2821 26.4258 48.2252 26.7881C48.0453 27.8878 47.4781 29.8554 45.6933 30.6744C45.6761 30.6818 45.6574 30.6847 45.6388 30.6829C45.6202 30.6811 45.6023 30.6748 45.5868 30.6644C45.5717 30.655 45.5592 30.6418 45.5506 30.6262C45.5421 30.6105 45.5377 30.593 45.5379 30.5751C45.5213 30.0238 45.4766 29.4738 45.404 28.927V28.8767C45.3416 28.2234 45.2211 27.577 45.0442 26.945C44.7851 26.0411 44.3245 24.7414 43.304 23.9022C42.6749 23.4008 41.919 23.0839 41.1204 22.9868C38.3612 22.6096 36.2899 24.5514 35.2708 26.4931C34.2978 28.347 33.8631 30.6485 34.0488 32.9702C34.1755 34.5737 34.6634 36.799 36.2582 38.2959C36.8944 38.8918 37.9351 39.6043 39.2809 39.6072H39.291C40.5735 39.6072 41.997 38.9825 42.9211 38.0138C43.6696 37.2293 44.2655 36.17 44.7448 34.7781C44.9933 34.0415 45.1914 33.2889 45.3378 32.5255C46.6678 32.298 47.6336 31.9253 48.2093 31.4143C48.4555 33.5186 50.3468 35.2934 52.4411 35.3711H52.5534C54.4058 35.3711 56.2497 33.6856 56.9406 31.3639C56.9422 31.3567 56.9462 31.3502 56.9519 31.3455C56.9577 31.3408 56.9648 31.3381 56.9722 31.338C56.9798 31.3373 56.9873 31.3392 56.9936 31.3434C56.9998 31.3476 57.0045 31.3538 57.0068 31.361C57.4112 32.2808 58.3799 32.8968 59.0852 33.0091C59.258 33.0366 59.4328 33.05 59.6077 33.0494C60.4567 33.0526 61.2754 32.7343 61.8992 32.1584C62.6002 31.4934 63.1183 30.519 63.4393 29.261C63.4406 29.2537 63.4443 29.2471 63.4497 29.2421C63.4552 29.2371 63.4622 29.2342 63.4696 29.2336C63.4764 29.2323 63.4835 29.2333 63.4898 29.2364C63.496 29.2395 63.501 29.2446 63.5041 29.2509C63.8308 29.8454 65.0615 31.0127 66.4217 31.0127C66.6591 31.0112 66.8948 30.9718 67.1198 30.8961C68.1705 30.555 69.2371 29.189 69.7107 27.5726C69.7121 27.5654 69.716 27.5589 69.7219 27.5544C69.7277 27.5499 69.735 27.5476 69.7423 27.5481C69.7502 27.5476 69.7581 27.5499 69.7644 27.5547C69.7708 27.5594 69.7752 27.5663 69.7769 27.574C69.9971 28.3556 70.4203 28.9832 70.9068 29.2523C71.0637 29.3399 71.2369 29.3942 71.4157 29.4117C71.5946 29.4293 71.7751 29.4098 71.946 29.3545C72.1709 29.2864 72.3774 29.1683 72.5502 29.009C72.7229 28.8497 72.8574 28.6534 72.9435 28.4348C73.0278 28.1825 73.0786 27.9202 73.0946 27.6546C73.1191 27.4171 73.1436 27.1782 73.1666 26.935C73.5106 23.551 73.8647 20.0519 75.3156 16.8594C75.4883 16.4794 75.661 16.1325 75.8352 15.7985L75.8093 16.6967L75.7963 17.1285C75.7531 18.6384 75.7085 20.2016 75.6063 21.7345C75.5056 23.1811 75.5646 24.6694 76.6571 25.7518C77.3428 26.4293 78.2667 26.8112 79.2307 26.8155C79.5542 26.8156 79.8762 26.7715 80.1879 26.6845L80.244 26.6672L80.3505 26.637C81.6071 26.2253 82.3656 24.8205 82.629 24.2347C82.6442 24.2006 82.6678 24.1709 82.6974 24.1483C82.7271 24.1256 82.762 24.1108 82.7989 24.1051C82.8367 24.0993 82.8753 24.1029 82.9114 24.1154C82.9476 24.128 82.9801 24.1491 83.0061 24.1771C83.5027 24.7169 84.4254 24.9429 85.0774 24.9213C86.6319 24.8767 88.1433 23.9324 89.2257 22.3304C89.312 22.2037 89.3998 22.067 89.4847 21.9274C89.8074 21.3838 90.0732 20.8083 90.2778 20.2102C90.3872 19.8979 90.4909 19.5625 90.5887 19.2127C90.6075 19.1379 90.7024 18.7896 90.7888 18.4715C90.9054 18.0843 91.045 17.8827 91.3142 17.7518C93.0803 16.8738 94.9385 14.0252 95.4884 13.2523C95.8655 12.7269 96.5362 12.4318 97.0976 12.8838C97.3663 13.1175 97.5412 13.4407 97.5898 13.7935C97.6964 14.4254 97.5208 15.0889 97.3711 15.7021C97.2197 16.3187 97.0362 16.9269 96.8212 17.5243C96.389 18.7176 95.8499 19.8695 95.2106 20.9659C94.0655 22.9154 92.6613 24.7007 91.0364 26.2728C90.1278 27.1566 89.1618 27.9793 88.1447 28.7356C84.2857 31.6143 78.1842 34.1261 71.6783 36.0606C63.7502 38.4183 55.091 40.0131 47.0766 41.4409C44.0035 41.9879 39.907 42.9005 36.9621 43.6619C29.7552 45.523 24.428 48.3341 20.6756 52.2578C18.9196 54.0945 17.7177 56.0002 17.1074 57.9289C16.3733 60.2406 16.5029 62.6573 17.4629 64.5601C18.3856 66.3867 20.1286 67.7267 22.0142 68.0549C22.31 68.1057 22.6095 68.1312 22.9095 68.1312C24.4079 68.1312 25.8386 67.5022 26.7368 66.4471C27.491 65.5648 27.8653 64.4464 28.2294 63.3654C28.323 63.0848 28.4209 62.7897 28.5173 62.5148C30.3064 57.6209 34.2503 55.1423 39.6221 52.9214C45.5911 50.4543 52.9247 48.0476 58.96 46.0685C62.3267 44.9645 65.7251 43.8835 69.0932 42.7249C70.8847 39.8528 73.5138 37.5991 76.6259 36.2674C79.738 34.9358 83.1835 34.5903 86.498 35.2775C88.7579 34.0008 90.9284 32.5629 92.863 30.8356C95.8583 28.1627 98.0447 24.7241 99.5388 21.0177C100.201 19.4158 100.624 17.7252 100.794 16C100.919 14.6096 100.948 12.8118 100.099 11.2213ZM32.6541 10.0166C32.6281 10.0684 32.6008 10.1202 32.5706 10.1706C32.2136 10.7665 31.5889 11.2012 31.1312 11.466C30.5558 11.8097 29.9037 12.0042 29.2341 12.0317H29.2111C28.844 12.0317 28.5778 11.9569 28.3993 11.8C28.0495 11.4977 28.0193 10.9363 28.1013 10.5362C28.2158 10.028 28.4729 9.56312 28.8426 9.19614C29.4512 8.60208 30.265 8.26501 31.1154 8.25479C31.531 8.24606 31.9404 8.35751 32.2942 8.57577C32.5146 8.73484 32.6716 8.96674 32.7374 9.23042C32.8033 9.4941 32.7738 9.77258 32.6541 10.0166ZM42.0949 32.6435C41.9236 33.9231 41.6257 35.2085 41.0355 36.3355C40.7822 36.8162 40.4108 37.6036 39.7703 37.6036C38.9585 37.6036 38.5598 36.3643 38.3698 35.7511C38.1299 34.9157 37.9675 34.06 37.8847 33.1948C37.7201 31.8262 37.7686 30.4405 38.0287 29.0868C38.1107 28.6665 38.21 28.2318 38.3367 27.8015C38.3453 27.7745 38.3628 27.7512 38.3864 27.7354C38.4099 27.7197 38.4381 27.7123 38.4663 27.7147C38.4946 27.717 38.5212 27.7289 38.5418 27.7483C38.5625 27.7677 38.5759 27.7936 38.5799 27.8216C38.7584 29.166 39.7444 31.2243 41.8041 32.1296C41.9019 32.172 41.9833 32.245 42.0357 32.3378C42.0882 32.4305 42.109 32.5379 42.0949 32.6435ZM42.0114 30.3578C39.553 29.1329 38.6332 26.1836 39.743 25.2523C39.7558 25.2415 39.7692 25.2314 39.7833 25.2221C40.8441 24.4679 41.4788 25.9792 41.7264 26.7277C42.0858 27.8513 42.2674 29.0241 42.2647 30.2038C42.2645 30.2335 42.2568 30.2626 42.2421 30.2885C42.2275 30.3144 42.2064 30.336 42.1811 30.3515C42.1557 30.3669 42.1267 30.3756 42.0971 30.3767C42.0674 30.3778 42.0379 30.3713 42.0114 30.3578ZM61.9093 23.3408C61.8459 25.0263 61.7553 26.7953 61.4415 28.4794C61.3402 29.0308 61.2105 29.5765 61.0528 30.1145C60.9521 30.4513 60.7794 30.827 60.4382 30.9105C60.0554 31.0041 59.7027 30.6773 59.4926 30.3448C59.1801 29.8137 58.9578 29.2344 58.8348 28.6305C58.0964 25.3731 58.5563 21.9587 60.1302 19.0127C60.2041 18.8763 60.2848 18.7437 60.372 18.6154C60.6225 18.244 61.1061 17.7676 61.5696 18.1418C61.8575 18.3707 61.8575 18.7622 61.8733 19.0947C61.8992 19.5596 61.9179 20.0231 61.9294 20.488C61.9525 21.4399 61.9457 22.3909 61.9093 23.3408ZM87.6826 18.303C87.507 19.4632 87.212 20.6147 86.6751 21.6381C86.4232 22.1188 86.0504 22.9076 85.4099 22.9076C84.5995 22.9076 84.1994 21.6669 84.0094 21.0537C83.7715 20.218 83.6106 19.3623 83.5286 18.4974C83.364 17.1288 83.4125 15.743 83.6726 14.3894C83.7779 13.8203 83.9222 13.259 84.1044 12.7096C84.1068 12.6997 84.113 12.691 84.1216 12.6854C84.1302 12.6798 84.1406 12.6777 84.1507 12.6795C84.1609 12.6814 84.1699 12.687 84.176 12.6953C84.1821 12.7036 84.1848 12.7138 84.1835 12.724C84.0972 14.0627 84.9522 16.8277 87.3991 17.8237C87.4953 17.8595 87.5763 17.9272 87.6287 18.0154C87.6811 18.1037 87.7016 18.2072 87.687 18.3088L87.6826 18.303ZM87.4912 15.8403C85.1494 14.5448 84.2757 11.6186 85.2847 10.6355L85.3422 10.5837C85.3667 10.5635 85.3926 10.5434 85.42 10.5247C86.4808 9.77045 87.117 11.2818 87.3631 12.0303C87.7317 13.1839 87.9139 14.3889 87.9029 15.5999C87.9038 15.6486 87.8918 15.6966 87.8682 15.7392C87.8446 15.7817 87.8102 15.8173 87.7684 15.8423C87.7266 15.8673 87.679 15.8808 87.6303 15.8814C87.5816 15.8821 87.5337 15.8699 87.4912 15.846V15.8403Z" fill="#555555"/>
</svg>
