<svg width="145" height="33" viewBox="0 0 145 33" fill="none" xmlns="http://www.w3.org/2000/svg">
<path d="M87.0407 20.4734C87.0407 16.2409 85.6612 14.4692 81.8182 14.4692C77.8111 14.4692 76.4316 16.4378 76.4316 20.4734C76.4316 24.5091 77.8111 26.4776 81.8182 26.4776C85.694 26.4448 87.0407 24.6731 87.0407 20.4734ZM94.8908 20.4078C94.8908 26.9042 91.9347 32.5475 84.4787 32.5475C80.603 32.5475 78.0082 31.1367 76.4644 28.6759V31.8257H68.6472V0H76.4644V12.2381C78.0082 9.84299 80.603 8.36654 84.4787 8.36654C91.9018 8.36654 94.8908 14.1083 94.8908 20.4078Z" fill="#555555"/>
<path d="M105.008 17.9129H114.697C114.434 15.0585 113.022 13.5164 109.967 13.5164C107.142 13.5164 105.5 14.6319 105.008 17.9129ZM114.401 24.9671H121.989C121.2 28.8714 118.113 32.5462 109.836 32.5462C100.541 32.5462 97.2888 26.6404 97.2888 20.4065C97.2888 13.8117 101.099 8.36522 109.836 8.36522C119.131 8.36522 122.087 14.2382 122.087 20.5377C122.087 21.2595 122.054 21.9485 121.956 22.4407H104.876C105.336 26.0826 107.11 27.2966 110.033 27.2966C112.365 27.3294 113.777 26.3123 114.401 24.9671Z" fill="#555555"/>
<path d="M122.908 0V5.74174H126.16V31.8257H133.977V0H122.908Z" fill="#555555"/>
<path d="M144.586 25H137.229V31.8245H144.586V25Z" fill="#555555"/>
<path d="M27.8532 0V5.74174H31.1049V31.8257H38.9221V0H27.8532Z" fill="#555555"/>
<path d="M58.6292 31.8243H65.3625C65.0998 29.987 64.9684 28.0184 64.9684 25.6561V16.5349C64.9684 11.3181 61.4211 8.36522 54.2279 8.36522C47.0347 8.36522 42.8633 11.8431 42.6334 16.6989H50.2207C50.2536 14.6975 51.6002 13.582 54.3264 13.582C56.9212 13.582 57.7424 14.4023 57.7424 15.7803C57.7424 16.9614 57.184 17.5192 55.1147 17.8801L49.958 18.7988C43.6845 19.8487 42.1736 22.2766 42.1736 25.9186C42.1736 29.9542 45.1625 32.5462 49.7281 32.5462C54.3264 32.5462 57.1511 30.5448 58.3007 27.1981C58.2679 29.0027 58.3993 30.5119 58.6292 31.8243ZM57.7424 21.2267C57.7424 25.328 55.6402 27.4606 52.6842 27.4606C51.1076 27.4606 49.8594 26.6404 49.8594 25.0327C49.8594 23.4906 50.6806 22.7032 52.8484 22.1454L54.1622 21.8173C55.5746 21.4564 56.6256 21.1611 57.7095 20.3409V21.2267H57.7424Z" fill="#555555"/>
<path d="M20.2 25.1319L18.8205 29.266V31.8252H26.2436V8.75975H18.8205V17.4544C18.8205 23.9836 16.1928 26.0834 12.1857 26.0834C8.63837 26.0834 7.42309 24.4757 7.42309 20.2432V8.75975H0V21.4244C0 28.6098 3.61301 32.5798 9.55805 32.5798C14.5506 32.5798 17.441 29.2988 18.3606 25.1647H20.2V25.1319Z" fill="#555555"/>
</svg>
