<svg width="145" height="24" viewBox="0 0 145 24" fill="none" xmlns="http://www.w3.org/2000/svg">
<path d="M17.9081 0.204412C17.5691 0.204412 17.2678 0.425029 17.1656 0.753265L11.3542 19.6241C11.2627 19.9039 11.1336 20.1407 10.8 20.1407C10.4879 20.1407 10.3157 19.9039 10.2242 19.6241L4.26752 0.747884C4.16528 0.425029 3.86933 0.204412 3.53033 0.204412H0.775302C0.247972 0.204412 -0.123311 0.72098 0.0381164 1.2214L7.17859 23.0572C7.28083 23.3746 7.58216 23.5899 7.91578 23.5899H13.5227C13.8617 23.5899 14.1576 23.3693 14.2599 23.0518L21.2282 1.21602C21.3896 0.715599 21.0129 0.204412 20.491 0.204412H17.9081Z" fill="#555555"/>
<path d="M35.2994 23.5899C34.9604 23.5899 34.6591 23.3693 34.5569 23.041L28.7509 4.17553C28.6594 3.89572 28.5302 3.65896 28.1966 3.65896C27.8845 3.65896 27.7123 3.89572 27.6209 4.17553L21.6588 23.0518C21.5566 23.3746 21.2606 23.5953 20.9216 23.5953H18.1666C17.6393 23.5953 17.268 23.0787 17.4294 22.5783L24.5645 0.737123C24.6667 0.419648 24.9681 0.204412 25.3017 0.204412H30.9086C31.2476 0.204412 31.5436 0.425029 31.6458 0.742503L38.6195 22.5783C38.7809 23.0787 38.4042 23.5899 37.8823 23.5899H35.2994Z" fill="#555555"/>
<path d="M58.8138 5.28397C58.8138 6.66686 57.8399 7.23724 56.4893 6.52696L44.6297 0.392712C44.5221 0.333522 44.3984 0.306618 44.2746 0.306618H41.1591C40.7286 0.306618 40.3842 0.650996 40.3842 1.08147V22.7128C40.3842 23.1432 40.7286 23.4876 41.1591 23.4876H43.7311C44.1616 23.4876 44.506 23.1432 44.506 22.7128V6.72067C44.506 5.33777 45.4799 4.78354 46.8305 5.47768L57.4632 10.9824C58.3941 11.4774 58.8138 12.107 58.8138 13.054V22.7074C58.8138 23.1378 59.1582 23.4822 59.5887 23.4822H62.1823C62.6128 23.4822 62.9571 23.1378 62.9571 22.7074V1.08147C62.9571 0.650996 62.6128 0.306618 62.1823 0.306618H59.5887C59.1582 0.306618 58.8138 0.650996 58.8138 1.08147V5.28397Z" fill="#555555"/>
<path d="M69.1236 11.316C69.1236 6.53775 72.7126 3.31996 77.9859 3.31996H81.419C82.479 3.31996 83.2539 3.91186 83.2539 4.76205V19.0269C83.2539 19.877 82.479 20.4689 81.419 20.4689H77.6739C72.5996 20.4689 69.1236 17.235 69.1236 12.4568V11.316ZM65.0287 11.0416V12.6935C65.0287 19.1291 69.9469 23.5899 77.0766 23.5899H86.6008C87.0313 23.5899 87.3756 23.2455 87.3756 22.815V0.979264C87.3756 0.54879 87.0313 0.204412 86.6008 0.204412H77.3887C70.0545 0.204412 65.0287 4.606 65.0287 11.0416Z" fill="#555555"/>
<path d="M114.48 12.4568C114.48 17.235 111.004 20.4689 105.929 20.4689H102.184C101.124 20.4689 100.349 19.877 100.349 19.0269V4.76205C100.349 3.91186 101.124 3.31996 102.184 3.31996H105.617C110.891 3.31996 114.48 6.53775 114.48 11.316V12.4568ZM106.214 0.204412H97.0024C96.5719 0.204412 96.2275 0.54879 96.2275 0.979264V22.815C96.2275 23.2455 96.5719 23.5899 97.0024 23.5899H106.527C113.656 23.5899 118.574 19.1291 118.574 12.6935V11.0416C118.574 4.606 113.549 0.204412 106.214 0.204412Z" fill="#555555"/>
<path d="M92.6707 0.204412H90.0986C89.6707 0.204412 89.3238 0.551325 89.3238 0.979264V22.815C89.3238 23.243 89.6707 23.5899 90.0986 23.5899H92.6707C93.0986 23.5899 93.4455 23.243 93.4455 22.815V0.979264C93.4455 0.551325 93.0986 0.204412 92.6707 0.204412Z" fill="#555555"/>
<path d="M140.448 13.2371C140.448 17.5848 137.209 20.5013 132.42 20.5013C127.631 20.5013 124.381 17.5956 124.381 13.2478V10.5358C124.375 6.20958 127.598 3.29313 132.409 3.29313C137.219 3.29313 140.448 6.19882 140.448 10.5251V13.2371ZM132.404 5.26224e-06C125.086 0.00538618 120.184 4.13793 120.189 10.2614V13.4953C120.194 19.678 125.102 23.8052 132.42 23.7944C139.716 23.789 144.591 19.6565 144.586 13.4738V10.2399C144.581 4.11641 139.7 -0.00537565 132.404 5.26224e-06Z" fill="#555555"/>
</svg>
