<svg width="156" height="42" viewBox="0 0 156 42" fill="none" xmlns="http://www.w3.org/2000/svg">
<path d="M10.0395 41.0601H3.41695L0.900391 0.199219H5.46992L6.7282 27.186L7.95337 0.199219H12.5229L10.0395 41.0601Z" fill="#555555"/>
<path d="M18.5161 41.0601H13.8804V0.199219H18.5161V41.0601Z" fill="#555555"/>
<path d="M26.4633 41.2914H24.9401C23.6487 41.2914 22.5891 40.8609 21.7613 39.9669C20.9004 39.0728 20.503 38.0463 20.503 36.8874V4.47019C20.503 3.24503 20.9335 2.18543 21.7944 1.3245C22.6553 0.463576 23.7149 0 24.9732 0C25.9997 0 27.3242 0.066219 27.8871 0.231782C28.45 0.364232 29.0129 0.728474 29.609 1.29139C30.4368 2.18543 30.9004 3.24503 30.9335 4.47019V18.9073H26.2977V4.33774H25.0394V36.9205H26.2977V20.8278H30.9335V36.8874C30.9335 38.0794 30.503 39.1059 29.609 40C28.748 40.8278 27.6884 41.2914 26.4633 41.2914Z" fill="#555555"/>
<path d="M39.7413 41.0601H35.1055V4.43763H31.728V0.199219H43.0856V4.43763H39.7413V41.0601Z" fill="#555555"/>
<path d="M49.8739 41.2914C48.8143 41.2914 47.4567 41.2252 46.8938 41.0596C46.3308 40.9272 45.7679 40.563 45.205 40C44.311 39.1722 43.8805 38.1126 43.8805 36.8875V4.50337C43.8805 3.31132 44.311 2.28483 45.205 1.39079C46.0659 0.529866 47.1255 0.0662898 48.3507 0.0662898H49.907C51.1322 0.0662898 52.1586 0.496753 53.0196 1.39079C53.8805 2.28483 54.311 3.31133 54.3441 4.47027V36.8543C54.3441 38.0795 53.9136 39.106 53.0196 39.9669C52.1586 40.861 51.099 41.2914 49.8739 41.2914ZM49.7083 36.9206V4.43715H48.4169V36.9206H49.7083Z" fill="#555555"/>
<path d="M66.2316 41.0601H61.5958V23.1462H60.3044V41.0601H55.7349V0.199219H62.0594C63.2183 0.199219 64.2117 0.629688 65.0064 1.4575C65.8011 2.28532 66.1984 3.34492 66.1984 4.6032V18.2456C66.1984 19.7025 65.3375 20.7621 64.2448 21.3582C65.3375 21.7224 66.1984 22.782 66.1984 24.5369V41.0601H66.2316ZM61.6289 18.9078V4.53697H60.3375V18.9078H61.6289Z" fill="#555555"/>
<path d="M92.5891 41.2914C91.5295 41.2914 90.1719 41.2252 89.6089 41.0596C89.046 40.9272 88.4831 40.563 87.9202 40C87.0262 39.1722 86.5957 38.1126 86.5957 36.8875V4.50337C86.5957 3.31132 87.0262 2.28483 87.9202 1.39079C88.7811 0.529866 89.8407 0.0662898 91.0659 0.0662898H92.6222C93.8474 0.0662898 94.8738 0.496753 95.7348 1.39079C96.5957 2.28483 97.0262 3.31133 97.0593 4.47027V36.8543C97.0593 38.0795 96.6288 39.106 95.7348 39.9669C94.8738 40.861 93.8142 41.2914 92.5891 41.2914ZM92.4566 36.9206V4.43715H91.1652V36.9206H92.4566Z" fill="#555555"/>
<path d="M150.9 41.2914C149.841 41.2914 148.483 41.2252 147.92 41.0596C147.357 40.9272 146.794 40.563 146.231 40C145.337 39.1722 144.907 38.1126 144.907 36.8875V4.50337C144.907 3.31132 145.337 2.28483 146.231 1.39079C147.092 0.529866 148.152 0.0662898 149.377 0.0662898H150.933C152.159 0.0662898 153.185 0.496753 154.046 1.39079C154.907 2.28483 155.337 3.31133 155.37 4.47027V36.8543C155.37 38.0795 154.94 39.106 154.046 39.9669C153.185 40.861 152.125 41.2914 150.9 41.2914ZM150.768 36.9206V4.43715H149.476V36.9206H150.768Z" fill="#555555"/>
<path d="M108.98 41.0601H104.344V23.1462H103.052V41.0601H98.4829V0.199219H104.807C105.966 0.199219 106.96 0.629688 107.754 1.4575C108.549 2.28532 108.946 3.34492 108.946 4.6032V18.2456C108.946 19.7025 108.086 20.7621 106.993 21.3582C108.086 21.7224 108.946 22.782 108.946 24.5369V41.0601H108.98ZM104.344 18.9078V4.53697H103.052V18.9078H104.344Z" fill="#555555"/>
<path d="M79.3107 41.0601H74.7412V0.199219H80.4366C81.8604 0.199219 82.9862 0.662797 83.8472 1.55684C84.7081 2.45087 85.1717 3.54359 85.2048 4.83498V20.2985C85.2048 21.623 84.7743 22.7489 83.8803 23.676C82.9862 24.6032 81.9597 25.0668 80.7677 25.0668H79.3107V41.0601ZM80.6021 20.6959V4.53697H79.3107V20.6959H80.6021Z" fill="#555555"/>
<path d="M115.172 41.0601H110.503V0.199219H118.351V4.43763H115.172V18.378H118.351V22.8482H115.172V41.0601Z" fill="#555555"/>
<path d="M124.973 41.0601H120.337V0.199219H124.973V41.0601Z" fill="#555555"/>
<path d="M132.788 41.0601H126.662V0.199219H132.788C134.079 0.199219 135.139 0.59657 135.934 1.35816C136.728 2.15286 137.126 3.14624 137.126 4.40452V37.0535C137.126 38.3118 136.728 39.272 135.934 39.9674C135.139 40.729 134.079 41.0601 132.788 41.0601ZM132.523 36.7224V4.57008H131.232V36.7224H132.523Z" fill="#555555"/>
<path d="M143.417 41.0601H138.781V0.199219H143.417V41.0601Z" fill="#555555"/>
</svg>
